<?xml version="1.0" encoding="UTF-8"?>
<svg id="Layer_2" data-name="Layer 2" xmlns="http://www.w3.org/2000/svg" viewBox="0 0 100 100">
  <defs>
    <style>
      .cls-1 {
        stroke: #fff;
        stroke-miterlimit: 10;
        stroke-width: 3px;
      }

      .cls-1, .cls-2 {
        fill: #fff;
      }

      .cls-3 {
        fill: #014a95;
      }

      .cls-3, .cls-4, .cls-2 {
        stroke-width: 0px;
      }

      .cls-4 {
        fill: #e4001b;
      }
    </style>
  </defs>
  <g id="Layer_1-2" data-name="Layer 1">
    <g>
      <rect class="cls-4" width="100" height="100" rx="18.83" ry="18.83"/>
      <ellipse class="cls-2" cx="50" cy="50" rx="44.77" ry="28.36" transform="translate(-11.24 14.64) rotate(-15)"/>
      <g>
        <path class="cls-1" d="M35.21,89.26c-2.86,0-5.58-.65-8.14-1.96-3.85-1.93-6.27-4.66-7.2-8.12-.47-1.74-.39-3.47.21-5.16.6-1.68,1.74-3.14,3.39-4.31.92-.6,1.85-1.02,2.83-1.29,2.36-.63,4.56-.15,6.35,1.39,1.34,1.18,2.3,2.85,2.87,4.98.2.76.56,1.31,1.11,1.73.46.35.79.36,1.16.25,1.14-.3,3.37-1.84,5.54-8.73,1.5-4.84,2.68-11.56,3.51-19.98.58-5.8.94-12.13,1.08-18.88-.47.2-.96.42-1.47.64l-.09.04c-1.16.45-2.66.91-4.59,1.43-1.74.47-3.19.5-4.41.09-1.51-.49-2.56-1.59-2.96-3.09-.43-1.58-.19-3.98,3.34-6.39,3.73-2.61,8.66-5.36,14.61-8.17,6.8-3.23,13.28-5.68,19.26-7.28,2.22-.59,4.07-.62,5.66-.09,2.36.8,3.23,2.36,3.54,3.54.26.96.33,2.47-.8,4.24-.78,1.23-1.96,2.23-3.51,2.98l-6.84,3.04c-1.17,19.6-4.09,35.28-8.68,46.65-4.88,12.08-11.72,19.38-20.34,21.69-1.86.5-3.68.75-5.45.75ZM28.28,72.64c-.25,0-.52.04-.82.12-.53.14-1.01.36-1.46.65-.83.59-1.41,1.3-1.7,2.13-.3.82-.33,1.64-.1,2.49.59,2.2,2.19,3.92,4.89,5.28,3.18,1.62,6.58,1.91,10.42.88,7.18-1.92,13.02-8.33,17.34-19.04,4.51-11.17,7.34-26.84,8.44-46.58l.08-1.37,9.28-4.12c.72-.35,1.28-.8,1.61-1.31.19-.29.28-.56.25-.68-.02-.06-.07-.25-.65-.45-.7-.24-1.76-.18-3.06.17-5.72,1.53-11.94,3.89-18.5,7-5.73,2.71-10.44,5.33-13.98,7.81-1.27.87-1.51,1.4-1.55,1.52,0,0,.02,0,.02,0,.14.05.65.16,1.86-.16,1.72-.46,3.1-.89,4.09-1.27,1.85-.81,3.4-1.48,4.64-2l3.14-1.32-.04,3.41c-.08,8.18-.47,15.82-1.16,22.72-.86,8.72-2.1,15.74-3.69,20.88-2.18,6.91-5.01,10.74-8.65,11.72-1.79.48-3.54.13-5.04-1.02-1.35-1.02-2.27-2.42-2.73-4.14-.34-1.26-.84-2.19-1.48-2.76-.44-.38-.89-.56-1.43-.56Z"/>
        <path class="cls-3" d="M67.51,18.68c-1.11,20.09-3.97,35.85-8.6,47.3-4.62,11.45-10.9,18.23-18.84,20.36-4.35,1.17-8.35.82-12-1.04-3.28-1.64-5.29-3.88-6.05-6.7-.35-1.29-.29-2.57.16-3.82.45-1.26,1.31-2.34,2.58-3.24.64-.42,1.35-.74,2.11-.94,1.65-.44,3.08-.13,4.31.92.99.87,1.71,2.16,2.17,3.86.33,1.23.97,2.21,1.92,2.93.95.72,1.98.93,3.1.63,2.82-.76,5.19-4.16,7.09-10.22,1.55-5.02,2.75-11.83,3.6-20.44.68-6.86,1.06-14.37,1.15-22.52-1.25.52-2.8,1.19-4.66,2.01-1.09.42-2.54.87-4.36,1.36-1.29.35-2.34.39-3.13.13-.79-.26-1.29-.77-1.5-1.54-.35-1.29.46-2.61,2.44-3.96,3.66-2.56,8.43-5.22,14.31-7.99,6.71-3.18,13-5.56,18.88-7.14,1.76-.47,3.22-.51,4.36-.13,1.14.39,1.84,1.05,2.09,1.99.2.76.03,1.58-.52,2.46-.55.87-1.42,1.59-2.59,2.16l-8.02,3.57Z"/>
      </g>
    </g>
  </g>
</svg>