<svg xmlns="http://www.w3.org/2000/svg" viewBox="0 0 107.67 23.34"><defs><style>.cls-1{fill:#ef3e3a;}</style></defs><g id="Layer_2" data-name="Layer 2"><g id="Layer_1-2" data-name="Layer 1"><path id="z" class="cls-1" d="M0,19.68V18.05L9,3.67h1ZM.29,4.47v-.8H8.35l-.53.8Zm0,1.6v-.8H7.45l-.51.8Zm0,1.6v-.8H6.52l-.5.8ZM2,19.68H1l10-16h1Zm2,0H3l10-16h1Zm2,0h-1l10-16V5Zm8.88-.8v.8H6.71l.49-.8Zm0-1.61v.8H7.6l.5-.8Zm0-1.6v.8H8.59l.51-.8Z"/><g id="sun"><g id="center"><circle class="cls-1" cx="25.06" cy="11.67" r="2.38"/><path class="cls-1" d="M17,15.09a8.7,8.7,0,0,1,0-6.84,8.94,8.94,0,0,1,1.88-2.81,9,9,0,0,1,2.81-1.88,8.7,8.7,0,0,1,6.84,0A8.88,8.88,0,0,1,31.3,5.44a8.77,8.77,0,0,1,1.88,2.81,8.7,8.7,0,0,1,0,6.84A9,9,0,0,1,31.3,17.9a9.05,9.05,0,0,1-2.81,1.88,8.7,8.7,0,0,1-6.84,0,9.17,9.17,0,0,1-2.81-1.88A9.17,9.17,0,0,1,17,15.09Zm.74-6.53a7.88,7.88,0,0,0,0,6.22A7.76,7.76,0,0,0,22,19a7.88,7.88,0,0,0,6.22,0,8.12,8.12,0,0,0,2.56-1.7,8.32,8.32,0,0,0,1.71-2.56,8,8,0,0,0,0-6.22A8.32,8.32,0,0,0,30.74,6a8.15,8.15,0,0,0-2.56-1.71,8,8,0,0,0-6.22,0A7.82,7.82,0,0,0,17.7,8.56Zm.74,5.91a7.07,7.07,0,0,1,0-5.61A7.09,7.09,0,0,1,22.27,5a7.19,7.19,0,0,1,5.61,0,7.32,7.32,0,0,1,2.29,1.54,7.5,7.5,0,0,1,1.54,2.29,7.19,7.19,0,0,1,0,5.61,7.43,7.43,0,0,1-1.54,2.3,7.3,7.3,0,0,1-2.29,1.53,7.07,7.07,0,0,1-5.61,0,7,7,0,0,1-3.83-3.83Zm.73-5.29a6.31,6.31,0,0,0,0,5,6.32,6.32,0,0,0,3.42,3.42,6.43,6.43,0,0,0,5,0,6.31,6.31,0,0,0,2-1.37,6.51,6.51,0,0,0,1.88-4.53A6.23,6.23,0,0,0,31,9.18a6.37,6.37,0,0,0-3.41-3.41,6.44,6.44,0,0,0-7,1.37A6.31,6.31,0,0,0,19.17,9.18Zm1,5.3a5.61,5.61,0,0,1,2-7.67,5.6,5.6,0,0,1,8.42,4.86,5.61,5.61,0,0,1-10.46,2.81Zm1.45-6.21a4.69,4.69,0,0,0-1.4,3.4,4.8,4.8,0,0,0,8.2,3.39,4.62,4.62,0,0,0,1.41-3.39,4.66,4.66,0,0,0-1.41-3.4,4.8,4.8,0,0,0-6.8,0Zm.57,6.23a3.87,3.87,0,0,1-1.17-2.83,4,4,0,0,1,4-4A3.82,3.82,0,0,1,27.9,8.84a3.82,3.82,0,0,1,1.18,2.83,4,4,0,0,1-6.84,2.83Zm.57-5.1a3.1,3.1,0,0,0-.94,2.27,3.21,3.21,0,0,0,3.2,3.2,3.21,3.21,0,0,0,3.21-3.2,3.21,3.21,0,0,0-3.21-3.21A3.1,3.1,0,0,0,22.81,9.4Z"/></g><g id="rays"><polygon class="cls-1" points="23.12 1.01 23.12 3.66 22.34 3.66 22.34 1.51 23.12 1.01"/><polygon class="cls-1" points="24.69 0 24.69 3.66 23.91 3.66 23.91 0.5 24.69 0"/><polygon class="cls-1" points="26.25 0.51 26.25 3.66 25.47 3.66 25.47 0.01 26.25 0.51"/><polygon class="cls-1" points="27.8 1.51 27.8 3.66 27.03 3.66 27.03 1.01 27.8 1.51"/><polygon class="cls-1" points="23.12 22.33 23.12 19.68 22.34 19.68 22.34 21.83 23.12 22.33"/><polygon class="cls-1" points="24.69 23.34 24.69 19.68 23.91 19.68 23.91 22.84 24.69 23.34"/><polygon class="cls-1" points="26.25 22.83 26.25 19.68 25.47 19.68 25.47 23.33 26.25 22.83"/><polygon class="cls-1" points="27.8 21.83 27.8 19.68 27.03 19.68 27.03 22.33 27.8 21.83"/><polygon class="cls-1" points="14.41 13.62 17.06 13.62 17.06 14.4 14.91 14.4 14.41 13.62"/><polygon class="cls-1" points="13.4 12.05 17.06 12.05 17.06 12.83 13.9 12.83 13.4 12.05"/><polygon class="cls-1" points="13.91 10.49 17.06 10.49 17.06 11.27 13.41 11.27 13.91 10.49"/><polygon class="cls-1" points="14.91 8.94 17.06 8.94 17.06 9.71 14.41 9.71 14.91 8.94"/><polygon class="cls-1" points="35.73 13.62 33.08 13.62 33.08 14.4 35.23 14.4 35.73 13.62"/><polygon class="cls-1" points="36.74 12.05 33.08 12.05 33.08 12.83 36.24 12.83 36.74 12.05"/><polygon class="cls-1" points="36.23 10.49 33.08 10.49 33.08 11.27 36.73 11.27 36.23 10.49"/><polygon class="cls-1" points="35.23 8.94 33.08 8.94 33.08 9.71 35.73 9.71 35.23 8.94"/><polygon class="cls-1" points="16.15 5.51 18.03 7.39 17.48 7.94 15.95 6.41 16.15 5.51"/><polygon class="cls-1" points="16.55 3.69 19.14 6.27 18.59 6.83 16.35 4.59 16.55 3.69"/><polygon class="cls-1" points="18.01 2.94 20.24 5.17 19.69 5.72 17.11 3.14 18.01 2.94"/><polygon class="cls-1" points="19.82 2.55 21.34 4.07 20.79 4.62 18.92 2.75 19.82 2.55"/><polygon class="cls-1" points="31.23 20.59 29.35 18.71 28.8 19.26 30.32 20.79 31.23 20.59"/><polygon class="cls-1" points="33.05 20.19 30.47 17.6 29.91 18.15 32.15 20.39 33.05 20.19"/><polygon class="cls-1" points="33.79 18.73 31.57 16.5 31.02 17.05 33.6 19.63 33.79 18.73"/><polygon class="cls-1" points="34.19 16.92 32.67 15.4 32.12 15.95 33.99 17.82 34.19 16.92"/><polygon class="cls-1" points="31.23 2.75 29.35 4.62 28.8 4.07 30.32 2.55 31.23 2.75"/><polygon class="cls-1" points="33.05 3.15 30.47 5.74 29.91 5.18 32.15 2.95 33.05 3.15"/><polygon class="cls-1" points="33.79 4.61 31.57 6.83 31.02 6.29 33.6 3.7 33.79 4.61"/><polygon class="cls-1" points="34.19 6.41 32.67 7.94 32.12 7.39 33.99 5.51 34.19 6.41"/><polygon class="cls-1" points="16.15 17.82 18.03 15.95 17.48 15.4 15.95 16.92 16.15 17.82"/><polygon class="cls-1" points="16.55 19.65 19.14 17.06 18.59 16.51 16.35 18.74 16.55 19.65"/><polygon class="cls-1" points="18.01 20.39 20.24 18.16 19.69 17.61 17.11 20.2 18.01 20.39"/><polygon class="cls-1" points="19.82 20.79 21.34 19.26 20.79 18.71 18.92 20.59 19.82 20.79"/></g></g><path id="m" class="cls-1" d="M52.52,19.68h-.8v-10a5.27,5.27,0,0,0-.54-2.33,6.09,6.09,0,0,0-1.45-1.92,7,7,0,0,0-2.17-1.28,7.29,7.29,0,0,0-2.62-.48,7.89,7.89,0,0,0-3.41.71,5.73,5.73,0,0,0-2.45,2.09,5.61,5.61,0,0,0-.93,3.21v10h-.8v-10A6.62,6.62,0,0,1,38,6.84a6.3,6.3,0,0,1,1.63-2.16A7.48,7.48,0,0,1,42,3.34a8.89,8.89,0,0,1,2.94-.48,8.21,8.21,0,0,1,4.78,1.39A8.21,8.21,0,0,1,54.5,2.86a9,9,0,0,1,3,.48,7.54,7.54,0,0,1,2.41,1.34,6.17,6.17,0,0,1,1.63,2.16,6.62,6.62,0,0,1,.6,2.83v10h-.8v-10a5.67,5.67,0,0,0-.92-3.2,5.91,5.91,0,0,0-2.46-2.1,8,8,0,0,0-3.41-.71,7.52,7.52,0,0,0-4.11,1.11,6.34,6.34,0,0,1,.57.58,6.89,6.89,0,0,1,3.54-.89,7.38,7.38,0,0,1,2.33.36,5.83,5.83,0,0,1,1.9,1A4.75,4.75,0,0,1,60,7.46a5.15,5.15,0,0,1,.47,2.21v10h-.8v-10a4.37,4.37,0,0,0-.41-1.9,3.81,3.81,0,0,0-1.12-1.39,5.17,5.17,0,0,0-1.64-.83,7,7,0,0,0-2-.29,6.14,6.14,0,0,0-3,.72c.13.21.26.44.4.69a5.41,5.41,0,0,1,2.65-.61,5.89,5.89,0,0,1,2.21.39,3.46,3.46,0,0,1,1.58,1.21,3.37,3.37,0,0,1,.6,2v10h-.8v-10a2.4,2.4,0,0,0-1-2.11,4.38,4.38,0,0,0-2.59-.7,4.5,4.5,0,0,0-2.34.54,7.49,7.49,0,0,1,.22.8,3.45,3.45,0,0,1,2.12-.54c1.86,0,2.78.67,2.78,2v10h-.8v-10a1.37,1.37,0,0,0-.1-.56,1,1,0,0,0-.27-.35,1.49,1.49,0,0,0-.44-.19,2.67,2.67,0,0,0-.53-.09l-.64,0-.63,0a2.56,2.56,0,0,0-.53.09,1.39,1.39,0,0,0-.44.19,1,1,0,0,0-.27.35,1.36,1.36,0,0,0-.11.56Zm-1.6-10v10h-.8v-10a4.37,4.37,0,0,0-.4-1.9A4,4,0,0,0,48.6,6.38,5.33,5.33,0,0,0,47,5.55a6.83,6.83,0,0,0-2-.29,7,7,0,0,0-2,.29,5.17,5.17,0,0,0-1.64.83,3.81,3.81,0,0,0-1.12,1.39,4.37,4.37,0,0,0-.41,1.9v10H39v-10a5,5,0,0,1,.48-2.21,4.61,4.61,0,0,1,1.28-1.64,5.94,5.94,0,0,1,1.9-1,7.69,7.69,0,0,1,4.65,0,5.83,5.83,0,0,1,1.9,1,4.64,4.64,0,0,1,1.29,1.64A5.15,5.15,0,0,1,50.92,9.67Zm-1.6,0v10h-.8v-10a2.38,2.38,0,0,0-1-2.11,4.35,4.35,0,0,0-2.58-.7,4.4,4.4,0,0,0-2.59.7,2.39,2.39,0,0,0-1,2.11v10h-.8v-10a3.37,3.37,0,0,1,.6-2,3.43,3.43,0,0,1,1.57-1.21,6.46,6.46,0,0,1,4.42,0,3.48,3.48,0,0,1,1.57,1.21A3.37,3.37,0,0,1,49.32,9.67Zm-1.6,0v10h-.8v-10a1.36,1.36,0,0,0-.11-.56,1,1,0,0,0-.27-.35,1.39,1.39,0,0,0-.44-.19,2.56,2.56,0,0,0-.53-.09l-.63,0-.64,0a2.47,2.47,0,0,0-.52.09,1.29,1.29,0,0,0-.44.19.89.89,0,0,0-.28.35,1.37,1.37,0,0,0-.1.56v10h-.8v-10c0-1.34.92-2,2.78-2S47.72,8.33,47.72,9.67Z"/><path id="m-2" data-name="m" class="cls-1" d="M79.13,19.68h-.8v-10a5.27,5.27,0,0,0-.54-2.33,6.09,6.09,0,0,0-1.45-1.92,7,7,0,0,0-2.17-1.28,7.3,7.3,0,0,0-2.63-.48,7.84,7.84,0,0,0-3.4.71,5.81,5.81,0,0,0-2.46,2.09,5.68,5.68,0,0,0-.92,3.21v10H64v-10a6.62,6.62,0,0,1,.6-2.83,6.17,6.17,0,0,1,1.63-2.16A7.43,7.43,0,0,1,68.6,3.34a9,9,0,0,1,2.94-.48,8.24,8.24,0,0,1,4.79,1.39,8.21,8.21,0,0,1,4.78-1.39,8.89,8.89,0,0,1,2.94.48,7.48,7.48,0,0,1,2.42,1.34A6.3,6.3,0,0,1,88.1,6.84a6.62,6.62,0,0,1,.6,2.83v10h-.8v-10A5.6,5.6,0,0,0,87,6.47a5.82,5.82,0,0,0-2.45-2.1,8.07,8.07,0,0,0-3.41-.71A7.58,7.58,0,0,0,77,4.77a5.26,5.26,0,0,1,.57.58,7,7,0,0,1,3.55-.89,7.43,7.43,0,0,1,2.33.36,5.94,5.94,0,0,1,1.9,1,4.61,4.61,0,0,1,1.28,1.64,5,5,0,0,1,.47,2.21v10h-.8v-10a4.37,4.37,0,0,0-.4-1.9,3.91,3.91,0,0,0-1.12-1.39,5.12,5.12,0,0,0-1.65-.83,6.83,6.83,0,0,0-2-.29A6.18,6.18,0,0,0,78.05,6a7.38,7.38,0,0,1,.4.69,5.45,5.45,0,0,1,2.66-.61,5.92,5.92,0,0,1,2.21.39,3.43,3.43,0,0,1,1.57,1.21,3.37,3.37,0,0,1,.6,2v10h-.8v-10a2.39,2.39,0,0,0-1-2.11,4.4,4.4,0,0,0-2.59-.7,4.54,4.54,0,0,0-2.35.54,7.66,7.66,0,0,1,.23.8,3.43,3.43,0,0,1,2.12-.54c1.85,0,2.78.67,2.78,2v10h-.8v-10A1.36,1.36,0,0,0,83,9.11a1,1,0,0,0-.27-.35,1.39,1.39,0,0,0-.44-.19,2.45,2.45,0,0,0-.53-.09l-.63,0-.63,0a2.56,2.56,0,0,0-.53.09,1.39,1.39,0,0,0-.44.19,1,1,0,0,0-.27.35,1.36,1.36,0,0,0-.11.56Zm-1.6-10v10h-.8v-10a4.37,4.37,0,0,0-.41-1.9A3.81,3.81,0,0,0,75.2,6.38a5.17,5.17,0,0,0-1.64-.83,7,7,0,0,0-2-.29,6.83,6.83,0,0,0-2,.29,5.33,5.33,0,0,0-1.65.83,3.89,3.89,0,0,0-1.11,1.39,4.37,4.37,0,0,0-.41,1.9v10h-.8v-10A5.15,5.15,0,0,1,66,7.46a4.75,4.75,0,0,1,1.29-1.64,5.83,5.83,0,0,1,1.9-1,7.69,7.69,0,0,1,4.65,0,5.83,5.83,0,0,1,1.9,1,4.75,4.75,0,0,1,1.29,1.64A5.15,5.15,0,0,1,77.53,9.67Zm-1.6,0v10h-.8v-10a2.4,2.4,0,0,0-1-2.11,5.12,5.12,0,0,0-5.17,0,2.38,2.38,0,0,0-1,2.11v10h-.8v-10a3.37,3.37,0,0,1,.6-2,3.46,3.46,0,0,1,1.58-1.21,6.43,6.43,0,0,1,4.41,0,3.46,3.46,0,0,1,1.58,1.21A3.37,3.37,0,0,1,75.93,9.67Zm-1.6,0v10h-.81v-10a1.37,1.37,0,0,0-.1-.56,1,1,0,0,0-.27-.35,1.49,1.49,0,0,0-.44-.19,2.67,2.67,0,0,0-.53-.09l-.64,0-.63,0a2.56,2.56,0,0,0-.53.09,1.39,1.39,0,0,0-.44.19,1,1,0,0,0-.27.35,1.36,1.36,0,0,0-.11.56v10h-.8v-10c0-1.34.93-2,2.78-2S74.33,8.33,74.33,9.67Z"/><path id="a" class="cls-1" d="M107.67,11.78v7.9h-.8v-7.9a7.87,7.87,0,0,0-1.05-4.06A7.28,7.28,0,0,0,102.93,5a8.47,8.47,0,0,0-4.07-1,7.77,7.77,0,0,0-4,1,7.58,7.58,0,0,0-3.83,6.64,7.51,7.51,0,0,0,.44,2.6,7,7,0,0,0,1.2,2.14A8.54,8.54,0,0,0,94.47,18,8.07,8.07,0,0,0,99,19.35a6.16,6.16,0,0,0,2.49-.5v.83a7.52,7.52,0,0,1-2.53.43,9.22,9.22,0,0,1-2.62-.38,8.13,8.13,0,0,1-2.36-1.12A9,9,0,0,1,92,16.87a7.63,7.63,0,0,1-1.29-2.35,8.69,8.69,0,0,1-.46-2.85,8.36,8.36,0,0,1,.65-3.29,8.19,8.19,0,0,1,1.78-2.7,8.32,8.32,0,0,1,2.73-1.82,8.91,8.91,0,0,1,3.42-.67,9.71,9.71,0,0,1,3.47.62,8.69,8.69,0,0,1,2.81,1.73A8,8,0,0,1,107,8.26,8.87,8.87,0,0,1,107.67,11.78Zm-1.6,0v7.9h-.8v-7.9a6.24,6.24,0,0,0-.84-3.25,5.68,5.68,0,0,0-2.3-2.18,7,7,0,0,0-3.27-.76,6.21,6.21,0,0,0-3.14.82,6,6,0,0,0-3,5.26,6.32,6.32,0,0,0,.52,2.6,5.46,5.46,0,0,0,1.41,1.93A6.76,6.76,0,0,0,99,17.79a6.12,6.12,0,0,0,2.46-.53v.81a7,7,0,0,1-2.49.48,7.4,7.4,0,0,1-3.53-.86,6.76,6.76,0,0,1-3.55-6,6.94,6.94,0,0,1,2-4.86A6.83,6.83,0,0,1,96.1,5.34a7.15,7.15,0,0,1,2.76-.55,7.72,7.72,0,0,1,3.68.87,6.54,6.54,0,0,1,2.59,2.47A7,7,0,0,1,106.07,11.78Zm-1.6,0v7.9h-.8v-7.9a4.3,4.3,0,0,0-1.35-3.34A4.89,4.89,0,0,0,98.86,7.2a4.46,4.46,0,0,0-3.27,1.3,4.31,4.31,0,0,0-1.31,3.17,4.9,4.9,0,0,0,.4,2,3.72,3.72,0,0,0,1.07,1.45,5,5,0,0,0,1.52.83,5.47,5.47,0,0,0,1.77.28,5.08,5.08,0,0,0,2.41-.59v.85a6.32,6.32,0,0,1-4.51.16,5.69,5.69,0,0,1-1.77-1A4.54,4.54,0,0,1,93.94,14a5.64,5.64,0,0,1-.46-2.33A5.07,5.07,0,0,1,95,7.94,5.22,5.22,0,0,1,98.86,6.4a6.1,6.1,0,0,1,2.87.65,4.77,4.77,0,0,1,2,1.88A5.45,5.45,0,0,1,104.47,11.78Zm-2.4,0a2.8,2.8,0,0,0-.88-2.2,3.38,3.38,0,0,0-2.33-.78,3,3,0,0,0-2.1.84,2.71,2.71,0,0,0-.88,2,3.67,3.67,0,0,0,.18,1.19,2.43,2.43,0,0,0,1.21,1.46,3.53,3.53,0,0,0,.89.33,4.34,4.34,0,0,0,1,.1,4.44,4.44,0,0,0,2.31-.62v.8a4.85,4.85,0,0,1-2.32.56,5.3,5.3,0,0,1-1.51-.21,4.2,4.2,0,0,1-1.28-.66,3,3,0,0,1-.92-1.2,4.2,4.2,0,0,1-.34-1.75,3.54,3.54,0,0,1,1.08-2.61A3.69,3.69,0,0,1,98.86,8a4.14,4.14,0,0,1,2.9,1,3.56,3.56,0,0,1,1.11,2.78v7.9h-.8Z"/></g></g></svg>