<svg version="1.2" xmlns="http://www.w3.org/2000/svg" viewBox="0 0 1643 1361" width="1643" height="1361">
	<title>New Project</title>
	<style>
		.s0 { opacity: 1;fill: #000000 } 
	</style>
	<path id="Path 0" fill-rule="evenodd" class="s0" d="m802.8 7.1c0.6 0 1.4 0.4 1.7 0.9 0.3 0.6 7.8 1 19.3 1 10.3 0 20.5 0.5 22.7 1.1 2.2 0.6 8.2 1.4 13.3 1.8 5.4 0.3 9.6 1.1 10 1.8 0.4 0.6 4.3 1.6 8.7 2.2 4.5 0.6 8.7 1.7 9.5 2.6 0.8 0.8 2.3 1.5 3.3 1.5 0.9 0 6.1 1.4 11.5 3.2 5.3 1.7 12 4.6 14.7 6.3 2.8 1.7 6.3 4 8 5 1.7 1 8 6.8 14.1 12.9 6.1 6.1 12.4 12.3 14 13.8 1.6 1.5 6.1 6.3 9.9 10.6 4.3 4.8 9.4 9.2 13.3 11.5 3.4 2 6.2 4.1 6.2 4.7 0 0.6 0.6 1 1.3 1 0.6-0.1 1.9 0.7 2.7 1.6 0.8 0.9 3.3 2.9 5.5 4.3 2.2 1.4 4.5 2.8 5.2 3.1 0.6 0.3 6 4.8 12 10 6 5.2 12.4 11.4 14.3 13.7 1.9 2.3 4 4.2 4.5 4.2 0.5 0.1 2.1 1.5 3.5 3.2 1.4 1.7 4.4 5.4 6.8 8.3 2.4 2.8 5 5.5 5.8 5.9 0.8 0.4 1.4 1.2 1.4 1.7 0 0.6 1.2 2.7 2.8 4.7 1.5 2.1 3.3 4.4 4 5 0.6 0.7 1.5 2.3 1.8 3.5 0.4 1.3 1.3 2.7 2 3.3 0.7 0.6 1.4 1.9 1.6 3 0.1 1.1 1.3 2.4 2.4 3 1.2 0.5 3 1.8 4 2.7 1.1 1 2.4 1.8 2.9 1.8 0.5 0 2.2 2 3.8 4.5 1.5 2.5 2.7 4.9 2.7 5.5 0 0.6 1.2 3.4 2.7 6.2 1.5 2.9 3.3 5.9 4 6.5 0.7 0.7 1.5 2.2 1.8 3.3 0.3 1.1 0.8 2 1.3 2 0.4-0.1 1.6 2.1 2.6 4.7 1.1 2.6 2.2 5 2.6 5.3 0.4 0.3 2.5 3.9 4.7 8 2.3 4.2 4.2 9.5 4.5 12 0.3 2.5 1.2 6.1 2.1 8 1.1 2.3 1.8 7.4 2.1 15 0.3 6.3 0.9 16.6 1.3 22.9 0.5 7.8 1.2 11.5 2.1 11.8 0.9 0.2 1.2 5.1 1.2 20 0 13.7 0.5 22 1.5 26.8 0.8 3.9 1.5 9.9 1.5 13.5 0 4.6-1.2 10.7-4.1 21-2.3 8-6.1 19.2-8.6 25-2.4 5.8-5.1 12.1-6 14-0.8 1.9-3.4 7.3-5.7 12-2.3 4.7-6.1 12.2-8.4 16.7-3.1 6.2-4.7 8.3-6.2 8.3-1.1 0-2.8-1.2-3.7-2.8-1-1.5-2.8-4.7-4-7.2-1.3-2.5-2.3-5.7-2.3-7.3 0-1.6-1.2-4-2.9-6-2.5-2.7-3.3-3-4.8-2.1-1.6 1-1.8 2.9-1.8 20.5 0 19.4 0 19.4-2.2 19.6-1.5 0.2-2.7-0.5-3.5-2-0.6-1.2-1.3-6-1.4-10.7-0.2-4.7-1-10.2-1.9-12.3-0.9-2.2-3.4-5.1-6.2-7.2-3.9-2.9-5.7-3.6-9.3-3.5-3.8 0-5.1 0.6-8.5 3.7-2.3 2.1-5.3 5.7-6.8 8-1.5 2.4-3 6.2-3.4 8.4-0.5 2.3-1.5 4.6-2.3 5.2-0.8 0.5-2.3 0.7-3.2 0.4-1-0.4-2.1-1.5-2.4-2.5-0.3-0.9-1-2.6-1.6-3.7-0.6-1.3-0.6-6.6 0.2-16 0.6-7.7 1.8-16.5 2.6-19.5 0.9-3 3.1-8.6 4.9-12.5 1.8-3.9 3.5-8.1 3.7-9.5 0.3-2.2-0.1-2.5-3.2-2.8-3.4-0.3-3.5-0.2-5.2 5.2-1 3.1-1.8 6.6-1.8 7.8 0 1.3-1.1 4.5-2.4 7.3-1.4 2.7-2.9 8.6-3.5 13-0.6 4.4-1.6 12.5-2.1 18-0.7 6.2-0.7 10.4-0.1 11 0.5 0.6 0.9 5 0.8 10 0 5 0.8 14.6 1.7 21.5 1.7 11.1 1.7 14.3 0.7 28.5-0.7 8.8-1.6 21.6-2.2 28.5-0.5 6.9-1 15.9-1 20 0.1 4.1-0.5 8.6-1.2 9.9-0.6 1.4-1.8 2.6-2.4 2.8-0.7 0.2-1.9-0.3-2.5-1-0.9-0.9-1.5-6.8-2-17.3-0.4-9.2-0.3-19.9 0.3-25.4 0.7-6.5 0.7-17-0.1-33.5-0.6-13.2-1.3-25.6-1.5-27.5-0.3-1.9-1-8.2-1.6-14-0.6-5.8-1.7-16.4-2.5-23.5-0.9-7.1-2-18.3-2.5-24.8-0.6-8.1-1.8-14.6-3.8-21-1.6-5-3.7-11.7-4.5-14.7-1.2-3.9-1.4-6.9-0.9-10.4 0.6-3.9 1.6-5.6 4.2-8 1.9-1.7 5.1-4.9 7.2-7.1 3.1-3.3 3.6-4.3 2.7-6-0.8-1.5-0.3-4.2 2-11.5 1.7-5.2 3.9-14.3 4.9-20.2 1.5-9.1 2.1-10.8 3.8-11.3 1.1-0.2 3.2-0.5 4.8-0.5 1.5 0 2.9-0.7 3.2-1.5 0.3-0.8 0.5-4.3 0.5-7.8 0.1-4.6-0.4-6.7-1.7-8.2-1-1.1-4.3-4-7.3-6.4-3-2.4-6.5-5.6-7.7-7-1.3-1.4-2.3-3.4-2.3-4.4 0-0.9-1.1-3.7-2.5-6.2-1.8-3.3-2.5-6-2.5-10 0-3.6-0.5-5.8-1.4-6.3-0.7-0.4-1.9-2.5-2.6-4.7-0.7-2.2-2.6-5.8-4.2-8-1.6-2.2-3.2-5.5-3.6-7.4-0.4-1.8-1-3.5-1.4-3.7-0.5-0.2-0.8-3.9-0.8-8.2-0.1-5.2-0.5-8.3-1.5-9.7-0.9-1.1-1.5-2.9-1.5-4 0.1-1.1-0.6-2.7-1.5-3.5-0.9-0.8-2.2-3.3-2.8-5.5-0.6-2.2-2.4-6-3.9-8.5-1.5-2.5-2.8-5.2-2.8-6 0-0.8-1-2.8-2.2-4.4-1.3-1.7-3.9-4.6-5.9-6.5-2-2-4.4-4.2-5.3-4.9-0.9-0.6-3.1-1.7-4.8-2.3-1.8-0.6-5.4-3.5-12.8-11.4l-18.2 0.8c-17.4 0.7-18.6 0.6-24.8-1.6-3.6-1.2-8.9-3.7-11.7-5.5-3.9-2.3-5.3-3.8-5.3-5.5 0.1-1.2-0.5-2.8-1.2-3.4-0.9-0.9-3.9-1.1-10.8-0.6-5.8 0.4-12 1.5-16 2.9-5.5 1.9-7.1 2.1-10.5 1.2-2.2-0.6-7-0.9-10.6-0.7-4.9 0.3-7.2 0.9-8.8 2.4-1.2 1.1-2.6 3.5-3.1 5.2-0.6 1.8-1.1 3.3-1.2 3.3-0.2 0-5 1.3-10.8 3-5.9 1.7-12.9 3-16 3-3 0-10.6 0.7-16.7 1.5-6.2 0.8-12.8 2.2-14.5 3.2-1.8 0.9-5.1 2.9-7.3 4.5-2.2 1.6-4.5 2.9-5 2.9-0.5 0-2.3 1.3-4 3-1.6 1.7-5.7 4.9-9 7.2-3.3 2.2-8.2 5.2-11 6.7-2.7 1.5-7.1 3.2-9.7 3.9-2.7 0.6-9.4 3.1-15 5.6-9.1 4-11.1 4.5-17.5 4.5-4.5 0-8.5 0.6-10.3 1.5-2.2 1.1-3.9 3.4-6.1 8.2-1.7 3.8-3.3 8.8-3.5 11.3-0.2 2.5-0.8 9.8-2.4 28l2.9 4.2c1.5 2.4 3.6 5 4.5 5.8 0.9 0.8 1.7 2.2 1.6 3 0 0.8 2.1 2.7 9.5 6.9l-7.2 0.1c-5.4 0-8.2 0.5-10.8 2q-3.5 2-4.4 5.2c-0.4 1.8-0.6 4.9-0.2 6.8 0.3 1.9 1.1 4.4 1.7 5.5 1.2 2 1.3 2 9.5-0.8 4.6-1.6 9.3-2.6 10.4-2.3 1.1 0.3 3.4 1.8 8 6.4l-2.5 1.3c-1.4 0.7-4.3 2.9-6.5 5-2.2 2-6 4.5-8.5 5.4-2.5 1-5.3 2.7-6.3 3.9-1 1.1-1.8 3.2-1.8 4.6 0 1.4 2 5.4 4.3 8.9 2.4 3.6 5.4 8.1 6.7 10 1.3 2 3.5 5 4.9 6.6 1.4 1.6 4.3 4.2 6.4 5.7 2.1 1.6 8.4 5 14.1 7.7 8.9 4.4 11 5.9 16.5 12 4 4.6 6.5 8.4 7 10.8 0.5 2.1 1.5 6 2.2 8.8 0.7 2.7 1.6 11.3 2 19 0.5 9.1 1.3 15.4 2.4 18 1.3 3.1 1.6 7.3 1.6 19 0 9.1-0.6 18.1-1.5 23-0.9 4.4-2.8 10.4-4.3 13.4-1.5 3-5.2 8.1-8.4 11.5-3.1 3.4-6.1 7.2-6.6 8.6-0.6 1.4-0.9 5-0.8 8 0.2 4.2 1 6.9 3.8 11.5 1.9 3.3 4 7.6 4.6 9.5 0.6 1.9 3.2 6.3 5.7 9.7 2.5 3.5 6.5 7.8 13.4 12.8l-2 2.5c-1.1 1.4-2.2 4.1-2.6 6-0.3 2 0 5.7 0.8 8.5 0.7 2.7 2.4 6.2 3.6 7.7 1.8 2.2 3.2 2.8 6.3 2.8 3 0 4.1 0.5 4.5 1.7 0.3 1 1.2 5.8 1.9 10.8 0.8 5 1.8 9.9 2.1 11 0.6 1.7-0.5 2.5-7.7 5.8-4.6 2.2-9.8 5.3-11.6 7-1.8 1.8-3.7 4.8-4.3 6.7-0.6 1.9-0.8 5.2 0.1 11l8.3 0.6c4.5 0.4 9.6 1.3 11.2 2.2 1.7 0.8 4.7 2.8 6.8 4.3 2 1.6 3.7 3.6 3.7 4.4 0 0.8 1.2 2.4 2.8 3.5 1.9 1.5 4.2 2.1 8 2 5.2 0 5.2 0 7.2-4.5 1.1-2.5 2.5-4.5 3-4.5 0.5 0 1 0.5 1 1 0 0.5 0.8 1 1.8 1 0.9 0 5.3 3.2 9.7 7.1 4.4 3.9 8.1 7.5 8.3 8 0.1 0.5 0.7 0.9 1.2 0.9 0.5 0 2.5 1.3 4.3 3 1.7 1.6 4.3 3.2 5.7 3.4 1.4 0.3 6.1 0.8 10.5 1.2 5.2 0.5 9.3 1.4 11.7 2.8 2 1.2 5.8 4.1 8.4 6.6 3.1 2.9 5.3 6 6.1 8.7 1.2 4 1.2 4.4-0.9 6.3-1.3 1.1-3.6 2-5.3 2-1.6 0-6.6-0.9-11-2.1-4.4-1.1-8.8-2.8-9.8-3.7-1-0.9-1.8-3.1-1.8-4.7 0.1-1.8-0.9-3.9-2.2-5.3-1.2-1.2-2.8-2.2-3.4-2.2-0.7 0-2.3-0.7-3.5-1.5-1.3-0.8-4-2-6-2.5-2.1-0.6-5.5-1.5-7.5-2.1-2.1-0.5-6.3-1.6-9.3-2.3-3-0.7-6.6-1.8-8-2.5-1.6-0.9-4.6-1.1-8.5-0.8-3.3 0.3-8.7 1.1-12 1.9-3.3 0.7-7 2-8.2 2.8-1.6 1.1-2.3 3.1-3.8 14h2.8c2 0 2.7 0.5 2.7 2 0 1.4 1.3 2.6 4.3 4 2.3 1.1 6 3.1 8.2 4.4 3.4 2.1 4.1 3.1 4.8 7 0.5 3.3 0.3 5.4-0.8 7.6-0.8 1.6-2.7 3.9-4.2 5-1.6 1.2-3.1 2.1-3.5 2-0.5 0-4.1 2.3-8 5.2-4 2.8-7.7 5.6-8.3 6.3-0.5 0.6-1.8 1.4-2.7 1.8-1 0.4-4.3 4.1-7.3 8.2-3 4.1-5.9 8.6-6.5 10-0.5 1.4-1 5.6-1 9.5 0 5.6 0.4 7.4 1.9 8.7 1 1 4.3 5.6 7.4 10.3 3 4.7 8.1 11 11.3 14.1 3.3 3.1 8.8 7.6 12.2 10 3.5 2.4 8.3 5.7 10.5 7.2 2.3 1.5 7.1 3.7 10.7 4.8 3.6 1 7.5 1.9 8.8 1.9 1.2 0 3 0.4 4 0.9 0.9 0.5 7.3 1.7 14.2 2.6 8.2 1.1 16.6 1.6 24.5 1.3 11.6-0.3 12.3-0.5 20.5-4.4 4.7-2.2 10.3-5.6 12.5-7.5 2.2-2 6.9-5.5 10.5-7.9 3.6-2.4 8.6-5.2 11.3-6.2 2.6-1 7.1-3 10-4.4 2.8-1.4 7-3.2 9.2-3.9 2.2-0.8 4.7-1.5 5.5-1.5 0.8 0 4.4-1.9 8-4.3 3.6-2.4 9.4-6 13-8.2 3.6-2.1 6.8-4.4 7.2-4.9 0.4-0.6 0.9-0.8 1.2-0.4 0.3 0.5-0.9 1.8-2.6 3-1.8 1.3-5.2 4.1-7.5 6.3-2.4 2.2-4.3 4.6-4.3 5.2 0 0.7-0.7 1.5-1.5 1.8-0.8 0.3-1.5 1.4-1.5 2.5 0 1.1-0.5 3-1.2 4.2-0.6 1.3-2 3.2-3 4.3-1 1.1-1.8 2.6-1.8 3.2 0 0.7-0.6 1.9-1.3 2.5-0.8 0.7-2.1 2.7-2.9 4.3-0.9 1.6-2.7 4.1-4 5.5-1.3 1.4-2.9 3.6-3.6 5-0.7 1.4-2.5 3.8-4 5.5-1.5 1.6-3.2 3.8-3.9 5-0.6 1.1-2.1 3.8-3.1 6-1.1 2.2-4.8 6.5-8.3 9.5-3.4 3-6.9 6.2-7.8 7.1-0.9 0.9-2.9 3.1-4.6 5.1-1.6 1.9-3.7 4.8-4.5 6.4-0.8 1.6-4.1 6.5-7.4 10.9-5.6 7.7-5.8 8.2-5.4 13 0.4 4.2 0 5.5-1.9 7.7-1.3 1.6-3 2.8-3.8 2.8-0.8 0-1.8 0.6-2.2 1.3-0.5 0.7-2.7 2.9-5 4.8-3.2 2.5-4.5 4.5-5.3 7.6-0.5 2.4-1 5-1 5.8 0 0.8 0.5 1.5 1 1.5 0.6 0 2.7 1.8 4.8 4 2 2.2 4.3 4 5 4 0.6 0 6 4.9 12 11 5.9 6 11.3 11 12 11 0.6 0 3.5 1.7 6.4 3.7 2.9 2.1 6.6 5.2 8.3 7 1.6 1.8 3.6 3.9 4.3 4.7 0.7 0.9 2.8 1.6 5 1.6 3.2 0.1 4.1-0.5 6.7-4 1.7-2.2 3.2-4 3.5-4 0.3 0 1.3-1.9 2.2-4.2 1-2.4 3.1-5.7 4.8-7.3 1.7-1.6 3-3.7 3-4.5 0.1-0.8 1.2-3 2.5-4.8 1.4-1.7 2.5-3.4 2.5-3.7 0-0.3 0.7-1.3 1.6-2.3 0.8-0.9 2.6-3.1 4-4.7 1.3-1.6 2.4-3.6 2.4-4.3 0-0.6 0.7-1.2 1.5-1.2 0.8 0 1.5-0.8 1.5-1.8 0-0.9 1.1-3.1 2.5-4.7 1.4-1.6 2.5-3.2 2.5-3.5 0-0.3 1.8-3 4.1-6 2.2-3 4.5-6.4 5-7.5 0.5-1.1 1.5-2.9 2.1-4 0.7-1.1 2.1-3.2 3.1-4.7 0.9-1.6 1.7-3.8 1.7-5.1 0-1.2 0.9-3.7 2-5.5 1.1-1.7 2-3.8 2-4.5-0.1-0.6 0.6-1.9 1.5-2.7 0.9-0.8 1.6-2.7 1.5-4.3 0-1.5 0.8-3.5 1.8-4.5q1.8-1.7 2.6-8.7c0.4-3.9 1.7-8.9 2.7-11.3 1-2.3 1.9-5.2 1.9-6.5 0-1.2 0.5-3.8 1.1-5.7 0.7-1.9 1.8-4.2 2.5-5 0.7-0.8 1.4-3.1 1.4-5 0-1.9 0.6-4.4 1.5-5.5 0.8-1.1 1.4-2.7 1.5-3.5 0-0.8 0.9-3.4 2-5.8 1.1-2.3 2-5.4 2-7-0.1-1.5 0.8-3.9 2-5.5 1.1-1.5 2-3.7 2-5 0-1.2 1.1-3.9 2.5-6 1.4-2 2.5-4.6 2.5-5.7 0-1.1 0.9-4.8 2.1-8.3 1.1-3.4 2.5-6.4 3-6.7 0.5-0.3 1.6-4.5 2.5-9.5 0.9-5 2.2-9.5 3-10 0.8-0.6 1.3-3.2 1.4-6.8 0-3.1 0.7-7.4 1.5-9.5 1.2-2.9 1.5-8.1 1.5-24.7-0.1-16.9-0.4-21.4-1.5-23-1-1.2-1.5-4.3-1.5-8 0-3.7 0.5-6.8 1.5-8 0.8-1.1 1.4-3.6 1.4-5.5 0-1.9 0.7-4.2 1.6-5 1-0.9 1.6-3.1 1.5-5.8 0-2.3 0.7-5.9 1.7-8 0.9-2 3-6.4 7.8-15.9l8.2 0.1c4.5 0.1 8.5 0.4 9 0.9 0.4 0.4 0 0.7-0.9 0.7-1 0-2.5 1.4-3.3 3-0.8 1.6-1.5 4.1-1.5 5.5 0 1.4 1 3.6 2.3 5 1.5 1.8 3.2 2.5 5.5 2.5 1.7 0 3.4 0.6 3.6 1.2 0.2 0.7 2.5 1.9 5.2 2.6 2.7 0.7 6.7 1.8 8.9 2.4 2.2 0.5 5.7 1.9 7.8 2.9 3.2 1.6 6 1.9 20.2 1.9 10.9 0 16.6-0.4 16.8-1.1 0.1-0.6 2.7-1.7 5.7-2.6 3.9-1 12.5-1.6 29.5-2 22.5-0.5 24.3-0.7 29.3-2.9 2.8-1.3 6.5-2.4 8.2-2.4 1.7 0 4.2-0.8 5.8-1.7 2.3-1.5 5.3-1.7 21.7-1.5 14.3 0.1 19.9 0.5 22.8 1.7 2.1 0.9 6.8 1.5 11 1.5 4.5 0 8 0.5 9.2 1.4 1.1 0.7 3.6 1.6 5.5 2 1.9 0.4 5.8 1.1 8.5 1.5 2.8 0.5 7.4 1.8 10.3 2.8 2.9 1 5.2 2.1 5.2 2.5 0 0.5 1.5 0.8 3.3 0.8 1.7 0 5 1.1 7.2 2.5 2.2 1.3 5 2.5 6.3 2.5 1.2 0 4.5 1.1 7.2 2.5 2.8 1.4 6 2.5 7.3 2.5 1.2 0 3.3 0.6 4.7 1.4 1.4 0.7 5.2 1.9 8.5 2.6 3.3 0.6 6.5 1.5 7 1.9 0.6 0.4 4.2 1.3 8 2 3.8 0.7 8.8 1.9 11 2.6 2.2 0.8 8.6 1.4 14.3 1.4 5.6 0.1 10.4 0.4 10.6 0.8 0.2 0.5 3.2 1.4 6.7 2.2 3.5 0.8 7.7 2.2 9.4 3.2 1.7 1 4.1 1.8 5.5 1.9 1.4 0 3.4 0.6 4.5 1.5 1.1 0.8 2.8 1.5 3.8 1.5 0.9 0 4.3 1.4 7.5 3.2 3.1 1.7 5.8 3.5 6 4 0.1 0.4 0.8 0.8 1.5 0.8 0.6 0 3.2 1.4 5.7 3.2 2.5 1.7 6.4 5 8.8 7.2 2.3 2.3 4.2 4.7 4.2 5.3 0 0.7 0.5 1.3 1 1.3 0.5 0 1.8 1.5 2.9 3.2 1.5 2.7 2 6.3 2.5 20.3 0.3 9.4 0.9 31.6 1.1 49.5 0.4 24 0.9 33.7 1.9 37 0.8 2.5 1.7 6.5 2 9 0.3 2.5 1.5 6.4 2.6 8.7 1.1 2.4 2 5.2 2 6.3 0 1.1 0.5 2 1 2 0.5 0 1.3 1.7 1.7 3.7 0.3 2.1 1.6 5.2 2.9 6.8 1.3 1.6 2.4 3.6 2.4 4.2 0 0.7 0.9 3 2 5 1 2.1 3.2 7.8 4.7 12.6 1.5 4.8 3.4 9 4.1 9.2 0.6 0.3 1.2 2.1 1.2 4 0 1.9 0.5 4.7 1.1 6.2 0.7 1.6 1.8 4.2 2.6 5.8 0.7 1.6 2.3 4.6 3.6 6.6 1.2 2 3.6 6.1 5.4 9 1.8 3 3.3 6.2 3.3 7.1 0 1 0.3 1.8 0.8 1.8 0.4 0 1.7 1.7 2.8 3.7 1.2 2.1 3.3 4.8 4.8 6 1.4 1.3 2.6 2.6 2.6 3 0 0.5 2.1 2.4 4.6 4.3 2.5 1.9 4.5 3.8 4.4 4.2 0 0.5 1 2.3 2.3 4.1 1.2 1.8 3 5.9 4.1 9.2 1 3.3 2.5 7.4 3.4 9 0.8 1.6 1.9 5.7 2.3 9 0.5 3.3 1.9 8.5 3.1 11.5 1.2 3 3.1 6.6 4.1 8 1 1.4 1.7 3 1.7 3.5 0 0.5 3.4 4.4 7.6 8.5 4.1 4.1 8.7 9.5 10.1 12 1.5 2.5 3.4 5.4 4.3 6.5 1 1.1 3.7 6 6.1 11 2.3 5 5.6 11 7.2 13.5 1.7 2.5 5.7 7.2 9.1 10.5 3.4 3.3 8.1 8.6 10.6 11.8 2.5 3.2 6.2 8 8.2 10.5 2 2.6 4.3 6.5 5 8.7 0.7 2.2 2.2 6.1 3.5 8.7 1.3 2.7 2.3 5.9 2.3 7.3 0 1.4 0.7 4.2 1.5 6.2 0.9 2.1 1.5 4.7 1.5 5.8 0 1.1 1.4 5.8 3.1 10.5 1.7 4.7 3.4 9.8 3.9 11.5 0.4 1.7 1.4 4.6 2.2 6.5 0.8 1.9 4.6 8 8.3 13.5 3.8 5.5 8.2 11.8 9.7 14 1.6 2.2 2.9 4.5 2.9 5-0.1 0.5 1.3 3 2.9 5.5 2.1 3.1 3.4 6.7 4.1 11.5 0.6 3.8 1.4 9.3 1.9 12 0.5 2.7 1.3 7.9 1.9 11.5 0.6 3.6 1.5 8.5 1.9 11 0.5 2.5 1.3 6.1 1.9 8 0.6 1.9 1.6 5.5 2.3 8 0.6 2.5 1.5 5.8 1.9 7.5 0.5 1.7 1.6 5 2.4 7.5 0.8 2.5 2.1 6.3 2.8 8.5 0.7 2.2 1.7 6.7 2.1 10 0.4 3.3 1.4 12.5 2.3 20.5 0.9 9 1.4 25.6 1.5 43.5 0 28.2-0.1 29.2-2.5 36.5-1.3 4.1-3.8 9.4-5.5 11.8-1.6 2.3-5.1 5.4-7.7 6.9-3.8 2.2-6.1 2.7-10.8 2.7-3.3 0-10.5-0.1-16-0.3-5.5-0.2-17-0.9-25.5-1.7-8.5-0.8-18.2-1.8-21.5-2.3-3.3-0.6-7.3-1.6-9-2.3-2.5-1.1-109.5-1.3-593.5-1.5-324.8-0.1-595-0.5-610.5-1.5l1-3.3c0.6-1.9 1.6-3.9 2.3-4.7 0.7-0.7 1.2-2.4 1.2-3.8 0.1-1.4 1.3-4.4 2.8-6.7 1.5-2.4 3-4.3 3.5-4.3 0.4 0 0.7-1.2 0.7-2.8 0-1.5 0.5-4.3 1.1-6.2 0.7-1.9 1.8-3.8 2.6-4.3 0.7-0.4 1.3-1.9 1.3-3.5 0-1.5 0.6-4.5 1.2-6.7 0.7-2.2 1.7-4.5 2.4-5 0.6-0.5 1.4-3 1.7-5.5 0.3-2.5 1.3-5 2.2-5.5 1-0.7 1.5-2.2 1.3-5-0.3-3.7-0.6-4-3.3-4.3-1.6-0.1-4.6-0.7-6.5-1.2-1.9-0.5-5.4-1.4-7.7-2-2.6-0.6-5.8-2.4-8-4.6-3.4-3.2-4.2-3.6-7.3-3-2.1 0.4-4.8 2-6.7 4.1-2.3 2.4-4.6 3.8-7.5 4.3-2.4 0.5-5.1 0.6-6.1 0.3-1-0.3-3.2-3-4.8-5.9-2.4-4.3-2.9-6.5-3.1-13.2-0.3-8-0.3-8.1 3-10.5 1.7-1.4 4.1-4.2 5.1-6.3 1-2 4.3-6 7.2-8.7 2.9-2.8 6.8-5.8 8.6-6.8 1.8-0.9 4.5-1.7 6.1-1.7 1.5-0.1 3.4 0.6 4.2 1.5 0.8 0.9 2.2 1.6 3 1.6 0.8-0.1 3 0.9 4.7 2.2 2.1 1.4 3.3 3 3.3 4.4 0 1.4-1.4 3.5-3.5 5.3-1.9 1.7-3.5 3.9-3.5 5 0 1.1-0.2 2.7-0.5 3.5-0.3 0.8-1.2 1.5-2 1.5-1.1 0-1.5 1.2-1.5 4.2-0.1 2.4 0.5 4.8 1.2 5.4 0.7 0.6 2.4 1.5 3.8 2 1.4 0.4 3.3 1.6 4.3 2.6 0.9 1 1.7 2.3 1.7 2.8 0 0.5 2 1 4.5 1 3.4 0 4.6-0.4 5-1.8 0.5-1.4 1.3-1.6 4.3-1 2 0.4 4.9 0.4 6.5 0 2.5-0.7 2.7-1.1 2.7-5.7q0-5-1.8-6.7c-1-1.1-1.4-2.4-0.9-3.3 0.4-0.8 1.5-1.5 2.5-1.5 0.9 0.1 2.8 1.3 4.2 2.8 1.4 1.5 3 3.8 3.6 5.2 0.7 1.4 1.5 5.2 1.9 8.5 0.4 3.3 1.4 7.1 2.2 8.5 1.1 1.9 1.4 3.9 0.9 8-0.6 4.5-0.3 6.3 1.5 10 1.2 2.5 2.7 6.1 3.4 8 0.7 2 0.9 4.4 0.4 5.5-0.4 1.1-0.8 3.8-0.8 6-0.1 2.3 0.8 5.5 2 7.5 1.4 2.5 1.7 3.8 0.9 4.5-0.5 0.5-1 2.1-1 3.5 0 1.4-0.7 3.8-1.5 5.5-0.9 1.7-1.5 4.7-1.5 10.5l5.8-0.3c5.3-0.2 5.7-0.4 6-2.7 0.2-1.4 1-4 1.8-5.8 0.8-1.7 1.7-3.4 2.2-3.6 0.4-0.2 1.1-2.1 1.6-4.2 0.5-2.2 2-6.4 3.5-9.4 1.5-3 3.9-7.4 5.4-9.8 1.5-2.3 2.7-4.5 2.7-5-0.1-0.4 0.9-1.6 2.1-2.7 1.2-1.1 3.2-4.3 4.5-7 1.3-2.8 3.2-6.3 4.4-8 1.1-1.7 2-3.8 2-4.8 0-0.9 0.7-1.9 1.5-2.2 0.8-0.3 1.5-1.3 1.5-2.3-0.1-0.9 1.3-3.5 3-5.7 1.7-2.2 3.1-4.3 3-4.8 0-0.4 1.4-2.5 3-4.7 1.8-2.4 3-5.2 3-7 0-1.8 1.7-5.8 4.1-9.8 2.3-3.7 5.1-7.8 6.4-9.2 1.2-1.4 3.1-4 4.1-5.8 1-1.8 2.2-3.2 2.7-3.2 0.4 0 0.7-0.3 0.7-0.8-0.1-0.4 1.5-2.5 3.5-4.7 1.9-2.2 4.2-5.3 4.9-7 0.8-1.7 2.5-4.1 3.8-5.5 1.3-1.5 3.1-5.3 4.2-8.5 1-3.3 2.2-7.3 2.7-9 0.5-1.7 0.9-4.9 0.9-7.3 0-3.9-0.5-4.7-6.7-10.7-3.8-3.6-7.2-6.5-7.8-6.5-0.5 0-1.6-0.9-2.2-2-0.7-1.1-2.3-2.5-3.5-3-1.3-0.6-3.4-1.7-4.8-2.5-1.4-0.8-2.7-1.9-3-2.3-0.3-0.5-1.8-1.3-3.5-2-1.6-0.6-3.9-2.1-5-3.2-1.1-1.1-2.4-2-3-2-0.5 0-2.6-1.4-4.6-3.2-2-1.8-4.9-4.3-6.3-5.6-1.4-1.2-3.3-2.2-4.1-2.2-0.8 0-1.5-0.5-1.5-1 0-0.5-1.7-2.7-3.7-4.8-2.1-2.1-4.4-4.8-5-6-0.7-1.2-1.3-2.9-1.3-3.7 0-0.8-0.9-2.7-2-4.3-1.2-1.5-2.1-3.7-2-5 0-1.2-0.4-3-0.9-4-0.4-0.9-2-5.5-3.4-10.2-1.5-4.7-2.9-10.5-3.2-13-0.2-2.5-1.1-5.2-1.9-6-0.7-0.8-1.7-2.8-2.1-4.5-0.4-1.7-0.9-5.1-1.1-7.8-0.3-3-0.9-4.9-1.9-5.2-0.8-0.3-1.5-0.8-1.5-1.3 0-0.4 1.5-2.3 3.3-4.2 1.7-2 6.2-5.8 9.9-8.5 3.7-2.8 7.2-6 7.7-7.3 0.6-1.2 1.1-4.3 1.1-7 0-3.6-0.6-5.4-2.5-7.7-1.4-1.7-2.5-3.8-2.5-4.8 0-0.9 0.5-1.7 1-1.7 0.6 0 2.5-1.5 4.3-3.4 1.7-1.9 5.5-5 8.2-6.9 3.5-2.4 6.8-3.7 10.9-4.3 3.2-0.5 6-1.2 6.2-1.7 0.2-0.4 2.3-0.7 4.7-0.7 2.3 0 4.7 0.5 5.2 1.1 0.7 0.7 3.9 0.9 9.5 0.5 4.7-0.3 11.4-0.9 15-1.2 3.6-0.4 7.4-1.3 8.5-2 1.1-0.7 6.7-1.8 12.5-2.4 6.3-0.7 11.1-1.7 12-2.5 0.8-0.8 1.8-1.5 2.3-1.5 0.4 0 2.2-1 4-2.3 1.7-1.2 5.8-4.3 9-7 3.1-2.6 6.4-4.7 7.2-4.7 0.8 0 1.6-0.4 1.8-0.8 0.1-0.5 2.8-2.4 6-4.3 3.2-1.9 7.4-4.2 9.3-5.2 1.9-0.9 6.1-4.7 9.4-8.5 3.3-3.7 6.9-8.5 8.1-10.7 1.1-2.2 2.7-6.3 3.5-9 0.9-3 1.7-12.1 2.7-41l-2.9-3c-1.6-1.6-4.5-4.2-6.4-5.6-1.9-1.4-4.7-2.9-6.2-3.2-1.6-0.4-3.9-1.9-5.3-3.5-1.4-1.5-2.6-3.2-2.5-3.7 0-0.5 0.9-3.6 2-6.8 1.3-3.7 2.3-10.4 2.9-19 0.5-7.3 1.7-15.4 2.7-18.2 0.9-2.8 2.3-6.5 3-8.3 0.8-1.7 1.4-3.9 1.4-4.7 0-0.8 1.1-3.6 2.5-6.3 1.4-2.6 2.5-5.5 2.5-6.5 0-0.9 0.3-1.7 0.8-1.7 0.4 0 1.3-4.6 2-10.2 0.6-5.7 1.2-16 1.2-23.1 0-7-0.4-15-1-17.7-0.5-2.8-1.4-5-2-5-0.5 0-1.3-1.9-1.6-4.3-0.4-2.3-1.3-5.6-2.1-7.2-1.3-2.6-1.3-3.2 0-4.5 1.4-1.3 2.2-0.9 7.1 4.2 3.1 3.2 5.9 5.8 6.4 5.8 0.4 0 2.1 1.2 3.9 2.7 1.8 1.6 3.3 3.6 3.3 4.5 0 1 1 2.9 2.3 4.2 1.2 1.3 3.8 2.8 5.7 3.3 1.9 0.5 5.6 2.4 8.3 4.1 4.2 2.9 5.5 3.2 12 3.2 4.8 0 7.9-0.5 9.2-1.5 1.1-0.8 2.8-1.5 3.8-1.5 0.9 0 3.1-1.1 4.7-2.5 1.7-1.4 3-3.4 3-4.5 0-1.1 0.5-2.1 1.1-2.3 0.6-0.1 1.6-3.6 2.2-7.8 1.2-7.3 1.1-7.8-1.3-12.5-1.4-2.7-2.9-5.5-3.5-6.2-0.5-0.7-2.5-2.9-4.2-4.8-1.8-1.8-5.9-5.1-9-7.1-3.2-2.1-6.2-4-6.6-4.3-0.4-0.3-1.5-3-2.3-6-0.9-3-2-7.3-2.6-9.5-0.5-2.2-1.4-6.5-1.8-9.5-0.4-3-1.3-7.1-2-9-0.7-1.9-1.6-4.2-2.1-5-0.4-0.8-1.9-3.8-3.2-6.5-1.3-2.8-4.1-7-6.2-9.5-2.1-2.5-4.9-5.2-6.4-6.1-1.4-0.9-4.1-3.1-5.8-4.8-1.8-1.7-3.6-3.1-4-3.1-0.5 0-2.8-1-5.3-2.2-3.3-1.6-6.8-2.3-13-2.6-4.8-0.2-11.1 0.2-14.5 0.9-3.3 0.7-7.3 1.3-9 1.4-1.6 0.1-3.9 0.5-5 1-1.8 0.8-1.9 0.7-0.5-0.9 0.8-0.9 2.1-1.7 2.8-1.6 0.6 0 3.2-1.5 5.7-3.3 2.5-1.7 6-5.2 7.8-7.7 3.1-4.3 3.2-4.8 3.2-14.5 0-7.2-0.6-11.6-1.9-15.5-1.1-3-4.3-11.8-7.1-19.5-2.9-7.7-7.7-21.6-10.8-31-3-9.4-6.7-22.4-8.2-29-2.1-9.6-2.8-16.1-3.5-32.5-0.4-11.3-0.4-28.6 0.1-38.5 0.5-9.9 1.6-26.1 2.4-36 0.8-9.9 2.9-28.6 4.5-41.5 1.7-12.9 3.7-27.4 4.5-32.3 0.9-5.2 1.2-10.8 0.8-14-0.3-2.8-1.2-6.1-2-7.2-0.7-1.1-1.8-5.4-2.4-9.5-0.6-4.1-1.4-7.7-1.8-8-0.5-0.3-1.3-2.8-1.9-5.5-0.5-2.8-1.1-8.6-1.1-13-0.1-4.6-0.7-8.6-1.4-9.4-0.7-0.8-1.5-6.4-2-12.5-0.4-6.1-0.7-11.8-0.7-12.6-0.1-0.8 0.4-13.6 1-28.5 0.5-14.9 1.4-27.9 1.9-29 0.5-1.1 1.2-4.5 1.4-7.5 0.3-3 1.5-7.8 2.6-10.5 1.1-2.8 2.2-6.7 2.5-8.8 0.3-2 1.3-4.4 2.1-5.2 0.8-0.8 1.5-2.4 1.5-3.5 0-1.1 0.6-3 1.4-4.3 0.8-1.2 1.7-3.9 2-6 0.3-2 2.1-5.8 4-8.5 1.9-2.6 4.2-6.3 5-8.2 0.9-1.9 2-4.2 2.5-5 0.5-0.8 1.7-3.1 2.6-5 0.9-1.9 2.7-5.3 4.1-7.5 1.3-2.2 3.6-6.5 5.1-9.5 1.6-3.1 4.2-6.8 5.8-8.3 1.7-1.4 3.6-2.7 4.3-2.7 0.6 0 2.6-1.2 4.2-2.8 1.7-1.5 3-3.4 3-4.2 0-0.8 2.1-4 4.7-7 2.6-3 8.8-9.6 13.8-14.5 5-4.9 12.1-11.6 15.8-14.8 3.7-3.1 7.2-5.7 7.7-5.7 0.6 0 1-0.5 1-1 0-0.6 3-2.5 6.8-4.2 3.7-1.8 8.1-4.3 9.7-5.5 1.7-1.2 3.8-2.3 4.8-2.3 0.9 0 1.7-0.5 1.7-1 0-0.6 1.4-1.5 3-2 1.7-0.6 3-1.3 3-1.8 0-0.4 1.7-1.3 3.7-2.1 2.1-0.8 4.4-2 5.1-2.8 0.6-0.7 2.4-1.6 4-2 1.5-0.3 3.3-1.2 4-2 0.7-0.7 2.1-1.3 3-1.3 0.9 0 5.5-1.4 10.2-3.1 4.7-1.7 10.1-3.7 12-4.5 2.1-0.8 7.8-1.3 14.5-1.4 6.1 0 11.5-0.4 12-0.8 0.6-0.5 2.8-1.4 5-2 2.5-0.7 12.8-1.2 27-1.2 22-0.1 23.1 0 25 2 1.6 1.6 3.2 2.1 7.8 2 3.9 0 6.7-0.6 9-2 1.7-1.1 4.8-2 6.8-2 1.9 0 4.1-0.6 4.8-1.3 0.7-0.6 2.7-1.7 4.4-2.3 1.8-0.7 3.8-1.2 4.5-1.3zm228.7 166.3c-0.9 3.3-1.3 3.6-5.5 3.8l-4.5 0.3c-0.9 8.5-1.2 10.4-1.3 9.7-0.1-0.6-1.4-2.9-2.9-4.9-1.6-2.1-4.4-5.2-6.3-7-2-1.9-4.6-3.3-6-3.3-1.4 0-3.3 0.5-4.4 1.2-1.6 1.1-1.8 2.1-1.2 6 0.3 2.7 1.5 6.3 2.6 8 1.1 1.8 2.4 4.3 3 5.5 0.5 1.3 1.5 2.3 2 2.3 0.6 0 1.5 1.5 2 3.2 0.6 1.8 1 3.7 1 4.3 0 0.6-1.3-0.4-3-2-1.7-1.6-3-3.3-3-3.8 0-0.4-1-2.3-2.2-4.2-1.3-1.9-2.7-3.4-3.3-3.4-0.5-0.1-1.8-1.4-2.7-3.1-1-1.6-2.8-3.3-4-3.6-1.3-0.4-3.2-0.3-4.3 0-1.7 0.6-1.9 1.3-1.5 5.4 0.3 2.6 1.8 7.2 3.3 10.2 1.4 3 5 8.6 7.9 12.5 4 5.3 5.9 7 7.8 7.1 1.4 0 3.3-0.2 4.2-0.5 1-0.3 2.6-2.2 3.5-4.1 1.5-2.8 2.6-3.6 5.8-4.2 3.3-0.7 4.2-1.4 5.2-4 0.7-1.8 1.3-4.9 1.3-6.8 0-1.9-0.5-4.1-1.2-4.8-1.1-1-0.6-1.2 2.5-1.2 2.7 0 3.8-0.4 4-1.8 0.2-0.9-0.1-3.2-0.5-5-0.4-1.8-0.4-4 0.1-5 0.8-1.4 2.4-1.7 9-1.7 4.8 0 8.1 0.4 8.1 1-0.1 0.6 0.7 1.8 1.7 2.8 1.2 1.2 3 1.7 5.7 1.5 2.3-0.2 4.4-1 5-2 0.8-1.2 0.7-2-0.4-3.3-0.9-0.9-3-1.6-5.2-1.5-2.1 0-4.7-0.4-5.8-1-1.2-0.6-2.2-2.3-2.5-4.5-0.3-1.9-1.2-4.2-2-5-0.8-0.8-2.7-1.5-4.2-1.5-1.7 0-3.6 1-4.8 2.5-1.1 1.3-2.5 4-3 5.9zm-398.5 205.8c-0.1 1.5 2.1 4.6 6 8.5 4.3 4.5 6.6 6.2 8.2 6 1.4-0.1 2.4-1 2.6-2.2 0.2-1.1-0.2-3.8-0.9-6-0.7-2.2-1.7-4.6-2.3-5.3-0.6-0.7-2.1-1.3-3.3-1.2-1.9 0-2.3-0.5-2.3-3 0-2.5-0.4-3-2.3-3-1.3 0-3.1 0.9-4 2-0.9 1.1-1.7 3-1.7 4.2zm-48.1 7.7c-1.3 2.3-3.3 4.2-4.4 4.3-1.3 0.2-2.1 1.2-2.3 2.8-0.2 1.4 0.2 2.9 0.8 3.5 0.6 0.5 1 1.8 1 2.7 0 1 1.1 2.5 2.5 3.3 1.4 0.8 2.5 2.4 2.5 3.5 0 1.5 0.7 2 2.5 2 1.4 0 3.4 0.4 4.5 1 1.1 0.5 2.9 1.4 4 2 1.1 0.5 3.6 1 5.5 1 1.9 0 4.2-0.2 5-0.5 0.8-0.3 1.5-1.7 1.5-3.3 0-1.5-1.1-4-2.5-5.7-1.4-1.6-2.5-3.8-2.5-4.8 0-0.9-0.6-2.3-1.3-3-0.8-0.6-1.7-3.5-2-6.2-0.3-2.8-0.8-5.1-0.9-5.2-0.2-0.1-2.8-0.5-5.9-0.9l-5.5-0.6zm40.3 3.8c0.2 4.3 0.5 4.8 2.7 5.1 1.6 0.2 3.3-0.5 4.5-1.8 1.7-1.7 1.9-2.6 1-4.8-0.8-2.2-1.7-2.8-4.7-3l-3.7-0.3zm37.9 115.3c-1.3 0-3.6 1.2-5 2.8-2.5 2.6-2.8 3.7-3.3 13.7-0.4 6.1-0.5 11.8-0.3 12.7 0.2 1 1.3 1.8 2.6 1.8 1.3 0 4.3-0.8 6.8-1.9 2.5-1.1 5.8-3.4 7.4-5.3 1.6-1.8 3.7-5 4.7-7.1 1.1-2.1 1.9-5.8 1.9-8.7 0-4-0.5-5.5-2.5-7.5-1.4-1.4-3.5-2.5-4.8-2.5-1.2 0-2.9 0.4-3.7 1-0.8 0.5-2.5 0.9-3.8 1zm-56.7 48c2 0 2.5-0.5 2.5-2.5 0-2-0.5-2.5-2.5-2.5-2 0-2.5 0.5-2.5 2.5 0 2 0.5 2.5 2.5 2.5zm88.4 15.9c0.1 2.5 0.6 3.2 2.8 3.7 1.6 0.4 3.5 0.2 4.3-0.3 0.8-0.6 1.6-2.2 1.7-3.7 0.2-1.4-0.2-3.5-0.7-4.6-0.6-1.2-2-2-3.5-2-1.4 0-2.9 0.8-3.6 1.9-0.6 1.1-1 3.3-1 5zm182.3-242.8c4-0.1 6.8 0.3 6.8 0.9 0 0.6 2.5 0.7 6.7 0.4 4.8-0.5 8.4-0.2 12.3 0.9 3 0.9 8.2 3.4 11.5 5.6 3.3 2.3 8.2 6 11 8.4 2.9 2.5 5.2 5.4 5.5 6.9 0.4 2 0 2.7-1.5 3.1-1.1 0.3-3.4 0.3-5 0.1-1.7-0.3-11.1-1.6-21-3-16.6-2.4-19.8-2.5-40.5-1.9-12.4 0.3-25.7 1-29.5 1.5-4.3 0.5-12.9 3.1-22 6.5-8.3 3.1-17.4 6.5-20.3 7.5-2.8 1.1-6.1 1.7-7.2 1.5-1.6-0.4-1.9-1.1-1.3-3.3 0.4-1.8 0-3.7-1-5.5-1-1.5-1.7-3.7-1.7-5 0-1.3 1.2-3.1 3-4.5 1.6-1.2 5.1-2.8 7.7-3.4 2.7-0.7 5.7-2 6.8-2.9 1.1-0.9 4-2.4 6.5-3.4 2.5-0.9 7.9-2.4 12-3.2 4.1-0.9 10.9-1.9 15-2.4 4.1-0.4 10.4-1.3 14-1.9 3.6-0.6 10.8-1.5 16-2 5.2-0.4 12.5-0.8 16.2-0.9zm-40.8 42.9c1.7 0 6 0.4 9.6 0.9 5.8 0.9 6.9 1.4 10 5 1.9 2.2 3.9 4 4.5 4 0.5 0 2.8 1.4 5 3.1 3.2 2.5 3.9 3.7 3.7 5.8-0.3 2.3 0.2 2.9 3.5 4.3 2.1 0.9 5.8 2.2 8.3 2.9 2.5 0.6 8.3 2.8 13 4.7 4.7 2 9.8 4.8 11.5 6.2 1.6 1.5 5.6 4.4 8.8 6.6 3.2 2.2 6 4.5 6.2 5.2 0.3 0.8-0.3 1.3-1.5 1.3-1.1 0-2.8 1-3.8 2.3-0.9 1.2-5.6 3.9-10.5 6-4.8 2-9.4 3.4-10.2 3.2-0.8-0.3-1.5-1.4-1.5-2.5 0-1.3 1.6-3.1 4.2-4.8 3.7-2.4 4.3-3.4 4.5-6.5 0.2-2.1-0.2-3.7-0.7-3.7-0.6 0-2.7-1.6-4.8-3.5-2-1.8-5.4-4.1-7.5-5-2-0.8-4.4-1.5-5.2-1.5-1.1 0-1.5 1.1-1.5 3.7 0 2.2-1 5.2-2.3 7.2-1.2 1.8-4.1 4.7-6.5 6.2-2.3 1.6-6.1 3.4-8.5 4.1-3.5 0.9-5 0.9-9-0.5-3.7-1.4-5.6-3-9.2-7.7-3.5-4.6-5.4-6.3-8.3-7-2-0.6-5.1-1-6.7-1-2.3 0-3.7 0.9-5.9 3.7-2.7 3.5-2.8 4-1.7 7.5 0.9 3 2 4.2 5.8 6.1 2.7 1.3 8.4 3.6 12.8 5.1 4.4 1.4 8.9 2.6 10 2.7 1.1 0 2.7 0.3 3.6 0.7 1.2 0.5 1.4 1.4 0.7 3.9-0.5 2.3-2 4.1-4.8 5.8-3.3 2-4.5 2.3-6.5 1.5-1.4-0.6-4.4-1-6.8-1-2.6 0-4.8-0.5-5.7-1.5-0.8-0.9-2.3-1.6-3.3-1.6-0.9 0.1-2.6-0.8-3.7-1.9-1.1-1.1-2.9-2.5-4-3-1.1-0.6-2-1.5-2-2 0-0.6-1.7-2.7-3.8-4.8-2-2.1-5.4-5.1-7.5-6.8-2.4-1.9-3.8-3.7-3.7-5.2 0-1.8-0.5-2.2-3-2.2-1.7 0-3.2 0.4-3.5 1-0.3 0.5-1 1-1.5 1-0.6 0-1-4-1-10 0-5.5 0.4-10.9 1-12 0.5-1.1 3.1-3.5 5.7-5.2 2.7-1.7 6.4-4.6 8.3-6.3 1.9-1.7 6.6-4.9 10.5-7 3.8-2.1 8.1-4.7 9.4-5.7 1.3-1 3.8-1.8 5.5-1.8zm31.4 38.7c0.2 3.9 0.5 4.3 2.9 4.6 1.6 0.2 3.4-0.3 4-1 0.7-0.7 1.6-2.3 1.9-3.6 0.3-1.2 0.3-3.2 0-4.5-0.4-1.6-1.3-2.2-3.4-2.2-1.5 0-3.4 0.5-4.2 1.2-0.9 0.7-1.3 2.8-1.2 5.5zm146.2 59.3c1.9 0 4.2 1.8 9.6 7.7 3.9 4.3 7.6 8.8 8.2 10 0.7 1.3 1.2 4.6 1.2 7.5 0 3.1-0.9 7-2 9.5-1.2 2.6-2.7 4.3-3.8 4.3-0.9 0-2.3-0.6-3-1.5-0.6-0.8-1.1-2.3-0.9-3.3 0.2-0.9-0.7-3.8-1.9-6.2-1.2-2.6-6-8.2-11.3-13.3-5.8-5.5-8.9-9.3-8.6-10.2 0.3-0.9 1.7-1.8 3.2-2.1 1.6-0.3 3.7-1 4.8-1.4 1.1-0.5 3.1-0.9 4.5-1zm47.6 4c1.3 0 2.8 0.8 3.3 1.7 0.5 1.2 0.3 2.8-0.7 4.8-1.1 2.2-1.6 7.7-2 22.5-0.4 17-0.7 20.1-2.6 24.4q-2.1 4.9-4.6 5.7c-1.7 0.6-2.9 0.5-3.8-0.4-0.7-0.7-0.9-1.6-0.3-2.2 0.4-0.6 1.5-5.3 2.4-10.5 0.9-5.3 1.8-16.6 2.2-25.3 0.4-11.8 1-16.5 2.1-18.3 1-1.5 2.5-2.4 4-2.4zm-317.5 45c0.5 0 2.2 1.5 3.9 3.5 1.6 1.9 4.5 4.1 6.2 4.9 1.8 0.7 5.5 3.8 8.3 6.7 2.7 3 5.6 7.2 6.2 9.4 0.7 2.2 1.3 5.2 1.3 6.7 0 1.5-0.5 2.8-1 2.8-0.6 0-1 0.6-1 1.5 0 0.8-0.9 1.5-2 1.5-1.1 0-3.4-0.7-5-1.5-1.7-0.9-3.9-2.3-5-3.3-1.1-0.9-2-2.5-2-3.5 0-0.9-0.9-2.6-2-3.7-1.1-1.2-4.5-2.5-7.8-3.1-4.7-0.8-6-1.5-7.5-4-0.9-1.6-2.8-3.4-4.2-3.9-1.4-0.6-2.3-1.6-2.2-2.3 0.2-0.7 2.3-1.8 4.5-2.5 3.3-1 4.7-2.1 6.3-5.2 1.2-2.2 2.6-4 3-4zm-410.2 30c1.5-0.1 3.2 0.5 3.9 1.2 0.9 0.9 1.2 5.4 1.2 16 0 14.2 0.1 14.9 2.5 18 1.3 1.8 2.5 3.6 2.5 4 0 0.4 1.5 2.2 3.3 4 1.8 1.8 3.7 3.9 4.2 4.8 0.6 0.8 3 3 5.5 4.9 2.5 1.9 4.8 4.1 5.2 4.8 0.5 0.7 1.7 1.3 2.8 1.3 1.1 0 3.7 1.1 5.7 2.5 2.1 1.4 4.4 2.5 5 2.5 0.7 0 2.3 1.3 3.5 3 1.5 1.8 3.2 3 4.8 3 1.6 0 3.8-1.3 6.3-3.7 3.6-3.7 3.7-3.8 3.8-1.3 0 1.3-0.7 3.1-1.6 4-0.9 0.8-1.6 2.5-1.5 3.7 0 1.3-0.5 2.5-1 2.8-0.6 0.2-1 1.6-1 3 0 1.3-0.3 2.6-0.8 2.9-0.4 0.2-1 2.2-1.5 4.5-0.4 2.2-1.2 4.3-1.7 4.6-0.6 0.3-0.8-1.5-0.5-5 0.3-3.4 0.1-5.5-0.5-5.5-0.6 0-1.2-0.9-1.5-2-0.4-1.6-1.3-2-4.8-2-3.8 0-4.8 0.6-11.5 7-3.9 3.8-7.7 7-8.3 7-0.6 0-1.7 0.6-2.5 1.5-0.8 0.8-3.2 1.7-5.4 2-2.2 0.2-4 0.9-4 1.5 0 0.5-1.5 1.4-3.3 2-1.9 0.6-6.7 4.7-12 10-7.8 8-8.7 9.4-8.7 12.7 0 2.8 0.6 4.4 2.5 6 1.4 1.3 4 2.5 5.7 2.9 1.8 0.3 5.2 0.1 7.5-0.5 2.6-0.7 5-0.8 6-0.2 1.6 0.8 1.5 1.1-1.1 3.2-1.5 1.3-4.8 4.3-7.2 6.6-2.4 2.4-4.4 4.6-4.4 5 0 0.4-1.3 2-3 3.5-1.6 1.5-3.3 2.8-3.8 2.8-0.4 0-3.5 1.4-7 3-5.6 2.7-6.2 3.3-6.2 6 0 1.7 0.6 3.2 1.5 3.5 0.8 0.2 1.5 1.3 1.5 2.2 0 1-1.5 2.6-3.2 3.6-2.6 1.5-4.5 1.8-9.1 1.3-5-0.6-6-0.4-8.2 1.6-1.3 1.3-2.5 3.2-2.5 4.3 0 1.1 0.8 3.2 2 4.7 1.1 1.5 1.8 3.4 1.5 4.3-0.3 0.8-1.2 1.5-2 1.5-0.9 0-2.6 1-3.9 2.2-1.3 1.3-3 4.4-3.9 7-1 2.6-2.3 5.8-3 7-0.6 1.3-2.8 4.3-4.8 6.8-2.3 2.8-4.2 6.8-5.2 11-1.3 4.7-1.7 10.7-1.8 22 0 12.6 0.3 15.7 1.5 17 0.9 0.8 1.6 2.7 1.6 4.2 0 1.5 0.4 3 1 3.3 0.5 0.2 1 2 1 4 0 1.9-0.5 3.7-1 4-0.6 0.2-1 1.3-1 2.2 0.1 1-0.6 2.4-1.5 3.3-1.2 1.1-1.6 3.4-1.5 9.5 0 4.4 0.8 11.8 1.7 16.5 1.6 8 1.6 8.8 0 14-0.9 3-1.7 6.6-1.7 8 0 1.3 0.6 3.4 1.4 4.5 0.9 1.1 1.5 2.9 1.5 4 0.1 1.1 1 3 2.1 4.2 1.1 1.3 2.4 3.5 2.9 5 0.5 1.7 0.5 4.8-0.1 7.8-0.5 2.7-0.7 8.3-0.3 12.5 0.5 6.6 1.4 9.1 7.2 21 3.6 7.4 6.9 14.1 7.3 15 0.4 0.8 1.3 3.9 2 7 0.7 3 1.9 6.9 2.6 8.7 0.8 1.8 1.4 4.7 1.4 6.5 0 1.8 0.5 3.9 1.2 4.6 0.7 0.7 2.3 4.1 3.6 7.5 1.3 3.4 2.7 8 3.2 10.2 0.5 2.3 0.5 5.5-0.1 7.7-0.5 2.1-0.7 4.1-0.5 4.5 0.3 0.4 1.5 5 2.7 10.3 1.2 5.2 2.5 13.1 3.4 25.5l5.5 0.3c4.3 0.2 6.1-0.2 8.2-1.8 1.6-1.1 3.8-2 5-2 1.3 0 4 1.7 6.3 4.1 2.2 2.2 5.1 4.2 6.5 4.5 1.4 0.3 4.7 2.5 7.5 4.9 2.7 2.5 6.6 5.2 8.5 6.1 1.9 0.9 6 2.9 9 4.4 3 1.5 5.6 3.2 5.7 3.9 0.2 0.6-1.4 2.2-3.5 3.6-3 2.2-4.6 2.6-8.9 2.3q-5.3-0.3-5.8 0.9c-0.3 0.7-1.1 1.3-1.8 1.3-0.6 0-3.5 1.2-6.2 2.6-2.8 1.3-7 3.2-9.5 4-2.7 0.9-9.7 1.6-17.5 1.9-11.4 0.3-13.6 0.1-17.5-1.6-2.5-1.1-5.6-3.1-7-4.4-1.4-1.2-3.5-2.8-4.8-3.4-1.2-0.6-3.1-1.1-4.2-1.1-1.1 0-5.4-1.2-9.5-2.5-4.1-1.4-8.2-3.2-9-4-0.8-0.9-3.1-1.8-5-2-1.9-0.3-3.5-1-3.5-1.5 0-0.6-2.7-1-6-1-3.3 0-6.2 0.3-6.4 0.7-0.2 0.4-1.8 1.1-3.5 1.5-1.7 0.4-4.7 2.2-6.6 4-3 2.8-3.7 4.2-4.5 10-0.6 3.7-1.5 7.7-2 8.8-0.6 1.1-1 3.5-1 5.5 0 1.9 0.9 5.3 2 7.5 1.1 2.2 2.3 4 2.7 3.9 0.5 0 2.1 1.1 3.8 2.5 1.6 1.4 3.9 2.6 5 2.6 1.1-0.1 2.9 0.6 4 1.4 1.1 0.8 2.6 1.5 3.2 1.5 0.7 0.1 3.4 1 6 2.2 3.7 1.6 6.3 2 10.9 1.7 5.3-0.3 6.6-0.8 9.5-3.6 2.7-2.5 3.7-2.9 4.7-2 0.7 0.7 1.3 2.8 1.2 4.8 0 1.9 0.5 4 1.2 4.7 1.1 1 0.8 2.6-1.1 8-2.2 6.4-2.2 7-0.8 11.3 1.3 3.7 2.3 4.8 5.8 6.5 2.4 1.1 5 3.2 5.9 4.7 1 1.8 1.2 3.1 0.5 3.8-0.7 0.9-3.1 0.8-9-0.3-4.4-0.9-11.8-2.7-16.5-4.1-4.7-1.4-9.5-2.6-10.8-2.6-1.2 0-2.2-0.5-2.2-1 0-0.6-2.3-1-5-1-3.2 0-5.6-0.6-6.8-1.6-1.3-1.3-2.7-1.5-5.7-1-2.2 0.4-4.1 1.1-4.3 1.6-0.1 0.5-1.1 1-2.2 1-1.6 0-2 0.6-2 3.5 0 1.9 0.4 4.4 1 5.5 0.5 1.1 1.2 11.3 1.4 22.7 0.2 12.6 0.8 21.7 1.5 23 1 2 0.8 2.3-0.9 2.3-1.1 0-2.2-0.6-2.3-1.3-0.3-0.8-2.3-1.2-6.3-1.1-4 0.1-6 0.6-6.3 1.5-0.3 0.8-1.2 2.1-2 2.9-0.9 0.8-2.9 3.3-4.5 5.5-1.7 2.2-3.6 4.3-4.3 4.7-0.7 0.4-2.1 1.7-3.1 2.8-0.9 1.1-2 2-2.5 2-0.4 0-1.9 1.2-3.5 2.7-1.5 1.6-4.2 5.7-6.1 9.3-2.8 5.5-3.2 7.1-2.6 10.5 0.4 2.6 1.9 5.3 4.3 7.8 2 2.1 5.2 4.6 7.1 5.5 1.8 0.9 3.8 2.5 4.2 3.4 0.8 1.6 0.4 1.7-4.9 1.2-3.1-0.3-9.3-1.5-13.7-2.5-4.4-1.1-9.1-1.9-10.5-1.9-1.4 0-3.5 0.2-4.8 0.5-1.8 0.4-2.2 1.2-2.2 4 0 1.9 0.4 4.5 0.9 5.7 0.4 1.3 2.6 4 4.7 6.1 2.2 2 5.1 4 6.6 4.2 1.6 0.3 4 1.7 5.5 3.2 1.6 1.5 6.6 4.6 11.3 6.9 4.7 2.3 10.2 4.9 12.2 5.7 2.1 0.9 3.8 2.1 3.8 2.7 0 0.5 0.6 1 1.2 1 0.7 0 2.9 1.4 4.8 3.1 2.8 2.6 3.3 3.4 2.4 4.8-0.9 1.2-3.3 1.6-12 1.9-6 0.1-11.8-0.2-12.9-0.7-1.1-0.5-3.8-1.4-6-2-2.2-0.6-5.5-1.1-7.3-1.1-1.7 0-3.9 0.2-4.7 0.5-0.9 0.3-1.5 1.6-1.5 3.2 0.1 1.5 1 3.8 2 5 1.1 1.3 2.2 2.3 2.5 2.3 0.3 0 3.5 3 7.2 6.8 3.8 3.7 7.9 7.1 9.3 7.4 1.4 0.3 4.4 2.5 6.7 4.7 3.7 3.5 5.3 4.2 11 5.3 3.8 0.6 7.8 1.9 9 2.7 1.1 0.9 2.7 3 3.5 4.8 0.7 1.8 1.6 3.3 2 3.3 0.5 0 1.4 1.1 2 2.5 0.7 1.4 1.7 2.5 2.3 2.5 0.5 0 2.7 0.9 4.7 2 2.1 1.1 4.8 2 6 2 1.3 0 3.2 0.5 4.3 1.3 1.1 0.7 3.9 1.9 6.3 2.7 2.3 0.8 4.2 1.8 4.2 2.2 0 0.4 1.7 1.2 3.7 1.8 2.1 0.5 5.4 1 10.8 1.2l-4 0.8c-2.2 0.5-60.7 0.9-130 0.9-69.3 0-127.7-0.3-129.8-0.7-3-0.6-4-1.3-4.4-3.2-0.3-1.4-0.1-8.4 0.4-15.5 0.8-9.9 1.5-13.9 3-16.5 1.3-2.3 2.3-6.3 2.7-11 0.3-4.2 1-8 1.6-8.5 0.6-0.6 1-1.9 1-3 0-1.1 0.9-4.5 2.1-7.5 1.1-3.1 2.3-6.3 2.5-7.3 0.2-0.9 0.8-1.7 1.4-1.7 0.5 0 1.3-1 1.6-2.3 0.4-1.2 1.8-3.9 3-6 1.3-2 2.4-4.5 2.4-5.5 0-0.9 0.6-2.4 1.3-3.2 0.7-0.9 2.8-5.4 4.7-10 1.9-4.7 4-9.1 4.7-9.8 0.7-0.7 1.3-1.9 1.3-2.7 0-0.9 0.7-1.8 1.5-2 0.8-0.3 1.5-1.7 1.5-3 0-1.4 0.4-2.8 1-3 0.5-0.3 1-2.2 1-4.3 0-2 1.1-6 2.5-8.7 1.3-2.8 3.6-6.8 5-9 1.3-2.2 3.4-5.9 4.5-8.3 1.1-2.3 2-4.6 2-5 0-0.4 3.2-7 7-14.7 3.8-7.7 7-14.6 7-15.3 0-0.7 0.3-1.2 0.7-1.2 0.5 0 1.4-1.7 2.2-3.8 0.8-2 1.7-4 2-4.2 0.4-0.3 2-3.7 3.5-7.5 1.6-3.9 3.5-7.7 4.1-8.5 0.7-0.9 1.5-2.4 1.8-3.5 0.4-1.1 1.8-3.3 3.2-4.8 1.4-1.5 2.5-3.4 2.5-4.2 0-0.9 0.4-2.3 0.9-3.3 0.5-0.9 1.7-4.4 2.7-7.7 1-3.3 2.4-6.9 3.1-8 0.7-1.1 1.3-3 1.3-4.3 0-1.2 0.3-2.2 0.7-2.2 0.5 0 1.4-1.8 2-4 0.7-2.2 2.2-4.9 3.3-6 1.1-1.1 2-3.2 2-4.5 0-1.4 0.4-2.8 1-3 0.5-0.3 1.7-2 2.5-3.8 0.9-1.8 1.5-3.7 1.5-4.2 0-0.6 1.3-2.4 2.8-4 1.6-1.7 3.4-4.7 4.1-6.8 0.6-2 1.5-4 2.1-4.2 0.5-0.3 2.5-3.8 4.4-7.8 1.9-4 4.1-9.8 5-13 0.9-3.1 1.9-5.7 2.3-5.7 0.5 0 1.4-2.5 2-5.5 0.7-3 1.6-5.7 2-5.9 0.5-0.2 2.1-3 3.6-6.3 1.6-3.2 3.5-7.1 4.3-8.6 0.8-1.5 1.4-3.5 1.4-4.5 0-0.9 1.1-3.5 2.6-5.7 1.5-2.3 2.9-6 3.2-8.5 0.2-2.5 1-5.2 1.6-6 0.7-0.9 1.7-2.8 2.4-4.3 0.7-1.5 1.2-4.1 1.2-5.7 0-1.7 0.7-4.5 1.6-6.3 0.9-1.8 2.2-3.6 2.8-3.9 0.8-0.6 1-10.3 0.8-33.5-0.3-20.3-0.8-33.6-1.4-34.8-0.6-1.1-1.5-12.2-2-24.5-0.4-12.4-0.8-29.5-0.9-38 0-8.6 0.3-23.9 0.7-34 0.3-11 1.2-20.4 2-23 0.8-2.5 1.4-7.3 1.4-10.8 0-4.5 1-9.1 3.5-16.5 2-5.6 3.9-10.5 4.4-10.7 0.4-0.3 1.3-1.5 1.9-2.8 0.7-1.2 1.2-3.2 1.2-4.5 0-1.2 1-4.7 2.4-7.7 1.3-3.1 4.6-7.8 7.3-10.6 2.6-2.8 6.3-6.8 8-8.8 1.8-2 4.3-4.1 5.5-4.6 1.3-0.6 3-1.4 3.8-1.9 0.8-0.4 3.5-1.8 6-2.9 2.5-1.1 7.2-3.3 10.5-4.8 3.3-1.5 6.9-3 8-3.5 1.1-0.4 5.8-2.6 10.5-4.8 4.7-2.2 11.2-4.7 14.5-5.6 3.3-1 6.3-2.4 6.7-3.1 0.5-0.8 1.2-1.4 1.8-1.4 0.5 0 3.4-2.5 6.2-5.5 2.9-2.9 6.8-7 8.5-9 1.8-1.9 3.3-3.8 3.3-4 0-0.3 1.3-3.5 3-7 1.9-4.2 3-8.1 3-11 0-2.8 0.5-4.7 1.2-4.9 0.9-0.2 1.5-3.4 2-9.2 0.4-4.9 1-12.7 1.5-17.3 0.4-4.6 1.4-8.8 2.1-9.5 0.7-0.6 1.3-1.7 1.2-2.4 0-0.7 0.7-1.5 1.5-1.7 0.8-0.3 2.1-2.1 2.7-4 0.7-2 1.6-3.6 2-3.5 0.5 0 0.8-0.6 0.8-1.3 0-0.7 1.3-2.8 2.9-4.7 1.7-2 3-3.9 3.1-4.3 0-0.4 1.6-3.1 3.5-6 1.9-2.9 3.5-5.8 3.5-6.5 0-0.7 0.6-1.6 1.3-2 0.6-0.4 1.8-1.9 2.5-3.2 0.7-1.4 3.8-5.2 6.8-8.5 3-3.3 5.3-6.5 5.2-7.1-0.1-0.6 0.4-1.6 1.2-2.2 0.8-0.7 2.5-1.2 3.9-1.2zm69.9 31.3c0.7 1.8 1.2 5 1.2 7.2 0 2.6-0.7 4.8-2 6.2-1.1 1.3-2.1 2.3-2.3 2.3-0.1 0 0.2-4.3 0.8-9.4 1-9 1.1-9.3 2.3-6.3zm51.5 83.7c1.8-0.1 4.1 0.6 5.2 1.4 1.8 1.4 1.5 1.5-4.3 1.5-3.4 0.1-7.1 0.5-8.2 1.1-1.5 0.7-2 2-2 5 0 2.2 0.4 4.2 1 4.5 0.5 0.2 1 1.3 1 2.2 0 1-0.8 2.2-1.9 2.8-1 0.5-3.8 2.8-6.2 5-4 3.8-4.2 4.2-3.8 8.7 0.3 3.8 0.1 4.7-1.1 4.5-0.8-0.1-2-1.4-2.7-2.7-0.7-1.4-2.6-3.8-4.3-5.3-1.6-1.5-3.5-2.7-4-2.7-0.6 0-1.2-0.7-1.5-1.5-0.3-0.9-1.1-1.5-1.8-1.5-0.6 0-3-1-5.2-2.1-2.2-1.2-4.6-2.9-5.3-3.8-0.7-0.9-1.2-2-1.2-2.4 0-0.4 1.5-0.7 3.2-0.7 1.8 0 5-0.5 7-1 2.1-0.6 3.8-1.4 3.8-1.8 0-0.4 1.9-1.7 4.2-2.9 2.4-1.2 5.9-2.9 7.8-3.6 1.9-0.8 6.2-1.8 9.5-2.2 3.3-0.4 6.4-1.1 6.8-1.6 0.4-0.5 2.2-0.9 4-0.9zm34.9 10c1 0 2.9 0.6 4.3 1.5 1.4 0.8 2.5 2.3 2.5 3.2 0.1 1-0.6 2.4-1.5 3.3-1.2 1.1-1.6 3.3-1.5 8.7 0 6.3 0.2 7.3 1.7 7.2 1 0 2.9 1.2 6.8 5.2l-19.5-0.7c-15.9-0.6-19.8-1-21.3-2.3-1-0.9-1.8-2-1.7-2.4 0-0.4 1.1-1.7 2.5-3 1.4-1.2 2.5-2.9 2.5-3.7 0-0.9 0.6-2.4 1.4-3.5 0.9-1.1 1.6-2.7 1.6-3.5 0.1-0.9 1.4-2.5 3.1-3.8 1.9-1.5 5.1-2.5 9.1-2.9 3.5-0.4 6.7-1.3 7.3-2 0.5-0.7 1.8-1.3 2.7-1.3zm458.4 19.5c0.2 0.8-0.8 3.4-2.3 5.7-1.5 2.4-3.8 5.5-5 7-1.3 1.5-2.3 3.6-2.3 4.5 0 1-0.9 2.7-2 3.8-1.1 1.1-2 2.4-2 3 0 0.5-1.8 3-4 5.5-2.2 2.4-4.2 4.1-4.5 3.7-0.3-0.4 0.2-2.1 1-3.7 0.8-1.7 1.5-3.7 1.5-4.5 0-0.9 1.3-2.7 3-4 1.6-1.4 3-3.4 3-4.5 0-1.1 0.9-2.5 2-3 1.1-0.6 2.6-2.3 3.3-3.8 0.7-1.5 2.7-4.6 4.6-7 2.2-2.9 3.4-3.7 3.7-2.7zm-451.6 127.7c4.7 0 6.8 0.3 4.7 0.4-2.2 0.2-3.9 1-4.2 1.9-0.4 1-1.9 1.5-5.3 1.5-2.6 0-6.7 0.7-9.2 1.6-3.8 1.3-10.9 1.5-83.5 1.5l-2.8 2.4c-1.5 1.4-3.6 2.5-4.7 2.5-1.1 0-2-0.4-2-0.8 0-0.4 0.4-1.2 0.8-1.8 0.4-0.6 2-1.5 3.7-1.9 1.6-0.4 9.1-1.1 16.5-1.4 7.4-0.4 14.2-1.2 15-1.7 0.8-0.5 14.3-1.2 30-1.4 19.9-0.4 29.1-0.9 30.5-1.7 1.2-0.8 5.3-1.2 10.5-1.1zm-41.3 100.9c3.2-0.1 3.2-0.1 1.5 1.9-0.9 1.1-2.5 2-3.5 2-0.9 0-2.6 0.4-3.7 1-1.1 0.5-2.9 1.4-4 2-1.1 0.5-4.8 1.3-8.3 1.6-3.5 0.4-7.2 1-8.2 1.4-1 0.4-4.5 1.4-7.7 2.3-3.2 0.9-8.1 1.7-10.8 1.7-3.7 0-5.6-0.6-7.3-2.1-1.9-1.9-2-2.3-0.7-3.4 0.8-0.7 5.1-1.8 9.5-2.4 4.4-0.7 9.2-1.2 10.7-1.1 1.6 0 5.2-0.8 8-1.7 2.9-0.9 8.9-1.9 13.3-2.3 4.4-0.4 9.5-0.8 11.2-0.9zm-77.8 157.9c0.5 0.8 2.1 5 3.5 9.2 1.4 4.3 2.6 9 2.6 10.5 0 1.5 0.7 4.8 1.5 7.3 0.8 2.4 1.5 5.5 1.5 6.7 0 1.3 0.4 2.3 1 2.3 0.5 0 1 0.9 1 2 0 1.1 0.4 2 1 2 0.5 0 1 1.2 1 2.7 0 1.5 0.6 3.7 1.4 4.8 0.9 1.1 1.5 4 1.5 6.5 0 3.3 0.6 5 2.3 6.6 1.3 1.2 3.2 3.2 4.4 4.5 1.1 1.3 3.7 4.7 5.7 7.6 2.1 2.9 4.1 5.3 4.7 5.3 0.5 0 3.1 2.2 5.7 5 2.7 2.7 5.2 5 5.8 4.9 0.5 0 2.2 1.1 3.7 2.5 1.6 1.4 3 2.6 3.3 2.6 0.3 0 1.2 0.6 2 1.5 0.8 0.8 1.5 1.9 1.5 2.5 0 0.5 0.4 1 1 1 0.5 0 1.6 0.6 2.2 1.3 0.7 0.7 3.3 2.3 5.8 3.6 2.5 1.3 6.4 3.8 8.7 5.7 2.4 1.9 4.1 3.8 3.8 4.4-0.3 0.5-1.5 1-2.8 1-1.2 0-3.1-0.7-4.2-1.5-1.1-0.8-3-1.5-4.3-1.5-1.2 0-4.1-1.1-6.5-2.5-2.8-1.7-5.7-2.5-8.7-2.5-2.5 0-4.9-0.3-5.3-0.8-0.5-0.4-3-1.3-5.5-1.9-2.6-0.7-5.9-1.3-7.5-1.3-1.5 0-2.9-0.5-3.2-1-0.3-0.6-1.4-1-2.5-1-1.1 0-2.8-0.4-3.8-0.9-0.9-0.5-4.2-1.4-7.2-2.1-3-0.6-9.8-1.6-15-2.1-5.2-0.6-12.5-2.1-16.3-3.3-3.7-1.1-6.9-2.6-7.1-3.1-0.1-0.6-0.1-2.7 0-4.8 0.2-2 0.8-3.7 1.4-3.7 0.5 0 1-0.5 1-1 0-0.6 0.6-2.5 1.4-4.3 0.8-1.8 2-6.4 2.6-10.2 0.7-3.9 1.8-7.7 2.5-8.5 0.7-0.9 1.5-4.9 1.9-9 0.3-4.2 0.9-10 1.4-13 0.4-3.1 1.3-6.4 1.9-7.5 0.6-1.1 1.4-5.4 1.8-9.5 0.4-4.2 1.5-8.9 2.4-10.5 0.9-1.7 2.2-3.4 2.8-3.8 0.7-0.4 1.3-1.5 1.3-2.5 0.1-1.5 0.2-1.5 0.9-0.2zm59.9 131.9c0.9 0 2.4 0.7 3.2 1.6 1.3 1.4 1.3 2-0.4 4.8-1.1 1.7-3.3 4.3-4.8 5.7-1.7 1.5-2.8 3.5-2.8 5 0 1.3-0.9 3.4-2 4.5-1.2 1.2-2.6 1.7-3.5 1.2-1-0.5-1.5-2.3-1.5-5.5 0-2.8 0.7-5.9 1.8-7.7 1-1.7 3.3-4.5 5.1-6.3 1.8-1.8 4-3.2 4.9-3.3zm-78.5 15c1.2 0 4.2 1.7 6.5 3.8 3.4 2.9 4.3 4.3 4 6.3-0.2 1.4-1 2.6-2.1 2.7-0.9 0.2-2-0.5-2.3-1.5-0.3-0.9-2.5-3.3-4.9-5.2-2.4-2-4.1-4.1-3.8-4.8 0.2-0.7 1.4-1.2 2.6-1.3z"/>
</svg>