<svg xmlns="http://www.w3.org/2000/svg" viewBox="0 0 181.96 180.77"><defs><style>.cls-1{fill:#ee572c;}</style></defs><g id="Layer_2" data-name="Layer 2"><g id="Layer_1-2" data-name="Layer 1"><path class="cls-1" d="M94.53,117.56a5.87,5.87,0,0,1-3.07.28A3.77,3.77,0,0,1,89.52,112c.1-.15.18-.3.41-.67-1.7,0-3.26,0-4.31-1.54a4,4,0,0,1-2.05,4.88c-1.52.86-2.73.53-4.6-.91a7.77,7.77,0,0,1-.39,2.78,5,5,0,0,1-2.23,1.93,3.55,3.55,0,0,1-3.53-5.85c1.52-1.46,3.05-1.43,5.58.14a4.34,4.34,0,0,1,.9-4.31,4.51,4.51,0,0,1-4.56-1.64l0,0c-.69-1.91-.75-3.7,1.08-5.2-1.9.3-3.58.13-5-1.85.52,2.53.31,4.55-2.12,5.41a3.87,3.87,0,0,1-4.26-1.46c-.9-1.31-.61-3.15.69-4.86a8.85,8.85,0,0,1-2.93-.42,4.26,4.26,0,0,1-1.87-2.24A3.39,3.39,0,0,1,62.18,92a3.61,3.61,0,0,1,4.42,1c1.12,1.39.87,3.14-.8,5.36,1.86-.4,3.59-.43,4.71,1.24.15-1.39.29-2.77.44-4.3a3.89,3.89,0,0,1-4-2.63,4,4,0,0,1,0-2.6c1-2.53,3.1-3,6-1.69l1-3.55-3.55-1.11c-.1,1.34.1,3.16-1.7,3.94a5.57,5.57,0,0,1-2.9.43c-2-.29-3.38-2.4-2.39-5,.76-2,2.63-2.49,5.8-1.43l1.16-3.78c-1.9.12-3.77-.37-4.35-2.66a3.37,3.37,0,0,1,1.73-4.09c1.72-.88,3.36-.55,5,1.22-.66-2.57-.16-4.33,2.09-5.26a3.51,3.51,0,0,1,3.82.81c1.53,1.7,1.33,3.49,0,5.32a14.4,14.4,0,0,1,2.2,0,11.51,11.51,0,0,1,2,.72c-.31-1.82.62-3.07,1.77-4.22l0,0a13.46,13.46,0,0,1,3.08-.21,7.32,7.32,0,0,1,2.21,1.24,3.7,3.7,0,0,1,1.57-4.58c1.69-1.08,3.31-.75,5,.82-.32-2.53.25-4.37,2.54-4.92a3.46,3.46,0,0,1,4.12,1.7c.75,1.36.44,3.09-1,4.74,2.22-.5,4,0,4.93,1.86.82,1.67,1,3-1.41,5.07,2.06-.81,3.8-.43,5,1.4,1,1.49.84,2.55-.32,4.59a9.2,9.2,0,0,1,2.56.54,4.84,4.84,0,0,1,1.87,1.86,3.5,3.5,0,0,1-.87,4.27c-1.39,1.3-2.71,1.36-5,.24l-.92,3.77a4.16,4.16,0,0,1,4,2.12c1,1.7.52,3.17-.89,4.74,2.65-.34,4.4.46,5,3a3.68,3.68,0,0,1-6.48,2.8c.42,2.39-.2,4.13-2.34,5a3.61,3.61,0,0,1-4.16-1c-1.23-1.4-1.27-2.91-.15-5L99.31,103l-1.16,3.73a3.56,3.56,0,0,1,4.16,1.78c1.06,1.83.69,3.56-1.06,5,3-.23,4.44.52,5.06,2.49a3.63,3.63,0,0,1-1.64,3.95,3.4,3.4,0,0,1-4.3-.49C99,118,99,116.35,100.58,114a4.42,4.42,0,0,1-4.43-.9c.67,2-.47,3.29-1.65,4.53ZM72.85,72.37c.18,1.87.52,3.52-1.09,4.81,1.92-.69,3.32.11,4.66,1.3a4.94,4.94,0,0,1,1-4.46C75.52,74.32,74,74,72.85,72.37Zm24.47-4.23-.81,3.8,3.18.79,1.2-3.6C99.58,69.07,98.06,69.48,97.32,68.14Zm6.05,11.2,1.57-3.69a4.13,4.13,0,0,1-3.71-.59l-.92,3.59Zm-7,28.42L92.88,107l-1.39,3.61a4.06,4.06,0,0,1,3.9,1A3.93,3.93,0,0,1,96.37,107.76Zm-19-27.7-1.15,3.48,3.33.69,1.12-3.16Zm28,22.25,3.13,1.12.83-3.36L106,99.12Zm-4.09-6.46,3.17.61,1.25-3.26-3.47-.62ZM81,107.59c1.35-.52,2.61.07,3.76,1.06.2-1.27.4-2.47.57-3.53l-3.14-.79Zm9-32.15,3.16,1.15.73-3.07-3.49-1.44Zm18.37,7.36L105,82.08l-.77,3.17,3,.68Zm-10.5-2.88-3.23-.71-.92,3,3.1.86ZM95.17,99.47l2.89,1.16.66-3.39-3.1-.58Zm-17.84,1.25,3.1.61.89-3L78.4,97.5ZM84,76.34,83.3,79.5l2.8.78.93-3.1Zm-9.5,14.53c-.31,1-.62,2.08-.9,3l2.88.67,1-2.9ZM91.2,104.12l.62-2.72-2.91-.75-1,2.81Zm10.19-17.26-3-.89-.5,2.77,2.87,1.07ZM87.26,97.6l.47-2.84-2.61-.89-.93,2.77Zm-6.1-10.68-.68,3,2.74.76.65-2.51Zm6.9-3.73-.52,2.68,2.32.7.8-2.61Zm6.41,7.47-2.4-.33-.83,2.52,2.5.61Z"/><path class="cls-1" d="M111.85,92.29a3.36,3.36,0,0,1,3.5-3.7A3.62,3.62,0,1,1,115,95.8,3.26,3.26,0,0,1,111.85,92.29Z"/><path class="cls-1" d="M89.3,118a3.45,3.45,0,0,1-3.84,3.6,3.58,3.58,0,0,1,.37-7.14A3.47,3.47,0,0,1,89.3,118Z"/><path class="cls-1" d="M74.74,106.77c.23,1.51.5,3-.81,4.26a3.74,3.74,0,0,1-4.12.73,3.58,3.58,0,0,1,1.11-6.8c1.75-.28,2.76.81,3.84,1.84Z"/><path class="cls-1" d="M84.52,69.77c-1.36.21-2.71.55-3.93-.48a3.77,3.77,0,0,1-1-4.59,3.72,3.72,0,0,1,4.5-1.63,3.59,3.59,0,0,1,2.12,4.28,10.47,10.47,0,0,1-1.73,2.44Z"/><path class="cls-1" d="M122.7,98.75a3.7,3.7,0,0,1-3.65,3.58,3.83,3.83,0,0,1-3.46-3.57,3.56,3.56,0,1,1,7.11,0Z"/><path class="cls-1" d="M109.62,109.57a3.69,3.69,0,0,1,3.59,3.52,3.91,3.91,0,0,1-3.55,3.65,4.06,4.06,0,0,1-3.63-3.61A3.82,3.82,0,0,1,109.62,109.57Z"/><path class="cls-1" d="M63.52,88.41A3.8,3.8,0,0,1,60,92a4,4,0,0,1-3.61-3.59A3.89,3.89,0,0,1,60,84.84,3.77,3.77,0,0,1,63.52,88.41Z"/><path class="cls-1" d="M114,68.35a3.83,3.83,0,0,1-3.6,3.57,3.6,3.6,0,1,1,.07-7.19A3.82,3.82,0,0,1,114,68.35Z"/><path class="cls-1" d="M92.85,62.65a3.84,3.84,0,0,1-3.59,3.58,4,4,0,0,1-3.59-3.64A3.93,3.93,0,0,1,89.32,59,3.77,3.77,0,0,1,92.85,62.65Z"/><path class="cls-1" d="M121.61,81.64a3.77,3.77,0,0,1-3.55,3.6,3.92,3.92,0,0,1-3.57-3.62,3.86,3.86,0,0,1,3.6-3.56A3.67,3.67,0,0,1,121.61,81.64Z"/><path class="cls-1" d="M94.5,117.58c1.46-.45,2.88-.71,4.17.48a3.44,3.44,0,0,1,.48,4.8,3.53,3.53,0,0,1-5.61-4.28,11.74,11.74,0,0,1,1-1Z"/><path class="cls-1" d="M117.82,75.19a3.88,3.88,0,0,1-3.65,3.52,3.93,3.93,0,0,1-3.47-3.6,3.56,3.56,0,1,1,7.12.08Z"/><path class="cls-1" d="M62.64,74.56a3.63,3.63,0,0,1,3.58,3.5,3.79,3.79,0,0,1-3.53,3.61,3.86,3.86,0,0,1-3.6-3.57A3.69,3.69,0,0,1,62.64,74.56Z"/><path class="cls-1" d="M116.15,105.82a3.51,3.51,0,0,1,3.56,3.52,3.58,3.58,0,0,1-3.48,3.5,3.46,3.46,0,0,1-3.57-3.49A3.4,3.4,0,0,1,116.15,105.82Z"/><path class="cls-1" d="M121.83,91.91a3.42,3.42,0,0,1-3.47-3.44,3.5,3.5,0,0,1,3.48-3.59,3.65,3.65,0,0,1,3.58,3.53A3.56,3.56,0,0,1,121.83,91.91Z"/><path class="cls-1" d="M96.13,55.3a4,4,0,0,1,3.5,3.6,4.11,4.11,0,0,1-3.56,3.44,4,4,0,0,1-3.53-3.56A3.92,3.92,0,0,1,96.13,55.3Z"/><path class="cls-1" d="M79.24,125.33a3.52,3.52,0,1,1-.07-7,3.52,3.52,0,1,1,.07,7Z"/><path class="cls-1" d="M61,102.29a4,4,0,0,1,3.6,3.48,4.18,4.18,0,0,1-3.54,3.57,4.13,4.13,0,0,1-3.59-3.51A4,4,0,0,1,61,102.29Z"/><path class="cls-1" d="M72,67.23a4.08,4.08,0,0,1-3.43-3.66,4.19,4.19,0,0,1,3.69-3.42c1.63.1,3.51,2.12,3.41,3.68A4,4,0,0,1,72,67.23Z"/><path class="cls-1" d="M57.24,95.54a3.5,3.5,0,0,1,3.45,3.52,3.54,3.54,0,0,1-3.55,3.45A3.78,3.78,0,0,1,53.73,99,3.7,3.7,0,0,1,57.24,95.54Z"/><path class="cls-1" d="M78.92,63.41a3.5,3.5,0,0,1,0-7,3.71,3.71,0,0,1,3.55,3.49C82.61,61.63,80.67,63.4,78.92,63.41Z"/><path class="cls-1" d="M68.35,112.38a3.76,3.76,0,0,1-3.47,3.43,3.49,3.49,0,1,1,0-7A3.76,3.76,0,0,1,68.35,112.38Z"/><path class="cls-1" d="M106.62,58.34a3.49,3.49,0,1,1,0,7,3.84,3.84,0,0,1-3.47-3.45A3.71,3.71,0,0,1,106.62,58.34Z"/><path class="cls-1" d="M89.49,128a3.49,3.49,0,0,1,0-7c1.65,0,3.63,1.78,3.51,3.39A3.64,3.64,0,0,1,89.49,128Z"/><path class="cls-1" d="M62.17,67.47a3.5,3.5,0,0,1,7,0c.23,1.58-1.86,3.56-3.53,3.54A3.79,3.79,0,0,1,62.17,67.47Z"/><path class="cls-1" d="M56.3,78.43a3.52,3.52,0,0,1,3.25,3.67c.08,1.67-1.9,3.39-3.57,3.27a3.77,3.77,0,0,1-3.31-3.6A3.69,3.69,0,0,1,56.3,78.43Z"/><path class="cls-1" d="M88.94,56a3.69,3.69,0,0,1-3.4,3.5A3.73,3.73,0,0,1,82,56.09a3.5,3.5,0,0,1,7-.06Z"/><path class="cls-1" d="M72.11,119.36a3.84,3.84,0,0,1-3.46,3.23,3.48,3.48,0,1,1,0-7A3.72,3.72,0,0,1,72.11,119.36Z"/><path class="cls-1" d="M128.93,94.92c0,2.17-1.2,3.31-3.41,3.28-2,0-3.15-1.28-3.14-3.37a3,3,0,0,1,3.34-3.19A3,3,0,0,1,128.93,94.92Z"/><path class="cls-1" d="M120.75,67.79a3,3,0,0,1,3.34,3.27,3.11,3.11,0,0,1-3.39,3.28c-2,0-3.21-1.32-3.18-3.45A2.9,2.9,0,0,1,120.75,67.79Z"/><path class="cls-1" d="M106.67,120.47a3,3,0,0,1,3.25,3.32,3,3,0,0,1-3.39,3.24c-1.93,0-3.11-1.36-3.19-3.39C103.28,121.88,105,120.11,106.67,120.47Z"/><path class="cls-1" d="M119.7,105.56a3,3,0,0,1,3.29-3.32,3,3,0,0,1,3.26,3c0,2.28-1.18,3.54-3.31,3.56A3,3,0,0,1,119.7,105.56Z"/><path class="cls-1" d="M124.54,74.55a3.27,3.27,0,0,1,3.32,3.2,3.35,3.35,0,0,1-3.27,3.38,3.31,3.31,0,0,1-3.3-3.23A3.21,3.21,0,0,1,124.54,74.55Z"/><path class="cls-1" d="M102.62,58.31A3.35,3.35,0,0,1,99.25,55a3.33,3.33,0,1,1,6.66,0A3.35,3.35,0,0,1,102.62,58.31Z"/><path class="cls-1" d="M75.74,125.65a3.31,3.31,0,0,1-3.36,3.29,3.33,3.33,0,0,1,.05-6.65A3.36,3.36,0,0,1,75.74,125.65Z"/><path class="cls-1" d="M83,131.63a3.24,3.24,0,0,1-3.26-3.36,3.29,3.29,0,0,1,6.58.06A3.25,3.25,0,0,1,83,131.63Z"/><path class="cls-1" d="M125.38,84.34a3.29,3.29,0,0,1,6.58,0,3.35,3.35,0,0,1-3.24,3.31A3.39,3.39,0,0,1,125.38,84.34Z"/><path class="cls-1" d="M117,67.79a3.27,3.27,0,0,1-3.3-3.32A3.42,3.42,0,0,1,117,61.23a3.29,3.29,0,0,1,3.26,3.26A3.2,3.2,0,0,1,117,67.79Z"/><path class="cls-1" d="M95.52,52.3a3.18,3.18,0,0,1-3.3,3.28,3.41,3.41,0,0,1-3.28-3.29A3.45,3.45,0,0,1,92.22,49,3.23,3.23,0,0,1,95.52,52.3Z"/><path class="cls-1" d="M56.74,92.52a3.31,3.31,0,0,1-3.37,3.27,3.3,3.3,0,0,1,.05-6.59A3.31,3.31,0,0,1,56.74,92.52Z"/><path class="cls-1" d="M116.71,119.7a3.2,3.2,0,0,1-3.24,3.23,3.36,3.36,0,0,1-3.33-3.34,3.43,3.43,0,0,1,3.32-3.25A3.23,3.23,0,0,1,116.71,119.7Z"/><path class="cls-1" d="M103.39,127.54a3.17,3.17,0,0,1-3.21,3.26,3.39,3.39,0,0,1-3.36-3.31,3.46,3.46,0,0,1,3.3-3.28A3.24,3.24,0,0,1,103.39,127.54Z"/><path class="cls-1" d="M120,112.59a3.21,3.21,0,0,1,3.22,3.36,3.29,3.29,0,0,1-6.58-.13A3.2,3.2,0,0,1,120,112.59Z"/><path class="cls-1" d="M62.13,71.23a3.21,3.21,0,0,1-3.24,3.36,3.29,3.29,0,1,1,0-6.58A3.27,3.27,0,0,1,62.13,71.23Z"/><path class="cls-1" d="M61.91,57.73a3.37,3.37,0,0,1,3.2,3.35A3.28,3.28,0,0,1,58.56,61,3.44,3.44,0,0,1,61.91,57.73Z"/><path class="cls-1" d="M71.64,57.16a3.27,3.27,0,1,1-3.32-3.24A3.42,3.42,0,0,1,71.64,57.16Z"/><path class="cls-1" d="M129.44,105a3.42,3.42,0,0,1-3.26-3.3,3.54,3.54,0,0,1,3.26-3.24,3.42,3.42,0,0,1,3.27,3.3A3.3,3.3,0,0,1,129.44,105Z"/><path class="cls-1" d="M113.35,54.46a3.27,3.27,0,0,1-.3,6.54,3.27,3.27,0,1,1,.3-6.54Z"/><path class="cls-1" d="M49.39,82.43A3.28,3.28,0,1,1,49.27,89a3.52,3.52,0,0,1-3.2-3.29A3.47,3.47,0,0,1,49.39,82.43Z"/><path class="cls-1" d="M75.17,49.85a3.41,3.41,0,0,1,3.26,3.31,3.5,3.5,0,0,1-3.35,3.25,3.55,3.55,0,0,1-3.21-3.29A3.46,3.46,0,0,1,75.17,49.85Z"/><path class="cls-1" d="M57.48,109.6a3.3,3.3,0,0,1-3.27,3.25A3.45,3.45,0,0,1,51,109.64a3.53,3.53,0,0,1,3.27-3.34A3.4,3.4,0,0,1,57.48,109.6Z"/><path class="cls-1" d="M58.05,119.39a3.43,3.43,0,0,1-3.25-3.2,3.4,3.4,0,0,1,3.2-3.35,3.28,3.28,0,1,1,0,6.55Z"/><path class="cls-1" d="M93.37,128.08a3.3,3.3,0,0,1,3.23,3.29,3.4,3.4,0,0,1-3.33,3.23,3.54,3.54,0,0,1-3.22-3.27A3.47,3.47,0,0,1,93.37,128.08Z"/><path class="cls-1" d="M49.1,75a3.37,3.37,0,0,1,3.25-3.17,3.26,3.26,0,1,1-.06,6.52A3.37,3.37,0,0,1,49.1,75Z"/><path class="cls-1" d="M50.36,106.06a3.48,3.48,0,0,1-3.18-3.27,3.55,3.55,0,0,1,3.24-3.27,3.51,3.51,0,0,1,3.29,3.32A3.45,3.45,0,0,1,50.36,106.06Z"/><path class="cls-1" d="M126.7,115.27a3.4,3.4,0,0,1-3.22-3.33,3.27,3.27,0,0,1,6.54.1A3.39,3.39,0,0,1,126.7,115.27Z"/><path class="cls-1" d="M98.74,45.27a3.42,3.42,0,0,1,3.31,3.16,3.63,3.63,0,0,1-3.29,3.34,3.49,3.49,0,0,1-3.23-3.38A3.41,3.41,0,0,1,98.74,45.27Z"/><path class="cls-1" d="M76.19,135.6A3.3,3.3,0,0,1,73,132.5a3.36,3.36,0,0,1,3.23-3.3,3.54,3.54,0,0,1,3.3,3.19A3.34,3.34,0,0,1,76.19,135.6Z"/><path class="cls-1" d="M58.94,122.92a3.3,3.3,0,0,1,3.12-3.26,3.39,3.39,0,0,1,3.28,3.16,3.48,3.48,0,0,1-3.23,3.35A3.29,3.29,0,0,1,58.94,122.92Z"/><path class="cls-1" d="M81.73,46.12a3.34,3.34,0,0,1,3.21,3.22,3.59,3.59,0,0,1-3.39,3.23,3.45,3.45,0,0,1-3.11-3.36A3.27,3.27,0,0,1,81.73,46.12Z"/><path class="cls-1" d="M132.42,94.35a3.37,3.37,0,0,1-3.21-3.1,3.41,3.41,0,0,1,3.21-3.35,3.53,3.53,0,0,1,3.3,3.29A3.4,3.4,0,0,1,132.42,94.35Z"/><path class="cls-1" d="M127.62,64.06c1.54,0,3.33,1.6,3.2,3-.19,2.16-1.5,3.36-3.17,3.36a3.31,3.31,0,0,1-3.29-3.1A3.25,3.25,0,0,1,127.62,64.06Z"/><path class="cls-1" d="M55.26,61.58a3.39,3.39,0,0,1,3,3.29,3.23,3.23,0,0,1-6.45-.18A3.37,3.37,0,0,1,55.26,61.58Z"/><path class="cls-1" d="M110.62,127a3.19,3.19,0,0,1,.23,6.38c-1.52.05-3.37-1.47-3.33-2.86A3.27,3.27,0,0,1,110.62,127Z"/><path class="cls-1" d="M112.55,51.19a3.2,3.2,0,1,1-6.39-.26A3.4,3.4,0,0,1,109.45,48,3.18,3.18,0,0,1,112.55,51.19Z"/><path class="cls-1" d="M86.56,138.4a3.65,3.65,0,0,1-2.89-3.33,3.17,3.17,0,1,1,6.34.08A3.48,3.48,0,0,1,86.56,138.4Z"/><path class="cls-1" d="M46.73,93.14a3.22,3.22,0,0,1,3.1,3.17,3.2,3.2,0,1,1-6.39-.08A3.26,3.26,0,0,1,46.73,93.14Z"/><path class="cls-1" d="M101,134c0-2,1-3,3-3A2.82,2.82,0,0,1,107,133.5c0,2.13-1,3.59-2.54,3.59C102,137.1,101,136.17,101,134Z"/><path class="cls-1" d="M131.38,77a2.77,2.77,0,0,1-3-2.65,2.92,2.92,0,0,1,3.1-3.39c1.79.07,3,1.08,3,2.75C134.4,76,133.49,77,131.38,77Z"/><path class="cls-1" d="M123.81,63.67q-3.07.06-3.11-3a2.76,2.76,0,0,1,2.39-3c2.2-.06,3.66.9,3.69,2.43C126.83,62.61,126,63.64,123.81,63.67Z"/><path class="cls-1" d="M117.22,129.43c-1.7,0-3-1-3-2.45,0-2.64.79-3.52,3.24-3.54a2.61,2.61,0,0,1,2.76,2.69C120.26,128.39,119.32,129.41,117.22,129.43Z"/><path class="cls-1" d="M62.9,129.46a3,3,0,0,1,3-3.07,3.06,3.06,0,0,1,3.07,3,3,3,0,0,1-3,3A2.91,2.91,0,0,1,62.9,129.46Z"/><path class="cls-1" d="M91.49,45.59a2.93,2.93,0,0,1-3.09,2.95,3,3,0,0,1-3-3.11,3.07,3.07,0,0,1,3.13-3A3,3,0,0,1,91.49,45.59Z"/><path class="cls-1" d="M133.14,105.22a3,3,0,0,1,3.15,3.18,3.08,3.08,0,0,1-3,2.87,3,3,0,0,1-.13-6Z"/><path class="cls-1" d="M68.36,46.53a3,3,0,0,1,3.07-3,3,3,0,1,1-3.07,3Z"/><path class="cls-1" d="M127,122.6a3,3,0,1,1-3.06-3A3,3,0,0,1,127,122.6Z"/><path class="cls-1" d="M42.82,92.5a3,3,0,1,1,3-3C45.94,90.85,44.36,92.78,42.82,92.5Z"/><path class="cls-1" d="M119.83,56.91a3,3,0,1,1,3.17-3A3,3,0,0,1,119.83,56.91Z"/><path class="cls-1" d="M138.16,80.5a3,3,0,1,1-3-3A3,3,0,0,1,138.16,80.5Z"/><path class="cls-1" d="M97.35,134.89a2.9,2.9,0,0,1,3.1,2.94,3,3,0,0,1-6,0A2.93,2.93,0,0,1,97.35,134.89Z"/><path class="cls-1" d="M64.74,47.42a2.83,2.83,0,0,1,2.8,2.86,3,3,0,1,1-2.8-2.86Z"/><path class="cls-1" d="M51.39,122.91a3,3,0,0,1-2.89-3,3,3,0,0,1,3-3,3,3,0,1,1-.16,6Z"/><path class="cls-1" d="M44.74,113.38a2.93,2.93,0,0,1,2.84-3,3,3,0,0,1,.41,6A2.93,2.93,0,0,1,44.74,113.38Z"/><path class="cls-1" d="M51.53,68.52a2.88,2.88,0,0,1-3.1,3,3,3,0,1,1,3.1-3Z"/><path class="cls-1" d="M48.53,79.11a3,3,0,0,1-3.08,3.1,3,3,0,1,1,3.08-3.1Z"/><path class="cls-1" d="M139.25,97.86a3,3,0,0,1-6-.08,2.85,2.85,0,0,1,3-3.11A2.9,2.9,0,0,1,139.25,97.86Z"/><path class="cls-1" d="M102.59,44.49a3,3,0,0,1,3-3.07,3,3,0,1,1-.08,6A3.06,3.06,0,0,1,102.59,44.49Z"/><path class="cls-1" d="M66.78,136.19a2.92,2.92,0,0,1,3.07-3,3,3,0,1,1-.26,6A3,3,0,0,1,66.78,136.19Z"/><path class="cls-1" d="M127.61,118.85a2.87,2.87,0,0,1,2.81-3,3,3,0,0,1,3.12,2.94,3,3,0,0,1-2.86,3A2.89,2.89,0,0,1,127.61,118.85Z"/><path class="cls-1" d="M78,45.74a2.87,2.87,0,0,1-3.06-3,3,3,0,1,1,5.93,0A2.89,2.89,0,0,1,78,45.74Z"/><path class="cls-1" d="M93.59,141.7a2.88,2.88,0,0,1-2.9,2.9,3,3,0,0,1-3.06-3,3.11,3.11,0,0,1,3-2.93A2.94,2.94,0,0,1,93.59,141.7Z"/><path class="cls-1" d="M118.88,47.41a3,3,0,0,1-3.1,3,2.92,2.92,0,0,1-2.84-3,3,3,0,0,1,3-3A3.08,3.08,0,0,1,118.88,47.41Z"/><path class="cls-1" d="M41,106.63a2.88,2.88,0,0,1,3-3,3.07,3.07,0,0,1,2.92,3,3,3,0,0,1-3.1,3A2.85,2.85,0,0,1,41,106.63Z"/><path class="cls-1" d="M52.38,126.68a2.92,2.92,0,0,1,2.87-2.93,3,3,0,0,1,3.07,3,3,3,0,0,1-2.91,2.94A2.92,2.92,0,0,1,52.38,126.68Z"/><path class="cls-1" d="M139.08,84.38a3,3,0,1,1-3.1,3A3,3,0,0,1,139.08,84.38Z"/><path class="cls-1" d="M61,54.25a3,3,0,0,1-6-.11A3.06,3.06,0,0,1,58,51.2,3,3,0,0,1,61,54.25Z"/><path class="cls-1" d="M97.94,41.73a2.91,2.91,0,0,1-2.88,2.93,3,3,0,0,1-3.07-3,3.09,3.09,0,0,1,2.9-3A3,3,0,0,1,97.94,41.73Z"/><path class="cls-1" d="M80.06,136a3,3,0,0,1,3,2.86,3,3,0,0,1-3,3.07A3,3,0,0,1,77.09,139,2.88,2.88,0,0,1,80.06,136Z"/><path class="cls-1" d="M43.08,100.06a3.13,3.13,0,0,1-3,3,3.28,3.28,0,0,1-3-2.93,3,3,0,0,1,3-3A3,3,0,0,1,43.08,100.06Z"/><path class="cls-1" d="M139.88,107.4a3.19,3.19,0,0,1-2.83-3,3.35,3.35,0,0,1,3.19-3,3,3,0,1,1-.36,5.94Z"/><path class="cls-1" d="M39.23,80A3.17,3.17,0,0,1,42,83a3.26,3.26,0,0,1-3.2,3A3.16,3.16,0,0,1,36,83,3.22,3.22,0,0,1,39.23,80Z"/><path class="cls-1" d="M54.21,57.82a3,3,0,1,1-5.94.37,3.34,3.34,0,0,1,3-3.18A3.11,3.11,0,0,1,54.21,57.82Z"/><path class="cls-1" d="M131.12,63.42a3.38,3.38,0,0,1,3-3,3.29,3.29,0,0,1,3,3.08,3.4,3.4,0,0,1-3,2.93A3.13,3.13,0,0,1,131.12,63.42Z"/><path class="cls-1" d="M114.54,140a3.25,3.25,0,0,1-3-2.92,3.34,3.34,0,0,1,3-3,3.22,3.22,0,0,1,3,2.89A3.15,3.15,0,0,1,114.54,140Z"/><path class="cls-1" d="M124,132.92a3.16,3.16,0,0,1-2.9,3,3.23,3.23,0,0,1-3-2.93,3.34,3.34,0,0,1,2.93-3A3.27,3.27,0,0,1,124,132.92Z"/><path class="cls-1" d="M140.83,70.21a3.2,3.2,0,0,1-2.89,3,3,3,0,1,1,2.89-3Z"/><path class="cls-1" d="M38.82,72.45a3,3,0,0,1,2.87-3,3.28,3.28,0,0,1,3.05,2.89,3.36,3.36,0,0,1-2.94,3A3.13,3.13,0,0,1,38.82,72.45Z"/><path class="cls-1" d="M81.71,39.05a3,3,0,0,1,3.13-2.95,3.13,3.13,0,0,1,2.76,3,3.12,3.12,0,0,1-3,2.86A3.16,3.16,0,0,1,81.71,39.05Z"/><path class="cls-1" d="M130.61,54a2.93,2.93,0,0,1-.53,5.83c-1.31,0-2.69-1.55-2.7-3A3.2,3.2,0,0,1,130.61,54Z"/><path class="cls-1" d="M59.05,136.18a3.29,3.29,0,0,1-2.86-3,3.07,3.07,0,0,1,2.93-2.82,3.15,3.15,0,0,1,2.91,3A3.1,3.1,0,0,1,59.05,136.18Z"/><path class="cls-1" d="M104.81,140.74a3.62,3.62,0,0,1,3-2.86,3.71,3.71,0,0,1,2.9,3c0,1.29-1.85,3-3.07,2.92A3.53,3.53,0,0,1,104.81,140.74Z"/><path class="cls-1" d="M139.85,93.94a2.94,2.94,0,0,1,5.88-.22c.09,1.2-1.6,3-2.9,3.1C141.71,96.9,139.9,95.15,139.85,93.94Z"/><path class="cls-1" d="M140.3,115a2.95,2.95,0,1,1-5.89-.08,2.95,2.95,0,0,1,5.89.08Z"/><path class="cls-1" d="M73.45,145.43a2.49,2.49,0,0,1-2.66-2.75A2.58,2.58,0,0,1,73.66,140a2.53,2.53,0,0,1,2.58,2.84A2.45,2.45,0,0,1,73.45,145.43Z"/><path class="cls-1" d="M60.78,46.59a2.46,2.46,0,0,1-2.72-2.7,2.49,2.49,0,0,1,2.69-2.75,2.59,2.59,0,0,1,2.76,2.73A2.53,2.53,0,0,1,60.78,46.59Z"/><path class="cls-1" d="M101.3,141.91a2.73,2.73,0,0,1-.09,5.46,2.51,2.51,0,0,1-2.68-2.84A2.46,2.46,0,0,1,101.3,141.91Z"/><path class="cls-1" d="M104.47,38a2.49,2.49,0,0,1-2.76,2.66A2.6,2.6,0,0,1,99,37.87a2.54,2.54,0,0,1,2.86-2.67A2.45,2.45,0,0,1,104.47,38Z"/><path class="cls-1" d="M36,96a2.46,2.46,0,0,1-2.68-2.73,2.51,2.51,0,0,1,2.72-2.72,2.59,2.59,0,0,1,2.72,2.77A2.5,2.5,0,0,1,36,96Z"/><path class="cls-1" d="M129.18,50.12a2.5,2.5,0,0,1-2.69,2.76,2.61,2.61,0,0,1-2.75-2.74,2.52,2.52,0,0,1,2.73-2.72A2.44,2.44,0,0,1,129.18,50.12Z"/><path class="cls-1" d="M144.68,76.73A2.48,2.48,0,0,1,142,79.44a2.53,2.53,0,0,1-2.74-2.81,2.73,2.73,0,0,1,5.46.1Z"/><path class="cls-1" d="M47.44,61.76a2.5,2.5,0,0,1-2.78,2.76A2.59,2.59,0,0,1,42,62a2.63,2.63,0,0,1,2.72-2.89A2.52,2.52,0,0,1,47.44,61.76Z"/><path class="cls-1" d="M112,43.33a2.55,2.55,0,0,1-2.69-2.53,2.63,2.63,0,0,1,2.8-2.92,2.5,2.5,0,0,1,2.65,2.79A2.47,2.47,0,0,1,112,43.33Z"/><path class="cls-1" d="M127.7,131.87a2.56,2.56,0,0,1-2.61-2.63,2.61,2.61,0,0,1,2.77-2.83,2.73,2.73,0,1,1-.16,5.46Z"/><path class="cls-1" d="M84.16,143a2.51,2.51,0,0,1,2.68,2.76,2.72,2.72,0,1,1-5.44-.08A2.51,2.51,0,0,1,84.16,143Z"/><path class="cls-1" d="M149.28,100.62a2.7,2.7,0,0,1-2.74,2.76,2.81,2.81,0,0,1-2.71-2.73,2.7,2.7,0,0,1,2.68-2.7A2.57,2.57,0,0,1,149.28,100.62Z"/><path class="cls-1" d="M38,76.17a2.74,2.74,0,0,1-2.65,2.76,2.7,2.7,0,0,1-2.79-2.7,2.65,2.65,0,0,1,2.74-2.75A2.69,2.69,0,0,1,38,76.17Z"/><path class="cls-1" d="M134.44,122.66a2.58,2.58,0,0,1,2.61,2.74,2.7,2.7,0,0,1-2.72,2.69,2.81,2.81,0,0,1-2.72-2.74A2.69,2.69,0,0,1,134.44,122.66Z"/><path class="cls-1" d="M60.25,139.87a2.57,2.57,0,0,1,2.8-2.55,2.62,2.62,0,0,1,2.61,2.78,2.78,2.78,0,0,1-2.78,2.66A2.72,2.72,0,0,1,60.25,139.87Z"/><path class="cls-1" d="M41,114.51a2.69,2.69,0,1,1-2.76,2.74A2.64,2.64,0,0,1,41,114.51Z"/><path class="cls-1" d="M91.18,37.87a2.55,2.55,0,0,1-2.7-2.73,2.68,2.68,0,0,1,2.69-2.69,2.78,2.78,0,0,1,2.75,2.79A2.68,2.68,0,0,1,91.18,37.87Z"/><path class="cls-1" d="M47.43,123.76a2.57,2.57,0,0,1-2.7,2.65A2.6,2.6,0,0,1,42,123.73a2.7,2.7,0,1,1,5.39,0Z"/><path class="cls-1" d="M54.05,45a2.62,2.62,0,0,1,2.65,2.73,2.69,2.69,0,0,1-2.84,2.67,2.64,2.64,0,0,1-2.58-2.81A2.58,2.58,0,0,1,54.05,45Z"/><path class="cls-1" d="M34.45,110.37a2.62,2.62,0,0,1,2.81-2.67,2.72,2.72,0,0,1,2.61,2.81,2.69,2.69,0,0,1-2.8,2.59A2.59,2.59,0,0,1,34.45,110.37Z"/><path class="cls-1" d="M145.77,86.21a2.57,2.57,0,0,1-2.71-2.75,2.65,2.65,0,0,1,2.75-2.64,2.62,2.62,0,0,1,2.64,2.73A2.55,2.55,0,0,1,145.77,86.21Z"/><path class="cls-1" d="M67.3,37.12A2.62,2.62,0,0,1,70,39.8a2.71,2.71,0,0,1-5.42.07A2.61,2.61,0,0,1,67.3,37.12Z"/><path class="cls-1" d="M122.76,40.89a3,3,0,0,1,2.65,2.71,2.72,2.72,0,1,1-5.44,0A2.91,2.91,0,0,1,122.76,40.89Z"/><path class="cls-1" d="M141.17,110.88a2.86,2.86,0,0,1,2.8-2.64,2.73,2.73,0,0,1-.16,5.45A2.91,2.91,0,0,1,141.17,110.88Z"/><path class="cls-1" d="M48.84,133.2a2.91,2.91,0,0,1-2.76-2.69,3,3,0,0,1,2.76-2.74,3,3,0,0,1,2.69,2.79A2.88,2.88,0,0,1,48.84,133.2Z"/><path class="cls-1" d="M94.38,151.13a2.84,2.84,0,0,1-2.64-2.78,3,3,0,0,1,2.81-2.66,3.08,3.08,0,0,1,2.63,2.77A2.94,2.94,0,0,1,94.38,151.13Z"/><path class="cls-1" d="M74.13,33.27A3,3,0,0,1,76.78,36a2.9,2.9,0,0,1-2.71,2.74A2.83,2.83,0,0,1,71.38,36,2.9,2.9,0,0,1,74.13,33.27Z"/><path class="cls-1" d="M149.6,92.74A2.9,2.9,0,0,1,146.86,90a3.07,3.07,0,0,1,2.68-2.72,3.12,3.12,0,0,1,2.77,2.77A3,3,0,0,1,149.6,92.74Z"/><path class="cls-1" d="M36,103.94a3,3,0,0,1-2.69,2.69,3.11,3.11,0,0,1-2.75-2.77,3,3,0,0,1,2.84-2.66A2.91,2.91,0,0,1,36,103.94Z"/><path class="cls-1" d="M50.19,51.44a3.09,3.09,0,0,1-2.74,2.78,3,3,0,0,1-2.7-2.69,3,3,0,0,1,2.61-2.76A3.05,3.05,0,0,1,50.19,51.44Z"/><path class="cls-1" d="M40.64,65.92A3,3,0,0,1,38,68.62a3.11,3.11,0,0,1-2.75-2.78A3,3,0,0,1,38,63.18,2.91,2.91,0,0,1,40.64,65.92Z"/><path class="cls-1" d="M55.3,137.06a2.7,2.7,0,1,1-5.39-.07,3,3,0,0,1,2.68-2.7A3,3,0,0,1,55.3,137.06Z"/><path class="cls-1" d="M143.84,121.59a2.89,2.89,0,0,1-2.79,2.65,3,3,0,0,1-2.64-2.74,3.14,3.14,0,0,1,2.72-2.69A3,3,0,0,1,143.84,121.59Z"/><path class="cls-1" d="M32.2,89.48a2.71,2.71,0,1,1,.08-5.42,3,3,0,0,1,2.66,2.71A2.88,2.88,0,0,1,32.2,89.48Z"/><path class="cls-1" d="M144.64,63.47a2.89,2.89,0,0,1,2.68,2.77,3.19,3.19,0,0,1-2.65,2.61A3.15,3.15,0,0,1,142,66.1,3.07,3.07,0,0,1,144.64,63.47Z"/><path class="cls-1" d="M74.7,149.54a2.93,2.93,0,0,1,2.55-2.69A3,3,0,0,1,80,149.51a3.15,3.15,0,0,1-2.59,2.67A2.77,2.77,0,0,1,74.7,149.54Z"/><path class="cls-1" d="M141,57a3.29,3.29,0,0,1,2.61,2.68,3.21,3.21,0,0,1-2.74,2.67,3,3,0,0,1-2.61-2.74A2.86,2.86,0,0,1,141,57Z"/><path class="cls-1" d="M124.82,137.1a2.8,2.8,0,0,1,2.7,2.64,3.15,3.15,0,0,1-2.69,2.67,3.05,3.05,0,0,1-2.65-2.73A3,3,0,0,1,124.82,137.1Z"/><path class="cls-1" d="M108.3,36.75a2.83,2.83,0,0,1-2.69-2.66,3.18,3.18,0,0,1,2.72-2.65A3.08,3.08,0,0,1,111,34.18,3,3,0,0,1,108.3,36.75Z"/><path class="cls-1" d="M78,32.11a2.78,2.78,0,0,1,2.73-2.57,3.2,3.2,0,0,1,2.56,2.69,3.08,3.08,0,0,1-2.74,2.64A2.88,2.88,0,0,1,78,32.11Z"/><path class="cls-1" d="M118.33,140.86a3,3,0,0,1,2.68,2.81,3.39,3.39,0,0,1-2.71,2.58,3.22,3.22,0,0,1-2.64-2.78A3.16,3.16,0,0,1,118.33,140.86Z"/><path class="cls-1" d="M111.53,144.69a3.08,3.08,0,0,1,2.69,2.67,3.13,3.13,0,0,1-2.71,2.67,3.27,3.27,0,0,1-2.65-2.63A3.05,3.05,0,0,1,111.53,144.69Z"/><path class="cls-1" d="M146,72.88a2.48,2.48,0,1,1,2.44,2.53A2.21,2.21,0,0,1,146,72.88Z"/><path class="cls-1" d="M29.55,99.53c-1.7,0-2.49-.78-2.49-2.44s.81-2.43,2.51-2.42,2.45.81,2.44,2.5S31.19,99.53,29.55,99.53Z"/><path class="cls-1" d="M121.31,37a2.14,2.14,0,0,1-2.53,2.29c-1.69-.06-2.37-.85-2.32-2.71,0-1.53.9-2.28,2.57-2.23S121.35,35.24,121.31,37Z"/><path class="cls-1" d="M66.69,149a2.43,2.43,0,1,1,0-4.85,2.16,2.16,0,0,1,2.48,2.46C69.21,148.21,68.43,149,66.69,149Z"/><path class="cls-1" d="M97.93,28.66a2.18,2.18,0,0,1,2.51,2.44,2.47,2.47,0,0,1-4.94.07A2.16,2.16,0,0,1,97.93,28.66Z"/><path class="cls-1" d="M107.5,151.22a2.38,2.38,0,0,1-2.58,2.46,2.51,2.51,0,0,1-2.42-2.48,2.42,2.42,0,0,1,2.55-2.52A2.31,2.31,0,0,1,107.5,151.22Z"/><path class="cls-1" d="M139.5,52.84c0,1.69-.76,2.46-2.45,2.47s-2.43-.83-2.42-2.52A2.16,2.16,0,0,1,137,50.37C138.68,50.34,139.49,51.15,139.5,52.84Z"/><path class="cls-1" d="M131.57,138.4a2.46,2.46,0,0,1,.09-4.92c1.64,0,2.44.82,2.46,2.51S133.24,138.41,131.57,138.4Z"/><path class="cls-1" d="M87.93,154.66a2.44,2.44,0,1,1-.08-4.87c1.68,0,2.54.8,2.54,2.4S89.62,154.66,87.93,154.66Z"/><path class="cls-1" d="M133.25,48.77a2.34,2.34,0,0,1-2.49-2.51,2.48,2.48,0,0,1,2.53-2.46,2.43,2.43,0,0,1,2.46,2.62A2.27,2.27,0,0,1,133.25,48.77Z"/><path class="cls-1" d="M40.76,52.86c1.68,0,2.39.8,2.34,2.55s-.84,2.35-2.59,2.32c-1.55,0-2.32-.87-2.3-2.52S39,52.84,40.76,52.86Z"/><path class="cls-1" d="M150.6,109.58a2.45,2.45,0,0,1-2.43-2.51,2.55,2.55,0,0,1,2.7-2.37,2.6,2.6,0,0,1,2.28,2.48A2.52,2.52,0,0,1,150.6,109.58Z"/><path class="cls-1" d="M40.64,127.81a2.44,2.44,0,0,1-2.4,2.45,2.56,2.56,0,0,1-2.46-2.43,2.53,2.53,0,0,1,2.48-2.51A2.47,2.47,0,0,1,40.64,127.81Z"/><path class="cls-1" d="M152.3,81.92a2.49,2.49,0,0,1-2.45-2.43,2.45,2.45,0,1,1,4.89,0A2.57,2.57,0,0,1,152.3,81.92Z"/><path class="cls-1" d="M33.86,69.69a2.43,2.43,0,1,1-2.39-2.47A2.5,2.5,0,0,1,33.86,69.69Z"/><path class="cls-1" d="M59.4,37.15a2.53,2.53,0,0,1-2.47,2.41A2.49,2.49,0,0,1,54.54,37,2.46,2.46,0,0,1,57,34.63,2.53,2.53,0,0,1,59.4,37.15Z"/><path class="cls-1" d="M28.46,77.57A2.45,2.45,0,0,1,30.9,80a2.49,2.49,0,0,1-2.42,2.44,2.44,2.44,0,1,1,0-4.87Z"/><path class="cls-1" d="M147.66,115.27a2.48,2.48,0,1,1-2.46,2.46A2.6,2.6,0,0,1,147.66,115.27Z"/><path class="cls-1" d="M56.4,141.38a2.45,2.45,0,1,1,0,4.9A2.55,2.55,0,0,1,54,143.81,2.52,2.52,0,0,1,56.4,141.38Z"/><path class="cls-1" d="M34.09,61.51a2.49,2.49,0,0,1-2.41-2.46,2.47,2.47,0,0,1,4.94.12A2.49,2.49,0,0,1,34.09,61.51Z"/><path class="cls-1" d="M63.54,35.71A2.51,2.51,0,0,1,61,33.37a2.56,2.56,0,0,1,2.36-2.53,2.53,2.53,0,0,1,2.57,2.41A2.47,2.47,0,0,1,63.54,35.71Z"/><path class="cls-1" d="M42,136.73a2.46,2.46,0,0,1-2.47-2.5,2.6,2.6,0,0,1,2.53-2.37,2.57,2.57,0,0,1,2.41,2.48A2.47,2.47,0,0,1,42,136.73Z"/><path class="cls-1" d="M70.24,31.93a2.51,2.51,0,0,1-2.43-2.44,2.46,2.46,0,0,1,4.92.05A2.5,2.5,0,0,1,70.24,31.93Z"/><path class="cls-1" d="M100.71,155a2.61,2.61,0,0,1-2.49,2.43,2.47,2.47,0,1,1,2.49-2.43Z"/><path class="cls-1" d="M30.6,112a2.48,2.48,0,1,1-2.45,2.47A2.61,2.61,0,0,1,30.6,112Z"/><path class="cls-1" d="M36.87,121a2.45,2.45,0,1,1-2.45-2.43A2.56,2.56,0,0,1,36.87,121Z"/><path class="cls-1" d="M153.32,99.28a2.48,2.48,0,0,1-2.39-2.46,2.45,2.45,0,1,1,4.89.09A2.5,2.5,0,0,1,153.32,99.28Z"/><path class="cls-1" d="M135.72,132.12a2.48,2.48,0,0,1,2.42-2.43,2.45,2.45,0,1,1-2.42,2.43Z"/><path class="cls-1" d="M28.15,90.56a2.42,2.42,0,1,1-4.84,0,2.42,2.42,0,1,1,4.84,0Z"/><path class="cls-1" d="M131.62,39.53a2.47,2.47,0,0,1-2.4,2.46,2.51,2.51,0,0,1-2.46-2.4,2.45,2.45,0,0,1,2.46-2.49A2.41,2.41,0,0,1,131.62,39.53Z"/><path class="cls-1" d="M87.36,30.84a2.44,2.44,0,1,1,2.45-2.4A2.46,2.46,0,0,1,87.36,30.84Z"/><path class="cls-1" d="M50.15,38.47a2.43,2.43,0,1,1-2.41,2.43A2.42,2.42,0,0,1,50.15,38.47Z"/><path class="cls-1" d="M29.24,107.7a2.87,2.87,0,0,1-2.4,2.46,2.91,2.91,0,0,1-2.45-2.41,2.87,2.87,0,0,1,2.46-2.52A2.91,2.91,0,0,1,29.24,107.7Z"/><path class="cls-1" d="M46.08,44.71a2.85,2.85,0,0,1-2.42,2.43,2.82,2.82,0,0,1-2.43-2.41,2.85,2.85,0,0,1,2.47-2.5A2.93,2.93,0,0,1,46.08,44.71Z"/><path class="cls-1" d="M158.5,86.29a2.84,2.84,0,0,1-2.44,2.41,2.92,2.92,0,0,1-2.41-2.57,2.94,2.94,0,0,1,2.51-2.35A2.9,2.9,0,0,1,158.5,86.29Z"/><path class="cls-1" d="M81.1,153.58a2.93,2.93,0,0,1,2.48,2.4,3,3,0,0,1-2.37,2.52,2.46,2.46,0,1,1-.11-4.92Z"/><path class="cls-1" d="M70.79,155.74a2.81,2.81,0,0,1-2.42-2.41,2.85,2.85,0,0,1,2.51-2.45,2.85,2.85,0,0,1,2.35,2.48A2.78,2.78,0,0,1,70.79,155.74Z"/><path class="cls-1" d="M145,130.77a2.85,2.85,0,0,1-2.44-2.4,2.82,2.82,0,0,1,2.49-2.45,2.75,2.75,0,0,1,2.37,2.45A2.81,2.81,0,0,1,145,130.77Z"/><path class="cls-1" d="M62.63,150.38a2.51,2.51,0,0,1-2.42,2.34,2.43,2.43,0,0,1-2.35-2.49,2.6,2.6,0,0,1,2.44-2.34A2.74,2.74,0,0,1,62.63,150.38Z"/><path class="cls-1" d="M104.54,29.75a2.93,2.93,0,0,1-2.5-2.36,2.8,2.8,0,0,1,2.45-2.49,2.72,2.72,0,0,1,2.41,2.39A2.84,2.84,0,0,1,104.54,29.75Z"/><path class="cls-1" d="M115.14,27.83a3,3,0,0,1,2.4,2.51,3.06,3.06,0,0,1-2.47,2.43,3,3,0,0,1-2.44-2.56A3,3,0,0,1,115.14,27.83Z"/><path class="cls-1" d="M93.88,27a2.37,2.37,0,0,1,0-4.74,2.62,2.62,0,0,1,2.48,2.41A2.55,2.55,0,0,1,93.88,27Z"/><path class="cls-1" d="M45.89,143.48a2.4,2.4,0,0,1-.12-4.79A3,3,0,0,1,48.22,141,2.94,2.94,0,0,1,45.89,143.48Z"/><path class="cls-1" d="M76.74,28a2.53,2.53,0,0,1-2.25-2.48,2.72,2.72,0,0,1,2.38-2.29,3.17,3.17,0,0,1,2.35,2.53A2.92,2.92,0,0,1,76.74,28Z"/><path class="cls-1" d="M93.92,159a2,2,0,0,1-2.32,2.21c-1.35,0-2.08-.85-2-2.35a2.05,2.05,0,0,1,2.2-2A2.08,2.08,0,0,1,93.92,159Z"/><path class="cls-1" d="M24.67,75.66a2,2,0,0,1-2.21-2.09,2,2,0,0,1,2.15-2.28,2.19,2.19,0,1,1,.06,4.37Z"/><path class="cls-1" d="M154.45,111.76a2.11,2.11,0,0,1,2.23,2.34,2.13,2.13,0,0,1-2.44,2,2,2,0,0,1-2-2.25A2,2,0,0,1,154.45,111.76Z"/><path class="cls-1" d="M149,62.34a2,2,0,0,1,2.33-2.19,2.07,2.07,0,0,1,2,2.32A2.1,2.1,0,0,1,151,64.53,2,2,0,0,1,149,62.34Z"/><path class="cls-1" d="M123.24,33a2,2,0,0,1,2.14-2.17,2.06,2.06,0,0,1,2.23,2.25,2.08,2.08,0,0,1-2.14,2.13A2,2,0,0,1,123.24,33Z"/><path class="cls-1" d="M120,150.32a2.07,2.07,0,0,1,2.25-2.2,2.22,2.22,0,1,1-2.25,2.2Z"/><path class="cls-1" d="M117.79,154.21a2,2,0,0,1-2.19,2.13,2.06,2.06,0,0,1-2.18-2.27,2,2,0,0,1,2.21-2.11A2,2,0,0,1,117.79,154.21Z"/><path class="cls-1" d="M131.11,146.26a2.18,2.18,0,1,1-4.36,0,2.18,2.18,0,0,1,4.36,0Z"/><path class="cls-1" d="M145.77,49.05a2,2,0,0,1-2.16,2.15,2,2,0,0,1-2.21-2.13,2.19,2.19,0,1,1,4.37,0Z"/><path class="cls-1" d="M157.24,101.19a2,2,0,0,1,2.1,2.08,2.19,2.19,0,1,1-4.37.07A2,2,0,0,1,157.24,101.19Z"/><path class="cls-1" d="M149.58,55.86A2,2,0,0,1,147.27,58a2.07,2.07,0,0,1-2.1-2.16,2.15,2.15,0,0,1,2.18-2.22A2.06,2.06,0,0,1,149.58,55.86Z"/><path class="cls-1" d="M22.68,99a2,2,0,0,1,2.21,2.12,2.07,2.07,0,0,1-2.15,2.23,2.17,2.17,0,0,1-2.2-2.11A2.07,2.07,0,0,1,22.68,99Z"/><path class="cls-1" d="M111,157.91a2.18,2.18,0,1,1-4.36,0,2.18,2.18,0,0,1,4.36,0Z"/><path class="cls-1" d="M153.64,124.23a2,2,0,0,1-2.17,2.19,2.06,2.06,0,0,1-2.19-2.19,2.18,2.18,0,0,1,4.36,0Z"/><path class="cls-1" d="M36.87,46.33a2.08,2.08,0,0,1,2.19,2.19,2.13,2.13,0,0,1-2.23,2.17,2.18,2.18,0,0,1,0-4.36Z"/><path class="cls-1" d="M135.46,144.62a2.17,2.17,0,1,1,0-4.34,2.17,2.17,0,0,1,0,4.34Z"/><path class="cls-1" d="M21.91,86a2,2,0,0,1-2.14-2.22A2.07,2.07,0,0,1,21.9,81.6a2.15,2.15,0,0,1,2.22,2.19A2.07,2.07,0,0,1,21.91,86Z"/><path class="cls-1" d="M159.91,94.92a2.18,2.18,0,0,1-2.24-2.17,2.3,2.3,0,0,1,2.15-2.2,2.17,2.17,0,0,1,2.24,2.17A2,2,0,0,1,159.91,94.92Z"/><path class="cls-1" d="M139.84,44.67a2,2,0,0,1-2.21-2.13,2.07,2.07,0,0,1,2.06-2.21A2.13,2.13,0,0,1,142,42.44,2.06,2.06,0,0,1,139.84,44.67Z"/><path class="cls-1" d="M51.78,147.58a2.09,2.09,0,0,1-2.15,2.22,2.26,2.26,0,0,1-2.22-2.1,2.21,2.21,0,0,1,2.16-2.27A2.05,2.05,0,0,1,51.78,147.58Z"/><path class="cls-1" d="M157.42,69.28a2,2,0,0,1-2.33,2,2.11,2.11,0,0,1-2-2.26,2.15,2.15,0,0,1,2.31-2.1A2.09,2.09,0,0,1,157.42,69.28Z"/><path class="cls-1" d="M27.39,60.73A2,2,0,0,1,29.51,63a2,2,0,0,1-2.13,2.13,2.12,2.12,0,0,1-2.21-2.2A2,2,0,0,1,27.39,60.73Z"/><path class="cls-1" d="M85.74,22a2.17,2.17,0,1,1-2-2.25A2.08,2.08,0,0,1,85.74,22Z"/><path class="cls-1" d="M74.62,157.66a2.45,2.45,0,0,1,2.22,2.15A2.39,2.39,0,0,1,74.56,162a2.23,2.23,0,0,1-2.12-2.07A2.3,2.3,0,0,1,74.62,157.66Z"/><path class="cls-1" d="M30.38,54.69a2.17,2.17,0,0,1-2.23-1.93,2.41,2.41,0,0,1,2.2-2.39,2.4,2.4,0,0,1,2.19,2.17A2.19,2.19,0,0,1,30.38,54.69Z"/><path class="cls-1" d="M53.17,28.44a2.31,2.31,0,0,1,2.23,2.12,2.57,2.57,0,0,1-2.07,2.21A2.43,2.43,0,0,1,51,30.42,2.26,2.26,0,0,1,53.17,28.44Z"/><path class="cls-1" d="M159,77.87a2.36,2.36,0,0,1-2.11-2.12,2.26,2.26,0,0,1,2.15-2.27,2.37,2.37,0,0,1,2.22,2.37A2.57,2.57,0,0,1,159,77.87Z"/><path class="cls-1" d="M66.19,157.08a2.17,2.17,0,1,1-4.33,0,2.17,2.17,0,0,1,4.33,0Z"/><path class="cls-1" d="M111.25,21.34a2.17,2.17,0,0,1,.1,4.33,2.34,2.34,0,0,1-2.28-2.05A2.35,2.35,0,0,1,111.25,21.34Z"/><path class="cls-1" d="M100.8,23a2.27,2.27,0,0,1-2.28-2,2.33,2.33,0,0,1,2.11-2.33,2.43,2.43,0,0,1,2.27,2.23A2.38,2.38,0,0,1,100.8,23Z"/><path class="cls-1" d="M25.51,124.81a2.08,2.08,0,0,1,2-2.16,2.36,2.36,0,0,1,2.35,2.11A2.53,2.53,0,0,1,27.61,127,2.3,2.3,0,0,1,25.51,124.81Z"/><path class="cls-1" d="M144.43,138.77a2.21,2.21,0,0,1-4.41-.06,2.51,2.51,0,0,1,2-2.25A2.43,2.43,0,0,1,144.43,138.77Z"/><path class="cls-1" d="M31.41,129.44a2.52,2.52,0,0,1,2.19,2.19,2.72,2.72,0,0,1-2.15,2.16,2.79,2.79,0,0,1-2.2-2.12A2.55,2.55,0,0,1,31.41,129.44Z"/><path class="cls-1" d="M61.83,26.54a2.54,2.54,0,0,1-2.15,2.12,2.62,2.62,0,0,1-2.2-2.21,2.79,2.79,0,0,1,2.18-2.14A2.55,2.55,0,0,1,61.83,26.54Z"/><path class="cls-1" d="M21.12,94.39A2.8,2.8,0,0,1,19,96.59a2.66,2.66,0,0,1-2.24-2.18,2.57,2.57,0,0,1,2.1-2.17A2.57,2.57,0,0,1,21.12,94.39Z"/><path class="cls-1" d="M26,118.35a2.55,2.55,0,0,1-2.27,2.12,2.78,2.78,0,0,1-2.08-2.24,2.69,2.69,0,0,1,2.31-2.11A2.56,2.56,0,0,1,26,118.35Z"/><path class="cls-1" d="M46.37,36.54a2.57,2.57,0,0,1-2.18-2.22,2.77,2.77,0,0,1,2.17-2.15,2.64,2.64,0,0,1,2.16,2.25A2.55,2.55,0,0,1,46.37,36.54Z"/><path class="cls-1" d="M102.36,159.59a2.49,2.49,0,0,1,2.1,2.15,2.59,2.59,0,0,1-2.2,2.19,2.78,2.78,0,0,1-2.15-2.19A2.6,2.6,0,0,1,102.36,159.59Z"/><path class="cls-1" d="M136,37.87a2.63,2.63,0,0,1-2.18-2.1A2.77,2.77,0,0,1,136,33.54a2.65,2.65,0,0,1,2.14,2.15A2.45,2.45,0,0,1,136,37.87Z"/><path class="cls-1" d="M35.54,140.21a2.24,2.24,0,0,1-2.16-2.05A2.32,2.32,0,0,1,35.45,136a2.46,2.46,0,0,1,2.21,2.07A2.41,2.41,0,0,1,35.54,140.21Z"/><path class="cls-1" d="M64.36,22.75a2.1,2.1,0,1,1,4.2,0,2.43,2.43,0,0,1-2.15,2.06A2.37,2.37,0,0,1,64.36,22.75Z"/><path class="cls-1" d="M119.5,26.22a2.31,2.31,0,0,1,2.08-2.13,2.58,2.58,0,0,1,2.13,2,2.53,2.53,0,0,1-2.12,2.25A2.36,2.36,0,0,1,119.5,26.22Z"/><path class="cls-1" d="M87.06,162.76a2.12,2.12,0,1,1-4.24,0,2.12,2.12,0,0,1,4.24,0Z"/><path class="cls-1" d="M18.1,111.52c0-1.38.58-2,2-2s1.88.62,1.88,2.05a1.77,1.77,0,0,1-2,1.87C18.68,113.49,18.09,112.87,18.1,111.52Z"/><path class="cls-1" d="M164.79,82.39c0,1.36-.55,2-1.86,2s-2-.58-2-1.87.56-2,1.87-2S164.78,81.07,164.79,82.39Z"/><path class="cls-1" d="M150.63,134.9c0,1.42-.56,1.91-2.13,1.89-1.11,0-1.65-.69-1.64-2.06s.65-1.83,2-1.84S150.64,133.44,150.63,134.9Z"/><path class="cls-1" d="M161,108.24c1.35,0,1.84.55,1.82,2s-.49,1.85-1.82,1.83c-1.51,0-2-.48-1.94-2S159.63,108.22,161,108.24Z"/><path class="cls-1" d="M51.53,154.37c0-1.34.59-1.91,2-1.89s1.84.61,1.82,2-.57,1.84-1.89,1.84S51.52,155.74,51.53,154.37Z"/><path class="cls-1" d="M41.73,38.18c0,1.42-.47,1.88-1.89,1.88S38,39.56,38,38.17s.52-1.89,1.9-1.88S41.74,36.78,41.73,38.18Z"/><path class="cls-1" d="M90.12,19.69c-1.41,0-1.91-.47-1.91-1.88S88.67,16,90,15.93s2,.44,2,1.82S91.51,19.68,90.12,19.69Z"/><path class="cls-1" d="M18.1,79.17c-1.37,0-1.88-.53-1.88-1.94s.54-1.83,2-1.82S20,75.93,20,77.28,19.5,79.17,18.1,79.17Z"/><path class="cls-1" d="M158.27,118.54a1.93,1.93,0,1,1-2,2A1.76,1.76,0,0,1,158.27,118.54Z"/><path class="cls-1" d="M39.29,146.78a1.7,1.7,0,0,1-1.92-1.85,1.72,1.72,0,0,1,2-1.93,1.89,1.89,0,1,1,0,3.78Z"/><path class="cls-1" d="M22.72,66.7a1.69,1.69,0,0,1-1.84,1.92,1.93,1.93,0,0,1-.09-3.86A1.7,1.7,0,0,1,22.72,66.7Z"/><path class="cls-1" d="M73,20.79a1.72,1.72,0,0,1-2-1.9,1.93,1.93,0,0,1,3.86,0A1.7,1.7,0,0,1,73,20.79Z"/><path class="cls-1" d="M164,101.47a1.91,1.91,0,0,1-2-1.9,2,2,0,0,1,2-2,2,2,0,0,1,1.93,2A1.84,1.84,0,0,1,164,101.47Z"/><path class="cls-1" d="M159.89,58.5a2,2,0,0,1-2,2,2.14,2.14,0,0,1-1.83-2.07,1.92,1.92,0,0,1,3.83.09Z"/><path class="cls-1" d="M17,87.94a2,2,0,0,1-2,1.88,2.12,2.12,0,0,1-1.8-2A2,2,0,0,1,15.18,86,2,2,0,0,1,17,87.94Z"/><path class="cls-1" d="M16.16,103a2.09,2.09,0,0,1,2,1.82,2.06,2.06,0,0,1-2,2.07A2,2,0,0,1,14.34,105,2.12,2.12,0,0,1,16.16,103Z"/><path class="cls-1" d="M97.45,165.5a2.18,2.18,0,0,1-2.07,2,2.32,2.32,0,0,1-1.82-1.89,2.21,2.21,0,0,1,2-2A2.11,2.11,0,0,1,97.45,165.5Z"/><path class="cls-1" d="M35,41.79a2.18,2.18,0,0,1-2.06,2.14,2.19,2.19,0,0,1-1.76-2,2,2,0,0,1,2-1.87A2.24,2.24,0,0,1,35,41.79Z"/><path class="cls-1" d="M154.25,50.08a2.07,2.07,0,0,1,1.84,1.8,1.91,1.91,0,1,1-3.81,0A2.1,2.1,0,0,1,154.25,50.08Z"/><path class="cls-1" d="M132.13,31.11a2,2,0,0,1-1.88-1.89A2.11,2.11,0,0,1,132,27.3a2.14,2.14,0,0,1,2.15,2A2.19,2.19,0,0,1,132.13,31.11Z"/><path class="cls-1" d="M152.33,45.2a1.95,1.95,0,1,1-3.89.08,1.95,1.95,0,0,1,3.89-.08Z"/><path class="cls-1" d="M130.84,153a2,2,0,0,1,2-1.86,2,2,0,0,1,1.78,1.85,2.09,2.09,0,0,1-2,2A2.05,2.05,0,0,1,130.84,153Z"/><path class="cls-1" d="M125.85,158.76a2.14,2.14,0,0,1-1.85-2,2.27,2.27,0,0,1,2-1.81,2.24,2.24,0,0,1,1.84,1.83A2.07,2.07,0,0,1,125.85,158.76Z"/><path class="cls-1" d="M23.46,54.45a2.16,2.16,0,0,1,2,2,2.32,2.32,0,0,1-1.86,1.86,2.34,2.34,0,0,1-2-1.81A2.18,2.18,0,0,1,23.46,54.45Z"/><path class="cls-1" d="M121.34,160.74c0,.78-1,1.88-1.68,1.87a2.16,2.16,0,0,1-2.14-2,1.91,1.91,0,1,1,3.82.17Z"/><path class="cls-1" d="M141.16,149.29a2.06,2.06,0,0,1-1.95,1.83,2,2,0,0,1-1.87-1.91,1.91,1.91,0,0,1,3.82.08Z"/><path class="cls-1" d="M114.52,164.41a1.88,1.88,0,1,1-3.76.1,2.06,2.06,0,0,1,1.82-2A2.11,2.11,0,0,1,114.52,164.41Z"/><path class="cls-1" d="M146.58,40.65a2.17,2.17,0,0,1-1.9-1.93,2.12,2.12,0,0,1,1.9-1.92,1.93,1.93,0,0,1,0,3.85Z"/><path class="cls-1" d="M81.69,15.1A2.22,2.22,0,0,1,79.77,17a2.19,2.19,0,0,1-1.91-1.94,2.21,2.21,0,0,1,1.92-1.92A2.25,2.25,0,0,1,81.69,15.1Z"/><path class="cls-1" d="M117.78,17.8a2.17,2.17,0,0,1,1.93,1.89,1.92,1.92,0,0,1-3.83.15A2.11,2.11,0,0,1,117.78,17.8Z"/><path class="cls-1" d="M80.34,166.62a1.92,1.92,0,1,1-3.84,0,1.92,1.92,0,1,1,3.84,0Z"/><path class="cls-1" d="M168.55,89a2.08,2.08,0,0,1-1.9,1.9,2.1,2.1,0,0,1-1.86-1.94,1.88,1.88,0,1,1,3.76,0Z"/><path class="cls-1" d="M159.9,65.27a2.08,2.08,0,0,1,1.95-1.84,1.9,1.9,0,1,1-.12,3.8A2,2,0,0,1,159.9,65.27Z"/><path class="cls-1" d="M109.07,17a2,2,0,0,1-1.85,1.9A2,2,0,0,1,105.31,17a1.88,1.88,0,1,1,3.76,0Z"/><path class="cls-1" d="M157.42,131.07a1.89,1.89,0,1,1-3.77,0,2,2,0,0,1,1.9-1.86A2,2,0,0,1,157.42,131.07Z"/><path class="cls-1" d="M67.79,165.54a2,2,0,0,1-1.85-1.92,1.88,1.88,0,0,1,3.76,0A2,2,0,0,1,67.79,165.54Z"/><path class="cls-1" d="M43.07,149.54a1.88,1.88,0,1,1-1.84,1.93A2,2,0,0,1,43.07,149.54Z"/><path class="cls-1" d="M167.43,71.81a2,2,0,0,1-1.76,1.89,1.86,1.86,0,1,1-.11-3.71A2.07,2.07,0,0,1,167.43,71.81Z"/><path class="cls-1" d="M96.85,15.85A1.92,1.92,0,0,1,95.05,14a2,2,0,0,1,1.87-1.85,2,2,0,0,1,1.81,1.92A2,2,0,0,1,96.85,15.85Z"/><path class="cls-1" d="M57.57,162.77A2,2,0,0,1,55.69,161a2,2,0,0,1,1.83-1.93,2.2,2.2,0,0,1,1.86,1.83A2.15,2.15,0,0,1,57.57,162.77Z"/><path class="cls-1" d="M144.43,145.41c0-1.18.47-1.6,1.69-1.58s1.57.48,1.58,1.59a1.48,1.48,0,0,1-1.67,1.67C144.87,147.09,144.42,146.61,144.43,145.41Z"/><path class="cls-1" d="M28.17,45.81c0,1.13-.55,1.64-1.71,1.63a1.53,1.53,0,0,1-1.58-1.68c0-1.11.58-1.62,1.73-1.61A1.43,1.43,0,0,1,28.17,45.81Z"/><path class="cls-1" d="M12.38,96.56c1.15,0,1.69.5,1.69,1.63s-.51,1.63-1.67,1.63-1.57-.4-1.59-1.55S11.23,96.58,12.38,96.56Z"/><path class="cls-1" d="M57.47,20a1.52,1.52,0,0,1-1.58,1.67A1.6,1.6,0,0,1,54.22,20a1.56,1.56,0,0,1,1.63-1.64A1.46,1.46,0,0,1,57.47,20Z"/><path class="cls-1" d="M14.07,72.14a1.58,1.58,0,0,1-1.66-1.63A1.55,1.55,0,0,1,14,68.87a1.53,1.53,0,0,1,1.64,1.61A1.57,1.57,0,0,1,14.07,72.14Z"/><path class="cls-1" d="M164.76,115a1.48,1.48,0,0,1,1.62,1.62,1.5,1.5,0,0,1-1.6,1.65,1.56,1.56,0,0,1-1.65-1.63A1.55,1.55,0,0,1,164.76,115Z"/><path class="cls-1" d="M17.27,123.74a1.58,1.58,0,0,1-1.59-1.69,1.53,1.53,0,0,1,1.67-1.58,1.54,1.54,0,0,1,1.6,1.66A1.59,1.59,0,0,1,17.27,123.74Z"/><path class="cls-1" d="M167.79,104.46a1.49,1.49,0,0,1,1.6,1.64,1.64,1.64,0,1,1-3.27-.06A1.51,1.51,0,0,1,167.79,104.46Z"/><path class="cls-1" d="M89,167.71A1.64,1.64,0,1,1,89,171a1.54,1.54,0,0,1-1.59-1.67A1.51,1.51,0,0,1,89,167.71Z"/><path class="cls-1" d="M17,58.57a1.53,1.53,0,0,1,1.68,1.57,1.62,1.62,0,0,1-1.61,1.69,1.55,1.55,0,0,1-1.65-1.62A1.46,1.46,0,0,1,17,58.57Z"/><path class="cls-1" d="M126.76,22.42a1.55,1.55,0,0,1,1.63-1.63,1.63,1.63,0,1,1,0,3.26A1.54,1.54,0,0,1,126.76,22.42Z"/><path class="cls-1" d="M23.31,135.28A1.46,1.46,0,0,1,25,133.8a1.55,1.55,0,0,1,1.53,1.62,1.64,1.64,0,0,1-1.67,1.64A1.57,1.57,0,0,1,23.31,135.28Z"/><path class="cls-1" d="M13,81.14a1.55,1.55,0,0,1-1.71,1.55,1.47,1.47,0,0,1-1.54-1.77,1.56,1.56,0,0,1,1.66-1.49A1.62,1.62,0,0,1,13,81.14Z"/><path class="cls-1" d="M106.09,166.63a1.52,1.52,0,0,1,1.65,1.6,1.56,1.56,0,0,1-1.6,1.67,1.59,1.59,0,0,1-1.67-1.61A1.57,1.57,0,0,1,106.09,166.63Z"/><path class="cls-1" d="M49.3,25.39a1.48,1.48,0,0,1-1.56-1.66,1.58,1.58,0,0,1,1.67-1.61A1.56,1.56,0,0,1,51,23.83,1.48,1.48,0,0,1,49.3,25.39Z"/><path class="cls-1" d="M22.72,128.57a1.56,1.56,0,0,1-1.57,1.69,1.61,1.61,0,0,1-1.69-1.6A1.55,1.55,0,0,1,21.07,127,1.47,1.47,0,0,1,22.72,128.57Z"/><path class="cls-1" d="M42.53,26a1.5,1.5,0,0,1,1.66,1.6,1.63,1.63,0,0,1-3.25.07A1.5,1.5,0,0,1,42.53,26Z"/><path class="cls-1" d="M142.48,30.3a1.63,1.63,0,1,1-1.6,1.68A1.54,1.54,0,0,1,142.48,30.3Z"/><path class="cls-1" d="M62.65,14.55a1.51,1.51,0,0,1,1.62,1.65,1.47,1.47,0,0,1-1.55,1.59,1.62,1.62,0,1,1-.07-3.24Z"/><path class="cls-1" d="M36,29.75a1.64,1.64,0,1,1,0,3.27,1.64,1.64,0,0,1,0-3.27Z"/><path class="cls-1" d="M15.15,115.27A1.76,1.76,0,0,1,13.5,117a1.67,1.67,0,0,1-1.59-1.6,1.59,1.59,0,0,1,1.51-1.65A1.66,1.66,0,0,1,15.15,115.27Z"/><path class="cls-1" d="M48.52,158.22a1.65,1.65,0,0,1-1.68,1.62,1.64,1.64,0,1,1,.14-3.27A1.67,1.67,0,0,1,48.52,158.22Z"/><path class="cls-1" d="M162.1,128.85a1.61,1.61,0,0,1-1.67-1.52,1.63,1.63,0,1,1,3.26-.07A1.61,1.61,0,0,1,162.1,128.85Z"/><path class="cls-1" d="M28.76,140.33a1.49,1.49,0,0,1,1.57,1.57,1.59,1.59,0,0,1-1.66,1.63,1.65,1.65,0,0,1-1.59-1.61A1.57,1.57,0,0,1,28.76,140.33Z"/><path class="cls-1" d="M86.25,12.91a1.55,1.55,0,0,1-1.56-1.6,1.61,1.61,0,0,1,1.63-1.66,1.63,1.63,0,0,1-.07,3.26Z"/><path class="cls-1" d="M152.5,140a1.68,1.68,0,0,1,1.66,1.56,1.61,1.61,0,1,1-3.21.11A1.69,1.69,0,0,1,152.5,140Z"/><path class="cls-1" d="M170.48,94.11a1.61,1.61,0,0,1,1.6,1.58,1.53,1.53,0,0,1-1.61,1.65,1.51,1.51,0,0,1-1.6-1.54A1.62,1.62,0,0,1,170.48,94.11Z"/><path class="cls-1" d="M169.4,77A1.73,1.73,0,0,1,171,78.61a1.62,1.62,0,1,1-3.23,0A1.7,1.7,0,0,1,169.4,77Z"/><path class="cls-1" d="M19.72,47.5c.69.84,1.54,1.43,1.53,2s-.82,1.25-1.43,1.62-1.87-1-1.65-1.52A11.1,11.1,0,0,1,19.72,47.5Z"/><path class="cls-1" d="M69.24,10.29a10.85,10.85,0,0,1,1.5,2.12C71,13,69.57,14.24,69.1,14s-1.43-1.07-1.44-1.65S68.52,11.14,69.24,10.29Z"/><path class="cls-1" d="M140.79,25.4c-.88.71-1.54,1.62-2,1.54s-1.14-1-1.69-1.57c.55-.52,1.07-1.4,1.66-1.44S139.9,24.72,140.79,25.4Z"/><path class="cls-1" d="M105.49,10.23c-.88.67-1.5,1.5-2.07,1.47s-1.24-.86-1.56-1.49,1.08-1.85,1.57-1.61A13.57,13.57,0,0,1,105.49,10.23Z"/><path class="cls-1" d="M32.26,150.48c-.44-.58-1.27-1.2-1.23-1.75s.84-1.25,1.47-1.56,1.8,1,1.57,1.55a8.39,8.39,0,0,1-1.3,1.77Z"/><path class="cls-1" d="M10.71,91.62c-.87.73-1.52,1.64-2,1.57s-1.15-1-1.72-1.53c.54-.53,1-1.42,1.63-1.48S9.79,91,10.71,91.62Z"/><path class="cls-1" d="M63.4,167.74c-.91.69-1.58,1.57-2.08,1.48s-1.11-1-1.66-1.58c.57-.51,1.11-1.38,1.7-1.42S62.52,167,63.4,167.74Z"/><path class="cls-1" d="M73.72,170.48c-.92.69-1.56,1.54-2.11,1.48s-1.22-.9-1.56-1.55c-.25-.47,1.13-1.8,1.63-1.56A12.27,12.27,0,0,1,73.72,170.48Z"/><path class="cls-1" d="M99.35,174.42c-.71-.86-1.56-1.46-1.55-2s.85-1.24,1.47-1.6,1.85,1,1.63,1.53A11.75,11.75,0,0,1,99.35,174.42Z"/><path class="cls-1" d="M116.08,12.88a13,13,0,0,1-2,1.6c-.5.23-1.88-1.09-1.63-1.56.35-.63,1-1.44,1.59-1.5S115.17,12.21,116.08,12.88Z"/><path class="cls-1" d="M165.88,54.72a1.22,1.22,0,0,1-1.39,1.4,1.21,1.21,0,0,1-1.37-1.3c0-1,.4-1.43,1.34-1.45S165.87,53.79,165.88,54.72Z"/><path class="cls-1" d="M10.82,108.73a1.25,1.25,0,0,1-1.36,1.44,1.24,1.24,0,0,1-1.41-1.39,1.22,1.22,0,0,1,1.31-1.38A1.24,1.24,0,0,1,10.82,108.73Z"/><path class="cls-1" d="M158.25,41.48c.08.89-.44,1.31-1.34,1.34s-1.33-.41-1.36-1.41a1.16,1.16,0,0,1,1.28-1.36C157.78,40,158.23,40.45,158.25,41.48Z"/><path class="cls-1" d="M160.71,46.84c.94,0,1.35.46,1.35,1.42a1.2,1.2,0,0,1-1.32,1.36,1.22,1.22,0,0,1-1.4-1.38C159.33,47.28,159.78,46.83,160.71,46.84Z"/><path class="cls-1" d="M131.11,163.63a1.21,1.21,0,0,1-1.39,1.39,1.22,1.22,0,0,1-1.35-1.42,1.2,1.2,0,0,1,1.34-1.34C130.65,162.26,131.11,162.7,131.11,163.63Z"/><path class="cls-1" d="M82.19,174.5c-1,0-1.36-.47-1.35-1.4s.53-1.3,1.45-1.29,1.29.5,1.3,1.34S83.15,174.52,82.19,174.5Z"/><path class="cls-1" d="M137.9,159.53a1.21,1.21,0,0,1-1.38,1.41,1.16,1.16,0,0,1-1.34-1.33c0-1,.37-1.4,1.37-1.39S137.89,158.61,137.9,159.53Z"/><path class="cls-1" d="M125.91,15.92c0,1-.38,1.37-1.39,1.36s-1.29-.48-1.29-1.38a1.16,1.16,0,0,1,1.3-1.35C125.54,14.54,125.92,14.91,125.91,15.92Z"/><path class="cls-1" d="M29.36,36.53c-1,.06-1.46-.37-1.46-1.35s.38-1.33,1.31-1.34,1.42.38,1.39,1.36S30.26,36.6,29.36,36.53Z"/><path class="cls-1" d="M167.22,61.4a1.32,1.32,0,0,1,1.38-1.24,1.34,1.34,0,0,1,1.32,1.42,1.29,1.29,0,0,1-1.32,1.31A1.42,1.42,0,0,1,167.22,61.4Z"/><path class="cls-1" d="M143.12,154.4a1.39,1.39,0,0,1,1.31,1.46,1.38,1.38,0,0,1-1.49,1.27,1.32,1.32,0,0,1-1.26-1.39A1.42,1.42,0,0,1,143.12,154.4Z"/><path class="cls-1" d="M36.19,156.57A1.29,1.29,0,0,1,35,155.23a1.37,1.37,0,0,1,2.74-.06A1.39,1.39,0,0,1,36.19,156.57Z"/><path class="cls-1" d="M50.7,166.1a1.4,1.4,0,0,1-1.35-1.38,1.31,1.31,0,0,1,1.38-1.35,1.29,1.29,0,0,1,1.32,1.41C52.05,165.59,51.53,166,50.7,166.1Z"/><path class="cls-1" d="M174.56,85.14a1.44,1.44,0,0,1-1.37,1.41,1.46,1.46,0,0,1-1.37-1.42,1.39,1.39,0,0,1,1.33-1.34A1.4,1.4,0,0,1,174.56,85.14Z"/><path class="cls-1" d="M123.24,166.08a1.36,1.36,0,0,1,1.33,1.42,1.31,1.31,0,0,1-1.42,1.3,1.26,1.26,0,0,1-1.25-1.46C121.93,166.5,122.47,166.16,123.24,166.08Z"/><path class="cls-1" d="M159.3,138.92A1.27,1.27,0,0,1,158,137.6a1.33,1.33,0,1,1,2.66.06A1.28,1.28,0,0,1,159.3,138.92Z"/><path class="cls-1" d="M94.42,7.57a1.22,1.22,0,0,1-1.24,1.25,1.29,1.29,0,0,1-1.44-1.29,1.32,1.32,0,0,1,1.34-1.4A1.38,1.38,0,0,1,94.42,7.57Z"/><path class="cls-1" d="M153,36.78c-.59-.86-1.28-1.43-1.22-1.9a1.84,1.84,0,0,1,1.33-1.22A1.81,1.81,0,0,1,154.37,35C154.39,35.45,153.67,36,153,36.78Z"/><path class="cls-1" d="M9.06,74.88c-.53.34-1,.9-1.58,1a1.28,1.28,0,1,1,.1-2.55c.55.11,1,.71,1.5,1.09Z"/><path class="cls-1" d="M171.8,111.33c.37.51,1,1,1,1.52a1.16,1.16,0,0,1-1.26,1.31,1.15,1.15,0,0,1-1.28-1.28c.08-.56.64-1,1-1.55Z"/><path class="cls-1" d="M77.5,8.57c-.51.35-1,.93-1.54,1a1.17,1.17,0,0,1-1.29-1.3A1.16,1.16,0,0,1,76,7c.55.09,1,.67,1.53,1Z"/><path class="cls-1" d="M12.07,64c-.83.62-1.37,1.33-1.82,1.28A1.81,1.81,0,0,1,9,64a1.82,1.82,0,0,1,1.26-1.28C10.71,62.65,11.25,63.36,12.07,64Z"/><path class="cls-1" d="M116.1,172.75c-.33-.53-.88-1-.93-1.58a1.09,1.09,0,0,1,1.32-1.2,1.94,1.94,0,0,1,1.21,1.35c0,.46-.7,1-1.1,1.45Z"/><path class="cls-1" d="M174.16,68c-.75.6-1.25,1.33-1.69,1.29s-.95-.77-1.43-1.19c.42-.46.82-1.25,1.27-1.28S173.36,67.43,174.16,68Z"/><path class="cls-1" d="M174.35,104.07c-.63-.79-1.33-1.29-1.34-1.8a1.75,1.75,0,0,1,1.22-1.25,1.7,1.7,0,0,1,1.29,1.15C175.55,102.68,174.9,103.23,174.35,104.07Z"/><path class="cls-1" d="M5.56,100.22c.61.75,1.34,1.26,1.29,1.69s-.77,1-1.2,1.45c-.44-.43-1.23-.84-1.25-1.29S5,101,5.56,100.22Z"/><path class="cls-1" d="M149.82,150.24c.58.74,1.28,1.23,1.28,1.74s-.83,1.26-1.2,1.21a1.92,1.92,0,0,1-1.33-1.25C148.5,151.54,149.24,151,149.82,150.24Z"/><path class="cls-1" d="M92.81,174.37c.57.75,1.26,1.27,1.26,1.79s-.79.89-1.23,1.33c-.45-.46-1.19-.88-1.26-1.4S92.24,175.12,92.81,174.37Z"/><path class="cls-1" d="M24.47,39.3c-.75.57-1.3,1.32-1.71,1.24a2,2,0,0,1-1.27-1.34c0-.37.8-1.21,1.25-1.21S23.74,38.71,24.47,39.3Z"/><path class="cls-1" d="M170.6,123.41c-.76.6-1.27,1.31-1.78,1.31a1.73,1.73,0,0,1-1.23-1.25,1.75,1.75,0,0,1,1.19-1.28C169.29,122.17,169.82,122.85,170.6,123.41Z"/><path class="cls-1" d="M134.88,16.87c.58.74,1.3,1.27,1.25,1.69a1.86,1.86,0,0,1-1.26,1.28c-.38.05-1.22-.75-1.23-1.18S134.31,17.64,134.88,16.87Z"/><path class="cls-1" d="M14.34,53.34c.1.84-.28,1.14-1.12,1.14s-1.08-.29-1.08-1.07.27-1.17,1.13-1.15S14.44,52.52,14.34,53.34Z"/><path class="cls-1" d="M4.86,85.94c-.78.13-1.17-.19-1.17-1s.27-1.2,1.14-1.19,1.09.33,1.07,1.11S5.73,86.1,4.86,85.94Z"/><path class="cls-1" d="M176.4,73.57c.29.43.79.86.79,1.29s-.56.89-1,1a.86.86,0,0,1-1.09-1c.06-.46.53-.87.82-1.3Z"/><path class="cls-1" d="M66.35,174.5c-.43.28-.9.83-1.27.77a1.62,1.62,0,0,1-1-1.12c0-.26.63-.89,1-.91s.84.47,1.26.74Z"/><path class="cls-1" d="M58.82,8.13c.27.42.78.85.76,1.25s-.64,1.07-.9,1a1.64,1.64,0,0,1-1.13-1c-.06-.37.48-.86.75-1.29Z"/><path class="cls-1" d="M177,93.18c-.28-.42-.83-.88-.77-1.25a1.52,1.52,0,0,1,1.08-1c.28,0,.92.6.95,1s-.48.85-.75,1.27Z"/><path class="cls-1" d="M40.37,160.77c.29.43.84.9.78,1.27a1.59,1.59,0,0,1-1.1,1c-.26.05-.9-.62-.93-1s.47-.85.74-1.27Z"/><path class="cls-1" d="M111.18,175.28c-.42.28-.88.82-1.25.77a1.54,1.54,0,0,1-1-1c0-.27.59-.93,1-1s.86.46,1.29.72Z"/><path class="cls-1" d="M111.42,6.67c-.42.27-.87.76-1.26.72s-1.06-.68-1-.94a1.6,1.6,0,0,1,1-1.08c.37-.06.83.5,1.25.78Z"/><path class="cls-1" d="M46.5,17.55c-.42.27-.87.77-1.26.74s-1-.69-1-1a1.52,1.52,0,0,1,1-1.06c.36-.05.82.49,1.23.77Z"/><path class="cls-1" d="M149.13,29.39c-.31-.41-.85-.81-.86-1.23s.53-.92.93-1a.85.85,0,0,1,1.13.92c-.05.47-.47.89-.73,1.33Z"/><path class="cls-1" d="M167.13,134c-.42.31-.87.88-1.26.84a1.59,1.59,0,0,1-1-1.08c-.05-.25.6-.93.95-.95s.87.47,1.3.73Z"/><path class="cls-1" d="M14.51,131.16c.31.41.88.85.84,1.22a1.55,1.55,0,0,1-1,1c-.27.05-.93-.57-1-.94s.43-.86.68-1.29Z"/><path class="cls-1" d="M23.45,146c-.43.26-.84.69-1.3.76a.84.84,0,0,1-1-1.08c.11-.41.65-1,1-1s.85.51,1.27.81Z"/><path class="cls-1" d="M122,9.17c-.71.5-1.18,1.07-1.49,1a1.67,1.67,0,0,1-1.06-1.09.86.86,0,0,1,1.12-1C121,8.2,121.36,8.66,122,9.17Z"/><path class="cls-1" d="M19.35,139.52c-.44.26-.9.75-1.3.7s-1-.7-.95-1a1.52,1.52,0,0,1,1-1c.36-.05.81.49,1.22.77Z"/><path class="cls-1" d="M39.05,19.82c.27.44.8.92.73,1.3a1.53,1.53,0,0,1-1.13.92c-.27,0-.88-.65-.88-1s.52-.82.82-1.23Z"/><path class="cls-1" d="M10.75,124.67c.27.39.69.75.78,1.18a.88.88,0,0,1-1,1.1,1.52,1.52,0,0,1-1-1c0-.4.47-.85.74-1.28Z"/><path class="cls-1" d="M157.57,148.47c-.43.26-.9.76-1.3.71a1.49,1.49,0,0,1-1-1.05.88.88,0,0,1,1.11-1c.42.1.77.55,1.15.84Z"/><path class="cls-1" d="M52.09,14.7C51.57,14,51,13.57,51,13.25s.66-.78,1-1.17c.35.39.91.73,1,1.17S52.57,14,52.09,14.7Z"/><path class="cls-1" d="M76.94,177.16c-.41.28-.83.79-1.23.78s-1-.62-1-.89a1.57,1.57,0,0,1,1-1.13c.36-.08.84.46,1.27.73Z"/><path class="cls-1" d="M83.74,4.75c-.43.28-.88.79-1.3.76a1.47,1.47,0,0,1-1-1,.85.85,0,0,1,1.07-1c.43.08.8.52,1.19.8Z"/><path class="cls-1" d="M54.45,172.9c-.43-.59-1-1-.9-1.31s.61-.77,1-1.15c.36.36,1,.7,1,1.09S54.94,172.3,54.45,172.9Z"/><path class="cls-1" d="M99.73,2.26c.42.66.93,1.12.86,1.48s-.66.69-1,1c-.34-.38-.93-.75-.94-1.14S99.2,2.87,99.73,2.26Z"/><path class="cls-1" d="M8.08,119.2c-.61.4-1.06.93-1.44.88s-.66-.68-1-1.06c.39-.31.77-.85,1.19-.88S7.55,118.71,8.08,119.2Z"/><path class="cls-1" d="M16.06,41.68c.4.63.89,1.07.86,1.48s-.72,1-1,.91c-.43-.11-1-.67-1-1S15.55,42.26,16.06,41.68Z"/><path class="cls-1" d="M1.88,96.92c-.49-.66-1-1.09-1-1.46s.64-.9,1-.94.92.61.92,1S2.33,96.28,1.88,96.92Z"/><path class="cls-1" d="M32.05,26.33c-.51-.66-1.07-1.08-1-1.45a1.46,1.46,0,0,1,1-1c.28,0,.91.59.93,1S32.48,25.66,32.05,26.33Z"/><path class="cls-1" d="M104.37,178.81c-.57.43-.89.85-1.18.83s-.6-.45-.9-.7c.28-.31.51-.78.85-.87S103.77,178.43,104.37,178.81Z"/><path class="cls-1" d="M3.14,111.63c.18.31.55.64.51.93a1.17,1.17,0,0,1-.7.81.63.63,0,0,1-.81-.8,3.2,3.2,0,0,1,.57-.94Z"/><path class="cls-1" d="M145.65,20.65c.21.3.61.61.59.89s-.43.6-.66.89c-.3-.27-.76-.49-.85-.82s.32-.63.5-.95Z"/><path class="cls-1" d="M5,67.79c-.6.41-1,.84-1.2.78A1.32,1.32,0,0,1,3,67.69c0-.2.48-.68.78-.7S4.38,67.37,5,67.79Z"/><path class="cls-1" d="M86,178.64c.41.64.79,1,.76,1.25s-.44.59-.69.88c-.29-.29-.74-.53-.82-.86S85.61,179.29,86,178.64Z"/><path class="cls-1" d="M175.39,120.64c-.4-.6-.78-.92-.77-1.22s.43-.59.67-.88c.29.28.75.52.83.85S175.78,120,175.39,120.64Z"/><path class="cls-1" d="M27,152.78c-.32.18-.7.55-.93.47s-.56-.54-.83-.84c.3-.23.58-.62.89-.64s.59.37.88.58Z"/><path class="cls-1" d="M132.35,12.06c-.58.42-.93.85-1.18.8s-.6-.5-.9-.78c.28-.25.53-.68.83-.72S131.73,11.69,132.35,12.06Z"/><path class="cls-1" d="M178.15,110.29c-.44-.58-.88-.92-.83-1.16s.49-.6.76-.89c.27.27.7.51.75.81S178.51,109.67,178.15,110.29Z"/><path class="cls-1" d="M25.44,30c-.4-.64-.8-1-.74-1.26s.53-.58.82-.87c.25.3.66.57.69.88S25.85,29.33,25.44,30Z"/><path class="cls-1" d="M66.33,5.75c-.29.21-.63.63-.87.58s-.6-.49-.9-.77c.27-.25.52-.67.82-.72s.62.3.93.48Z"/><path class="cls-1" d="M164.59,37.58c-.85,1-1,1-1.73,0l.74-.84Z"/><path class="cls-1" d="M134.38,170.57l-1.29.08,0-1,1.37.19Z"/><path class="cls-1" d="M44.15,169.43c-.27-.41-1.14-.63-.4-1.33.18-.16.64,0,1,0l-.22,1.41Z"/><path class="cls-1" d="M72.83,1.54c-.47.65-.77,1.43-1.39.67-.16-.19,0-.65,0-1Z"/><path class="cls-1" d="M127.93,174.23l-1.35.26c0-.33-.15-.79,0-1,.65-.75.9.06,1.3.31Z"/><path class="cls-1" d="M89.21,0c1.06.66,1.06.74.11,1.53C88.28.84,88.27.73,89.21,0Z"/><path class="cls-1" d="M170.54,50.89c.61-1,1.12-.74,1.62,0C171.42,51.89,171.33,51.9,170.54,50.89Z"/><path class="cls-1" d="M140.72,165.5l.11,1.3-1,0,.17-1.37Z"/><path class="cls-1" d="M29.93,160.12l-1-1.13c.32-.27.57-.61.89-.69s.66.36.66.56A4.35,4.35,0,0,1,29.93,160.12Z"/><path class="cls-1" d="M168.39,44.44l-1.37.24c0-.33-.14-.8,0-1C167.7,43,168,43.73,168.39,44.44Z"/><path class="cls-1" d="M.83,79.17c-1.08-.75-1.09-.78-.12-1.69C1.36,78,2,78.43.83,79.17Z"/><path class="cls-1" d="M163.17,143.47c1,.95,1,.95-.07,1.67C162.13,144.43,162.13,144.41,163.17,143.47Z"/><path class="cls-1" d="M179.66,82.24l-.18-1.38,1,.06-.09,1.29Z"/><path class="cls-1" d="M5.64,57.21c.81-1,.85-1,1.68,0C6.8,57.89,6.27,58.4,5.64,57.21Z"/><path class="cls-1" d="M182,98.56l-.83.75-.8-.69C181,97.46,181.17,97.45,182,98.56Z"/></g></g></svg>