<svg xmlns="http://www.w3.org/2000/svg" viewBox="0 0 23.34 23.34"><defs><style>.cls-1{fill:#784939;}</style></defs><g id="Layer_2" data-name="Layer 2"><g id="Layer_1-2" data-name="Layer 1"><g id="sun"><g id="center"><circle class="cls-1" cx="11.66" cy="11.67" r="2.38"/><path class="cls-1" d="M3.56,15.09a8.7,8.7,0,0,1,0-6.84A8.69,8.69,0,0,1,8.25,3.56a8.7,8.7,0,0,1,6.84,0A9,9,0,0,1,17.9,5.44a8.94,8.94,0,0,1,1.88,2.81,8.7,8.7,0,0,1,0,6.84A9.17,9.17,0,0,1,17.9,17.9a9.17,9.17,0,0,1-2.81,1.88,8.7,8.7,0,0,1-6.84,0A8.94,8.94,0,0,1,5.44,17.9,9,9,0,0,1,3.56,15.09Zm.73-6.53a8,8,0,0,0,0,6.22A7.82,7.82,0,0,0,8.56,19a7.88,7.88,0,0,0,6.22,0A7.76,7.76,0,0,0,19,14.78a7.88,7.88,0,0,0,0-6.22,7.82,7.82,0,0,0-4.26-4.27,8,8,0,0,0-6.22,0A7.88,7.88,0,0,0,4.29,8.56ZM5,14.47A7.19,7.19,0,0,1,5,8.86,7.32,7.32,0,0,1,6.57,6.57,7.21,7.21,0,0,1,8.86,5a7.19,7.19,0,0,1,5.61,0A7.09,7.09,0,0,1,18.3,8.86a7.07,7.07,0,0,1,0,5.61,7,7,0,0,1-3.83,3.83,7.07,7.07,0,0,1-5.61,0A7.09,7.09,0,0,1,5,14.47Zm.74-5.29a6.31,6.31,0,0,0,0,5,6.2,6.2,0,0,0,1.37,2,6.31,6.31,0,0,0,2,1.37,6.43,6.43,0,0,0,5,0,6.32,6.32,0,0,0,3.42-3.42,6.43,6.43,0,0,0,0-5,6.31,6.31,0,0,0-1.37-2,6.51,6.51,0,0,0-4.53-1.88,6.23,6.23,0,0,0-2.49.51A6.37,6.37,0,0,0,5.77,9.18Zm1,5.3a5.61,5.61,0,0,1,2-7.67,5.61,5.61,0,0,1,7.67,2,5.61,5.61,0,0,1-2,7.67,5.61,5.61,0,0,1-7.67-2ZM8.27,8.27a4.66,4.66,0,0,0-1.41,3.4,4.81,4.81,0,0,0,4.81,4.8,4.8,4.8,0,0,0,4.8-4.8,4.69,4.69,0,0,0-1.4-3.4,4.63,4.63,0,0,0-3.4-1.41A4.63,4.63,0,0,0,8.27,8.27Zm.57,6.23a3.84,3.84,0,0,1-1.18-2.83A3.82,3.82,0,0,1,8.84,8.84a3.82,3.82,0,0,1,2.83-1.18,4,4,0,0,1,4,4,4,4,0,0,1-4,4A3.85,3.85,0,0,1,8.84,14.5ZM9.4,9.4a3.14,3.14,0,0,0-.94,2.27,3.21,3.21,0,0,0,3.21,3.2,3.21,3.21,0,0,0,3.2-3.2,3.21,3.21,0,0,0-3.2-3.21A3.14,3.14,0,0,0,9.4,9.4Z"/></g><g id="rays"><polygon class="cls-1" points="9.71 1.01 9.71 3.66 8.94 3.66 8.94 1.51 9.71 1.01"/><polygon class="cls-1" points="11.29 0 11.29 3.66 10.51 3.66 10.51 0.5 11.29 0"/><polygon class="cls-1" points="12.84 0.51 12.84 3.66 12.06 3.66 12.06 0.01 12.84 0.51"/><polygon class="cls-1" points="14.4 1.51 14.4 3.66 13.62 3.66 13.62 1.01 14.4 1.51"/><polygon class="cls-1" points="9.71 22.33 9.71 19.68 8.94 19.68 8.94 21.83 9.71 22.33"/><polygon class="cls-1" points="11.29 23.34 11.29 19.68 10.51 19.68 10.51 22.84 11.29 23.34"/><polygon class="cls-1" points="12.84 22.83 12.84 19.68 12.06 19.68 12.06 23.33 12.84 22.83"/><polygon class="cls-1" points="14.4 21.83 14.4 19.68 13.62 19.68 13.62 22.33 14.4 21.83"/><polygon class="cls-1" points="1.01 13.62 3.66 13.62 3.66 14.4 1.51 14.4 1.01 13.62"/><polygon class="cls-1" points="0 12.05 3.66 12.05 3.66 12.83 0.5 12.83 0 12.05"/><polygon class="cls-1" points="0.51 10.49 3.66 10.49 3.66 11.27 0.01 11.27 0.51 10.49"/><polygon class="cls-1" points="1.51 8.94 3.66 8.94 3.66 9.71 1.01 9.71 1.51 8.94"/><polygon class="cls-1" points="22.33 13.62 19.68 13.62 19.68 14.4 21.83 14.4 22.33 13.62"/><polygon class="cls-1" points="23.34 12.05 19.68 12.05 19.68 12.83 22.84 12.83 23.34 12.05"/><polygon class="cls-1" points="22.83 10.49 19.68 10.49 19.68 11.27 23.33 11.27 22.83 10.49"/><polygon class="cls-1" points="21.83 8.94 19.68 8.94 19.68 9.71 22.33 9.71 21.83 8.94"/><polygon class="cls-1" points="2.75 5.51 4.62 7.39 4.07 7.94 2.55 6.41 2.75 5.51"/><polygon class="cls-1" points="3.15 3.69 5.74 6.27 5.18 6.83 2.95 4.59 3.15 3.69"/><polygon class="cls-1" points="4.61 2.94 6.83 5.17 6.29 5.72 3.7 3.14 4.61 2.94"/><polygon class="cls-1" points="6.41 2.55 7.94 4.07 7.39 4.62 5.51 2.75 6.41 2.55"/><polygon class="cls-1" points="17.82 20.59 15.95 18.71 15.4 19.26 16.92 20.79 17.82 20.59"/><polygon class="cls-1" points="19.65 20.19 17.06 17.6 16.51 18.15 18.74 20.39 19.65 20.19"/><polygon class="cls-1" points="20.39 18.73 18.16 16.5 17.61 17.05 20.2 19.63 20.39 18.73"/><polygon class="cls-1" points="20.79 16.92 19.26 15.4 18.71 15.95 20.59 17.82 20.79 16.92"/><polygon class="cls-1" points="17.82 2.75 15.95 4.62 15.4 4.07 16.92 2.55 17.82 2.75"/><polygon class="cls-1" points="19.65 3.15 17.06 5.74 16.51 5.18 18.74 2.95 19.65 3.15"/><polygon class="cls-1" points="20.39 4.61 18.16 6.83 17.61 6.29 20.2 3.7 20.39 4.61"/><polygon class="cls-1" points="20.79 6.41 19.26 7.94 18.71 7.39 20.59 5.51 20.79 6.41"/><polygon class="cls-1" points="2.75 17.82 4.62 15.95 4.07 15.4 2.55 16.92 2.75 17.82"/><polygon class="cls-1" points="3.15 19.65 5.74 17.06 5.18 16.51 2.95 18.74 3.15 19.65"/><polygon class="cls-1" points="4.61 20.39 6.83 18.16 6.29 17.61 3.7 20.2 4.61 20.39"/><polygon class="cls-1" points="6.41 20.79 7.94 19.26 7.39 18.71 5.51 20.59 6.41 20.79"/></g></g></g></g></svg>