<?xml version="1.0" encoding="utf-8"?>
<!-- Generator: Adobe Illustrator 28.3.0, SVG Export Plug-In . SVG Version: 6.00 Build 0)  -->
<svg version="1.1" id="members-photo" xmlns="http://www.w3.org/2000/svg" xmlns:xlink="http://www.w3.org/1999/xlink" x="0px"
	 y="0px" viewBox="0 0 1885.7 2052" style="enable-background:new 0 0 1885.7 2052;" xml:space="preserve">
<g id="badjao">
	<defs>
		<path id="SVGID_1_" d="M353.3,1348c0.7,6,1.3,12,2,18c0.7,0.3,1.3,0.7,2,1c8.6-4.2,19.6-9,29-4c1,9,2,18,3,27
			c6.7,0.3,13.3,0.7,20,1c-0.3,1-0.7,2-1,3c-20.5,18.4-37,16.2-64,28c-10.8,4.7-17.3,12.7-31,16c-30.3,2.7-60.7,5.3-91,8
			c-4.3,4-8.7,8-13,12c-13-2.4-16.5-11.8-27-15c-8.2,3.1-20.6,4.3-28,0c-2,27.3-4,54.7-6,82c-6.7,12-13.3,24-20,36
			c0.7,13.3,1.3,26.7,2,40c5.6,35.3,8.3,96.2-7,117c-2-0.3-4-0.7-6-1c-20.2-11.1-7.9-43.6-20-63h-6c-15.8,10.8-10.7,61.9-2,84
			c4.3,10.9,25.3,14.5,19,33c-1.7,3.7-2.4,4.3-6,6c-28,13.9-58.2-33.1-65-51c-24.8-65.2,4.4-133.7-7-205c-3.8-23.8,4.6-57.4-3-75
			c-5-3.7-10-7.3-15-11c-4-7.3-14.3-66.8-11-78c4.7-15.9,17.5-29.6,22-49c2-16.7,4-33.3,6-50c3.3-14.2,11.7-25.7,15-37
			c-1-12.7-2-25.3-3-38c4-28,8-56,12-84c3.6-17.5,15.9-27,18-44c-0.7-20.7-1.3-41.3-2-62c8-45.3,16-90.7,24-136c4-27.7,8-55.3,12-83
			c6.7-18,13.3-36,20-54c4.5-14.2,6-30.2,14-41c5.3-4.3,10.7-8.7,16-13c-6.5-43.4,22.3-57.3,46-76c8-7.3,16-14.7,24-22
			c27.9-15.5,64.6-14.4,90-32c10.7-7.4,8.9-24.9,16-36c11-12,22-24,33-36c0.7-74.8-16.7-58.2-46-97c-10.9-14.5-24.9-28.1-34-43
			c-2.3-6-4.7-12-7-18c-12.7-13-25.3-26-38-39c-3.9-6.5-18.6-42.2-20-48c-2.9-11.7,11.2-84,15-96c6-18.9,21.6-29.4,32-44
			c13.1-18.5,30.5-29,44-46c5-6,10-12,15-18c28.2-20.7,92.7-18.5,119,2c9.3,13.3,18.7,26.7,28,40c21,4,42,8,63,12
			c37.4,15.6,80.1,85.3,57,144c5,5.3,10,10.7,15,16c16.4,27.4-13.9,45.3-21,62c-6.9,16.4-5.7,36-9,56c-2.4,14.5-8.6,51.4,0,64
			c4.9,7.2,36,15,45,22c24.2,18.6,36.4,47.2,64,63c44.6,25.5,95.1,23.3,127,63c22.9,28.5,49.3,62.7,61,101c9.4,30.9-0.5,71.8,5,107
			c6.9,44.5,17.9,113.4,9,163c-8.7,39.3-17.3,78.7-26,118c-16.2,74.8-19.5,155.3-110,155c-0.3-1-0.7-2-1-3
			c-10.2-15.5,7.1-37.8,11-51c3.6-12.3,3.9-81.2,0-100c-6-29-42.5-97.7-60-117c-9-6.3-18-12.7-27-19c-20.2-28.5-28.2-52.8-63-67
			c-17.1-7-37.9-6.7-58-11c-24.3-5.2-52.7-18.6-84-13c-20.4,3.6-36.8,13.3-54,20c-11.9,4.7-27.2,0.8-38,5
			c-26.5,10.3-47.3,35.8-69,52c-12.3,9.1-28.7,16.1-38,28c-7,8.9-8.5,20.2-13,32c-8.2,21.4-45.1,106.1-25,133v-2c2-3.7,4-7.3,6-11
			c0.7,0.3,1.3,0.7,2,1c-1.3,101.2,64.8,129.4,62,232c13.1,1.3,20.3,8.2,27,16c-0.4,10.8-2.8,23.2,2,30
			C339.5,1354.3,343.7,1349.1,353.3,1348L353.3,1348z"/>
	</defs>
	<clipPath id="SVGID_00000016037951324054981910000006342487960425458828_">
		<use xlink:href="#SVGID_1_"  style="overflow:visible;"/>
	</clipPath>
	<g style="clip-path:url(#SVGID_00000016037951324054981910000006342487960425458828_);enable-background:new    ;">
		
			<image style="overflow:visible;" width="888" height="1779" id="ivos_badjao" xlink:href="_resources/images/ivos_badjao.png"  onmouseover="aboutBadjao()" transform="matrix(1 0 0 1 0.65 0)">
		</image>
	</g>
</g>
<g id="blaster">
	<defs>
		<path id="SVGID_00000095312123498101874560000017625109764612136095_" d="M1097,5c32.2-0.1,75.6,3.5,101,14
			c16,6.6,27.9,22.1,39,34c18.9,20.2,40.4,39.8,55,64c20.1,33.2,34.9,108.2,42,154c4.9,31.5-10.9,45.9-15,66c-2.2,11,4.5,15.8,6,23
			c4.4,20.5-8.3,33,2,50c41.1,11.9,93.8,11.8,139,20c18.3,3.3,39.8,1.3,53,10c38.8,25.5,41.2,75.3,53,129
			c15.1,68.7,31.7,132.8,46,199c-39.2-29.6-70.8-64.3-124-81c-29.5-9.3-61.5-5.7-89,2c-80.4,22.4-130.6,58.8-168,123
			c-22.4,38.4-38.6,110-28,174c0.7,15.7,1.3,31.3,2,47c8.1,34.5,23.7,64.4,43,88c13.3,16.2,37.2,19,58,28c-1.3,1.7-2.7,3.3-4,5
			c-30.8,12.2-82.8,58.8-106,82c-10.7,10.7-30.1,25.3-21,38c15.8,6.8,35.3,23.7,42,40c-5.5,8.7-7.8,10.9-17,16c-5-1.7-10-3.3-15-5
			c2,6,1.5,10,0,16c-7.8,5.6-17.3,12.5-33,10c-4-0.7-8-1.3-12-2c-6,4-12,8-18,12c-19.2,7.8-38.2-1.9-55-5
			c-10.8,12.9-43.7,23.5-50,32c-24.5,38.7-28.7,112.9-21,170h-1v-2c-17.3-24.7-34.7-49.3-52-74c-17.2-21.4-58.5-35.6-84-48
			c2.6-19,13.9-79.7,7-92c-10.5-4.3-32.4-19.3-36-30c-1.7-13-3.3-26-5-39c-10.7-24-35.3-41.3-39-73c11-11.5,25.3-16.8,34-31
			c17-27.6,21.2-68.3,30-103c11.8-46.7,22.3-95.9,31-146c6.7-38.7-4.3-111.3-10-146c-6.5-39.7,1.4-83.2-9-117
			c-9.5-30.9-30.9-55.9-47-81c0.3-1,0.7-2,1-3c43-23.3,86-46.7,129-70c14.4-8.4,26.8-17.2,49-18c-2.1-11.6-10.2-37.2-18-45
			c-0.7,3-1.3,6-2,9c-7.7-3.6-15.5-11.6-23-6c0.3-10,0.7-20,1-30c-8-21.1-34.9-33.6-41-62c-7-32.6-23.6-96.5-17-134
			c11.8-67.1,40.1-142.6,86-177c10.1-7.6,21-11,39-11h19c9.7-5.7,19.3-11.3,29-17C1081,9.7,1089,7.3,1097,5z"/>
	</defs>
	<clipPath id="SVGID_00000013158201746483099620000002183266071391734939_">
		<use xlink:href="#SVGID_00000095312123498101874560000017625109764612136095_"  style="overflow:visible;"/>
	</clipPath>
	<g style="clip-path:url(#SVGID_00000013158201746483099620000002183266071391734939_);enable-background:new    ;">
		
			<image style="overflow:visible;" width="826" height="1554" id="ivos_blaster" xlink:href="_resources/images/ivos_blaster.png"  onmouseover="aboutBlaster()" transform="matrix(1 0 0 1 794.65 3)">
		</image>
	</g>
</g>
<g id="unique">
	<defs>
		<path id="SVGID_00000091008929530301002030000007410051485534892706_" d="M1013.7,2052.5c2.3-53,2.9-114.5-5-165
			c-1.3-26.3-2.7-52.7-4-79c8.7-42.4,24-82.3,32-130c9-53.8-18.1-86.5-28-121c-0.3-10.7-0.7-21.3-1-32c-7.5-48.1-0.7-107.1,18-137
			c8-12.8,26.1-14.1,39-22c5-4.7,10-9.3,15-14c33.4,12.7,43.2,14.4,70-6c14.6,3,29.7,3.9,41-3c1.7-8.3,3.3-16.7,5-25
			c4.8,3.3,12.8,9.5,21,6c4.9-2.3,5.9-4.9,8-10c-2.2-21.2-28.1-40.3-45-47c1.1-4,1.4-3.8,4-6c23.6-49.2,93.5-72.3,129-111
			c-0.3-2-0.7-4-1-6c-21.2-6.8-37.8-11.1-53-23c-41-31.9-60.7-155.8-43-226c23.2-92,62.5-150.1,139-189c20.7-10.5,67.2-35.6,101-29
			c96,18.7,190.9,83.4,217,170c9.8,32.5,6.9,77.4,7,116c0,34,4.4,75.6-6,102c-16.1,40.9-37.4,84.3-63,117
			c-11.7,14.9-33.9,33.3-25,59c29.5,15.7,79.3,29.5,96,58c13.9,23.8-9.3,109.6-3,145c6.1,34.2,30,56.1,33,91
			c1.7,19.5-14.9,31.9-18,51c3.7,34.7,7.3,69.3,11,104c4,58.3,8,116.7,12,175c20.7,84.5,118.9,125.1,166,187H1013.7z"/>
	</defs>
	<clipPath id="SVGID_00000084507215388051990100000013510086530787756708_">
		<use xlink:href="#SVGID_00000091008929530301002030000007410051485534892706_"  style="overflow:visible;"/>
	</clipPath>
	<g style="clip-path:url(#SVGID_00000084507215388051990100000013510086530787756708_);enable-background:new    ;">
		
			<image style="overflow:visible;" width="884" height="1375" id="ivos_unique" xlink:href="_resources/images/ivos_unique.png"  onmouseover="aboutUnique()" transform="matrix(1 0 0 1 1001.65 677)">
		</image>
	</g>
</g>
<g id="zild_00000041980434790372015110000006424047043054781354_">
	<defs>
		<path id="SVGID_00000065066532042646409300000011214027616346752163_" d="M476.8,823c45.1-0.6,141.3,19.5,166,39
			c18.2,14.3,28.6,37.8,43,56c8.3,6.3,16.7,12.7,25,19c3.7,7.7,7.3,15.3,11,23c16.9,28.2,38.1,55.2,45,93c-0.3,15-0.7,30-1,45
			c2.3,13.7,7.4,32.8,4,50c-4.7,16-9.3,32-14,48v66c-3.9,24-4.2,64.1,2,86c14.1,50,115.7,79.1,160,105c47.8,28,98.4,100.7,116,158
			c9.4,30.7,3.9,78.6-3,108c-12.7,54.4-29.3,103.2-48,151c-12.2,31.4-20.1,62.7-36,90s-44.5,55.7-48,92c-289.3-0.3-578.7-0.7-868-1
			c3.4-27.6,14.6-47.8,19-71c4.3-22.2-3.8-43.7,1-64c11.7-29,23.3-58,35-87c14.2-32.4,45.2-55,52-91c5.4-28.6-5.1-60.8,1-88
			c6.9-30.5,25.7-53.8,32-87c7.6-40.4,4.1-82.1,30-103c30.9-24.9,72-3.1,114-15c13.2-3.7,16.6-13.7,26-20c9.7-2.7,19.3-5.3,29-8
			c16.3-8.3,32.7-16.7,49-25v-2c-8.9,0.7-17.7,3.4-25,0c0.3-8.5,0.6-19.5-2-25c-11.1-1.2-22.2-0.2-32,2c0.3-8.3-0.4-14.2-3-19h-5
			c-3.3,2.1-4.3,4.4-7,7c-10.4-8.1-3.5-17.7-10-28c-5.4-8.5-20.7-8.1-26-17c-1.9-7,4.9-13.9,2-22c-2.2-4-3.5-3.5-8-5
			c4.6-52.2-21.4-72.7-38-112c-11.7-27.6-12.4-57.5-19-92c-8.2,2.6-6.1,8.3-9,16c-1.4-17.2-6.4-34.8-3-54c5.7-32.6,23.8-87.3,41-110
			c16-12,32-24,48-36c18-14.5,33.1-35.6,56-45c11.5-4.8,21.9,0.9,34-2c8.7-5.3,17.3-10.7,26-16C451.5,829,464.2,826,476.8,823
			L476.8,823z"/>
	</defs>
	<clipPath id="SVGID_00000168806153373242981760000013534431227165377174_">
		<use xlink:href="#SVGID_00000065066532042646409300000011214027616346752163_"  style="overflow:visible;"/>
	</clipPath>
	<g style="clip-path:url(#SVGID_00000168806153373242981760000013534431227165377174_);enable-background:new    ;">
		
			<image style="overflow:visible;" width="1007" height="1229" id="ivos_zild" xlink:href="_resources/images/ivos_zild.png"  onmouseover="aboutZild()" transform="matrix(1 0 0 1 26.5769 820.1357)">
		</image>
	</g>
</g>
</svg>
